<svg width="337" height="30" viewBox="0 0 337 30" fill="none" xmlns="http://www.w3.org/2000/svg">
<path d="M336.83 0.912354L325.859 20.6023V29.6123H314.95V21.1721L304.189 1.79224V0.912354H315.66L323.149 15.6523L331.25 0.912354H336.83Z" fill="#354057"/>
<path d="M304.189 1.79224L304.189 6.08228H293.939V29.6123H283.139V6.08228H272.869V0.912354H303.699L304.189 1.79224Z" fill="#354057"/>
<path d="M267.569 0.912354H256.779V29.6123H267.569V0.912354Z" fill="#354057"/>
<path d="M245.389 4.06236C246.728 5.05385 247.805 6.35725 248.527 7.85941C249.248 9.36158 249.592 11.0171 249.529 12.6824C249.622 15.0699 248.819 17.406 247.279 19.2324C245.465 21.0978 243.123 22.3614 240.569 22.8524L244.379 29.6124H233.118L228.428 19.8224H230.839C233.505 19.8224 235.485 19.2523 236.779 18.1124C237.473 17.4455 238.012 16.6339 238.358 15.7352C238.704 14.8365 238.847 13.8728 238.779 12.9124C238.779 10.4624 238.109 8.63235 236.779 7.45235C235.449 6.27235 233.349 5.68236 230.509 5.68236H227.779V29.6124H217.229V0.912354H234.009C238.842 0.912354 242.635 1.96236 245.389 4.06236Z" fill="#354057"/>
<path d="M211.049 22.2322H200.539V29.6023H211.049V22.2322Z" fill="#354057"/>
<path d="M208.28 8.77224L203.38 12.3722C202.439 10.1801 200.968 8.25584 199.1 6.77224C197.424 5.52957 195.386 4.87249 193.3 4.90224C191.779 4.84387 190.27 5.18195 188.92 5.88324C187.57 6.58454 186.426 7.62493 185.6 8.90224C183.766 11.5689 182.853 15.3556 182.86 20.2622C182.75 23.5258 183.491 26.7618 185.01 29.6522H173.43C173.31 29.4422 173.21 29.2322 173.11 29.0122C171.877 26.2028 171.266 23.1599 171.32 20.0922C171.316 17.2283 171.93 14.3972 173.12 11.7922C174.268 9.18969 175.975 6.87161 178.12 5.00224C179.999 3.39629 182.163 2.1581 184.5 1.35224C186.986 0.514652 189.596 0.0989122 192.22 0.12224C195.421 0.0453033 198.59 0.770669 201.44 2.23224C204.238 3.79656 206.591 6.04719 208.28 8.77224Z" fill="#354057"/>
<path d="M165.17 0.912354V6.08228H151.87V17.2822H164.47V22.4722H151.87V29.6123H141.07V0.912354H165.17Z" fill="#354057"/>
<path d="M134.33 27.5922C134.334 28.2615 134.287 28.93 134.19 29.5922H123.79C123.609 28.9953 123.31 28.4409 122.91 27.9622C121.91 26.8927 120.729 26.009 119.42 25.3522L117.9 24.5222C115.716 23.4549 113.62 22.2178 111.63 20.8222C110.354 19.7849 109.303 18.4988 108.54 17.0422C107.913 15.6548 107.605 14.1443 107.64 12.6222C107.581 10.9315 107.882 9.24753 108.523 7.68206C109.165 6.11659 110.132 4.70542 111.36 3.54222C114.004 1.12934 117.494 -0.139681 121.07 0.0122219C123.659 -0.0382258 126.211 0.622417 128.45 1.92222C130.599 3.24494 132.319 5.16233 133.4 7.44222L129.02 10.4422C128.422 8.83232 127.416 7.4056 126.1 6.30222C124.894 5.37023 123.404 4.87966 121.88 4.91222C121.261 4.89064 120.643 4.99173 120.063 5.20969C119.483 5.42765 118.952 5.75817 118.5 6.18222C118.063 6.58401 117.717 7.0749 117.486 7.62177C117.255 8.16863 117.144 8.75873 117.16 9.35222C117.154 10.3999 117.552 11.4096 118.27 12.1722C119.533 13.3352 120.975 14.2874 122.54 14.9922L123.26 15.3722C125.731 16.4911 128.108 17.8052 130.37 19.3022C131.647 20.3048 132.694 21.57 133.44 23.0122C134.082 24.4512 134.386 26.0177 134.33 27.5922Z" fill="#354057"/>
<path d="M99.7095 0.912354V29.6123H87.0396L75.0396 11.2722V29.6123H69.3398V0.912354H81.1694L93.9297 20.6023V0.912354H99.7095Z" fill="#354057"/>
<path d="M60.5996 0.912354V6.08228H47.2896V17.2822H59.9097V22.4722H47.2896V29.6123H36.5098V0.912354H60.5996Z" fill="#354057"/>
<path d="M31.3203 0.912354V6.08228H21.0801V29.6123H10.2803V6.08228H0V0.912354H31.3203Z" fill="#354057"/>
</svg>
