<svg width="360" height="96" viewBox="0 0 360 96" fill="none" xmlns="http://www.w3.org/2000/svg">
<path d="M92.6231 64.2415C83.6532 88.8862 56.4032 101.593 31.7585 92.6231C7.11384 83.6532 -5.59306 56.4032 3.37687 31.7585C12.3468 7.11384 39.5968 -5.59306 64.2415 3.37687C88.8862 12.3468 101.593 39.5968 92.6231 64.2415Z" stroke="#B62C2C"/>
<path d="M37.466 76.376H35.618V72.246H37.466V76.376ZM38.348 77.314V71.322H35.618C35.982 70.286 36.276 69.152 36.5 67.99H38.46V67.024H33.742V67.99H35.506C35.128 70.118 34.484 72.078 33.504 73.408C33.672 73.674 33.896 74.29 33.966 74.542C34.246 74.178 34.484 73.8 34.722 73.366V78.434H35.618V77.314H38.348ZM39.944 73.59V72.176H41.932V72.89C41.932 73.128 41.932 73.352 41.918 73.59H39.944ZM39.944 69.992H41.932V71.392H39.944V69.992ZM45.012 69.992V71.392H42.926V69.992H45.012ZM45.012 73.59H42.912C42.926 73.352 42.926 73.128 42.926 72.89V72.176H45.012V73.59ZM45.978 74.416V69.166H42.926V67.85H46.272V66.898H38.74V67.85H41.932V69.166H39.02V74.416H41.848C41.75 75.102 41.54 75.774 41.134 76.376C40.616 75.942 40.196 75.424 39.916 74.808L39.034 75.032C39.412 75.83 39.902 76.502 40.532 77.048C39.958 77.552 39.16 77.972 38.054 78.28C38.25 78.49 38.544 78.882 38.67 79.106C39.818 78.728 40.672 78.21 41.288 77.622C42.478 78.406 44.018 78.868 45.894 79.106C46.006 78.84 46.272 78.42 46.496 78.196C44.606 78.042 43.08 77.622 41.904 76.922C42.45 76.152 42.716 75.312 42.842 74.416H45.978ZM51.62 66.338C50.878 68.452 49.646 70.538 48.344 71.896C48.526 72.134 48.834 72.666 48.932 72.918C49.366 72.428 49.814 71.882 50.22 71.28V79.05H51.214V69.67C51.746 68.704 52.208 67.668 52.6 66.646L51.62 66.338ZM61.112 73.226H57.318V70.16H60.51V69.138H57.318V66.464H56.282V69.138H54.42C54.602 68.508 54.756 67.85 54.882 67.192L53.902 66.982C53.58 68.788 53.006 70.608 52.18 71.756C52.446 71.882 52.88 72.134 53.076 72.288C53.454 71.7 53.79 70.972 54.084 70.16H56.282V73.226H52.292V74.248H56.282V79.078H57.318V74.248H61.112V73.226Z" fill="#242424"/>
<path fill-rule="evenodd" clip-rule="evenodd" d="M51.6531 19.2529C51.6531 18.3862 50.9505 17.6836 50.0838 17.6836C49.2171 17.6836 48.5144 18.3862 48.5144 19.2529V34.2021C48.5144 35.0688 49.2171 35.7714 50.0838 35.7714C50.9505 35.7714 51.6531 35.0688 51.6531 34.2021V19.2529ZM44.611 22.232C44.611 21.3653 43.9083 20.6627 43.0416 20.6627C42.1749 20.6627 41.4723 21.3653 41.4723 22.232L41.4723 34.2637C41.4723 35.1305 42.1749 35.8331 43.0416 35.8331C43.9083 35.8331 44.611 35.1305 44.611 34.2637V22.232ZM58.7352 23.2783C58.7352 22.4115 58.0325 21.7089 57.1658 21.7089C56.2991 21.7089 55.5965 22.4115 55.5965 23.2783V34.2637C55.5965 35.1305 56.2991 35.8331 57.1658 35.8331C58.0325 35.8331 58.7352 35.1305 58.7352 34.2637V23.2783ZM37.5489 27.7248C37.5489 26.858 36.8462 26.1554 35.9795 26.1554C35.1128 26.1554 34.4102 26.858 34.4102 27.7248L34.4102 34.2637C34.4102 35.1305 35.1128 35.8331 35.9795 35.8331C36.8462 35.8331 37.5489 35.1305 37.5489 34.2637L37.5489 27.7248ZM65.5766 40.9364C66.111 40.254 65.991 39.2676 65.3086 38.7332C64.6262 38.1989 63.6398 38.3189 63.1054 39.0013L60.5671 42.2429V41.364C60.5671 39.3416 58.9276 37.7021 56.9052 37.7021H36.5036C34.4813 37.7021 32.8418 39.3416 32.8418 41.364V48.6876C32.8418 50.4406 34.0735 51.9059 35.7188 52.2652V56.5356C35.7188 57.4023 36.4214 58.1049 37.2881 58.1049H56.2802C57.147 58.1049 57.8496 57.4023 57.8496 56.5356V52.2265C59.4143 51.8101 60.5671 50.3835 60.5671 48.6876V47.3339L65.5766 40.9364ZM36.5036 40.8409C36.2147 40.8409 35.9805 41.0751 35.9805 41.364V48.6876C35.9805 48.9765 36.2147 49.2108 36.5036 49.2108H56.9052C57.1942 49.2108 57.4284 48.9765 57.4284 48.6876V41.364C57.4284 41.0751 57.1942 40.8409 56.9052 40.8409H36.5036ZM38.8575 54.9662V52.3506H54.7109V54.9662H38.8575Z" fill="black"/>
<path fill-rule="evenodd" clip-rule="evenodd" d="M51.6531 19.2529C51.6531 18.3862 50.9505 17.6836 50.0838 17.6836C49.2171 17.6836 48.5144 18.3862 48.5144 19.2529V34.2021C48.5144 35.0688 49.2171 35.7714 50.0838 35.7714C50.9505 35.7714 51.6531 35.0688 51.6531 34.2021V19.2529ZM44.611 22.232C44.611 21.3653 43.9083 20.6627 43.0416 20.6627C42.1749 20.6627 41.4723 21.3653 41.4723 22.232L41.4723 34.2637C41.4723 35.1305 42.1749 35.8331 43.0416 35.8331C43.9083 35.8331 44.611 35.1305 44.611 34.2637V22.232ZM58.7352 23.2783C58.7352 22.4115 58.0325 21.7089 57.1658 21.7089C56.2991 21.7089 55.5965 22.4115 55.5965 23.2783V34.2637C55.5965 35.1305 56.2991 35.8331 57.1658 35.8331C58.0325 35.8331 58.7352 35.1305 58.7352 34.2637V23.2783ZM37.5489 27.7248C37.5489 26.858 36.8462 26.1554 35.9795 26.1554C35.1128 26.1554 34.4102 26.858 34.4102 27.7248L34.4102 34.2637C34.4102 35.1305 35.1128 35.8331 35.9795 35.8331C36.8462 35.8331 37.5489 35.1305 37.5489 34.2637L37.5489 27.7248ZM65.5766 40.9364C66.111 40.254 65.991 39.2676 65.3086 38.7332C64.6262 38.1989 63.6398 38.3189 63.1054 39.0013L60.5671 42.2429V41.364C60.5671 39.3416 58.9276 37.7021 56.9052 37.7021H36.5036C34.4813 37.7021 32.8418 39.3416 32.8418 41.364V48.6876C32.8418 50.4406 34.0735 51.9059 35.7188 52.2652V56.5356C35.7188 57.4023 36.4214 58.1049 37.2881 58.1049H56.2802C57.147 58.1049 57.8496 57.4023 57.8496 56.5356V52.2265C59.4143 51.8101 60.5671 50.3835 60.5671 48.6876V47.3339L65.5766 40.9364ZM36.5036 40.8409C36.2147 40.8409 35.9805 41.0751 35.9805 41.364V48.6876C35.9805 48.9765 36.2147 49.2108 36.5036 49.2108H56.9052C57.1942 49.2108 57.4284 48.9765 57.4284 48.6876V41.364C57.4284 41.0751 57.1942 40.8409 56.9052 40.8409H36.5036ZM38.8575 54.9662V52.3506H54.7109V54.9662H38.8575Z" fill="#126B3F"/>
<path fill-rule="evenodd" clip-rule="evenodd" d="M51.6531 19.2529C51.6531 18.3862 50.9505 17.6836 50.0838 17.6836C49.2171 17.6836 48.5144 18.3862 48.5144 19.2529V34.2021C48.5144 35.0688 49.2171 35.7714 50.0838 35.7714C50.9505 35.7714 51.6531 35.0688 51.6531 34.2021V19.2529ZM44.611 22.232C44.611 21.3653 43.9083 20.6627 43.0416 20.6627C42.1749 20.6627 41.4723 21.3653 41.4723 22.232L41.4723 34.2637C41.4723 35.1305 42.1749 35.8331 43.0416 35.8331C43.9083 35.8331 44.611 35.1305 44.611 34.2637V22.232ZM58.7352 23.2783C58.7352 22.4115 58.0325 21.7089 57.1658 21.7089C56.2991 21.7089 55.5965 22.4115 55.5965 23.2783V34.2637C55.5965 35.1305 56.2991 35.8331 57.1658 35.8331C58.0325 35.8331 58.7352 35.1305 58.7352 34.2637V23.2783ZM37.5489 27.7248C37.5489 26.858 36.8462 26.1554 35.9795 26.1554C35.1128 26.1554 34.4102 26.858 34.4102 27.7248L34.4102 34.2637C34.4102 35.1305 35.1128 35.8331 35.9795 35.8331C36.8462 35.8331 37.5489 35.1305 37.5489 34.2637L37.5489 27.7248ZM65.5766 40.9364C66.111 40.254 65.991 39.2676 65.3086 38.7332C64.6262 38.1989 63.6398 38.3189 63.1054 39.0013L60.5671 42.2429V41.364C60.5671 39.3416 58.9276 37.7021 56.9052 37.7021H36.5036C34.4813 37.7021 32.8418 39.3416 32.8418 41.364V48.6876C32.8418 50.4406 34.0735 51.9059 35.7188 52.2652V56.5356C35.7188 57.4023 36.4214 58.1049 37.2881 58.1049H56.2802C57.147 58.1049 57.8496 57.4023 57.8496 56.5356V52.2265C59.4143 51.8101 60.5671 50.3835 60.5671 48.6876V47.3339L65.5766 40.9364ZM36.5036 40.8409C36.2147 40.8409 35.9805 41.0751 35.9805 41.364V48.6876C35.9805 48.9765 36.2147 49.2108 36.5036 49.2108H56.9052C57.1942 49.2108 57.4284 48.9765 57.4284 48.6876V41.364C57.4284 41.0751 57.1942 40.8409 56.9052 40.8409H36.5036ZM38.8575 54.9662V52.3506H54.7109V54.9662H38.8575Z" fill="#B62C2C"/>
<path d="M224.623 64.2415C215.653 88.8862 188.403 101.593 163.759 92.6231C139.114 83.6532 126.407 56.4032 135.377 31.7585C144.347 7.11384 171.597 -5.59306 196.241 3.37687C220.886 12.3468 233.593 39.5968 224.623 64.2415Z" stroke="#B62C2C"/>
<path d="M172.686 68.074C172.448 67.57 171.944 66.828 171.482 66.268L170.544 66.66C170.992 67.234 171.482 68.018 171.706 68.522L172.686 68.074ZM169.606 67.878C169.116 67.486 168.15 66.856 167.422 66.464L166.82 67.178C167.548 67.626 168.514 68.27 168.976 68.704L169.606 67.878ZM169.158 71.476C168.64 71.112 167.604 70.552 166.848 70.188L166.26 70.944C167.03 71.336 168.066 71.924 168.57 72.316L169.158 71.476ZM168.248 73.87C167.744 75.452 167.016 77.258 166.512 78.364L167.45 78.882C167.996 77.594 168.626 75.858 169.088 74.416L168.248 73.87ZM171.496 71.518C171.538 70.86 171.552 70.202 171.58 69.53H174.198V68.536H169.312V69.53H170.614C170.53 72.96 170.348 76.488 168.528 78.406C168.78 78.546 169.102 78.84 169.27 79.064C170.698 77.496 171.216 75.116 171.44 72.484H172.826C172.728 76.208 172.602 77.538 172.392 77.832C172.266 78 172.154 78.014 171.958 78.014C171.762 78.014 171.244 78.014 170.712 77.958C170.866 78.238 170.95 78.616 170.978 78.91C171.524 78.938 172.084 78.938 172.406 78.91C172.756 78.868 172.994 78.756 173.218 78.462C173.554 78 173.666 76.474 173.792 71.994C173.792 71.854 173.806 71.518 173.806 71.518H171.496ZM179.112 73.94H177.152V72.932C177.824 72.414 178.524 71.714 179.028 71.042L178.384 70.594L178.202 70.65H174.758C175.024 70.202 175.248 69.684 175.472 69.124H179.098V68.144H175.808C175.948 67.598 176.088 67.038 176.2 66.45L175.206 66.296C174.926 67.906 174.408 69.502 173.624 70.524C173.876 70.65 174.324 70.902 174.506 71.056C174.576 70.944 174.66 70.832 174.73 70.706V71.574H177.376C177.012 71.952 176.592 72.33 176.186 72.596V73.94H174.044V74.878H176.186V77.902C176.186 78.07 176.13 78.112 175.934 78.112C175.752 78.14 175.122 78.14 174.422 78.112C174.534 78.406 174.674 78.784 174.716 79.078C175.654 79.078 176.27 79.064 176.662 78.896C177.054 78.742 177.152 78.462 177.152 77.902V74.878H179.112V73.94ZM193.084 68.284C192.692 67.738 191.838 66.954 191.138 66.422L190.41 66.968C191.096 67.542 191.936 68.354 192.328 68.914L193.084 68.284ZM186.7 76.264C186.308 75.55 185.72 74.64 185.048 73.646C185.748 72.078 186.252 70.216 186.532 68.074L185.86 67.85L185.692 67.892H181.31V68.83H185.412C185.174 70.202 184.81 71.49 184.348 72.638C183.62 71.616 182.864 70.566 182.178 69.67L181.436 70.258C182.206 71.294 183.074 72.526 183.844 73.702C183.074 75.242 182.066 76.446 180.974 77.188C181.226 77.384 181.562 77.776 181.73 78.042C182.794 77.244 183.746 76.124 184.502 74.724C185.062 75.564 185.538 76.376 185.86 77.006L186.7 76.264ZM192.258 71.294C191.796 72.512 191.11 73.716 190.284 74.78C189.99 73.716 189.766 72.4 189.612 70.93L193.714 70.454L193.588 69.502L189.514 69.964C189.416 68.844 189.346 67.626 189.304 66.38H188.24C188.296 67.682 188.366 68.928 188.478 70.09L186.532 70.314L186.658 71.266L188.548 71.056C188.758 72.876 189.038 74.486 189.444 75.774C188.562 76.684 187.596 77.454 186.546 77.958C186.854 78.154 187.176 78.462 187.372 78.728C188.24 78.238 189.052 77.58 189.822 76.81C190.438 78.182 191.264 79.022 192.384 79.106C193.056 79.148 193.616 78.476 193.896 76.166C193.686 76.082 193.224 75.816 193.042 75.606C192.902 77.104 192.692 77.874 192.342 77.846C191.656 77.776 191.082 77.076 190.648 75.914C191.684 74.682 192.524 73.24 193.07 71.798L192.258 71.294Z" fill="#242424"/>
<path fill-rule="evenodd" clip-rule="evenodd" d="M171.017 17.9987C171.713 17.4768 172.7 17.6178 173.222 18.3136L177.867 24.5078H182.855L187.501 18.3136C188.022 17.6178 189.01 17.4768 189.705 17.9987C190.401 18.5205 190.542 19.5076 190.02 20.2034L186.792 24.5078H199.785C201.814 24.5078 203.459 26.153 203.459 28.1825V54.4299C203.459 56.4594 201.814 58.1046 199.785 58.1046H160.938C158.909 58.1046 157.264 56.4594 157.264 54.4299V28.1825C157.264 26.153 158.909 24.5078 160.938 24.5078H173.93L170.702 20.2034C170.18 19.5076 170.321 18.5205 171.017 17.9987ZM160.413 28.1825C160.413 27.8925 160.648 27.6575 160.938 27.6575H199.785C200.075 27.6575 200.31 27.8925 200.31 28.1825V54.4299C200.31 54.7199 200.075 54.9549 199.785 54.9549H160.938C160.648 54.9549 160.413 54.7199 160.413 54.4299V28.1825ZM166.186 29.7578C164.157 29.7578 162.512 31.403 162.512 33.4325V49.1809C162.512 51.2104 164.157 52.8556 166.186 52.8556H185.085C187.114 52.8556 188.759 51.2104 188.759 49.1809V33.4325C188.759 31.403 187.114 29.7578 185.085 29.7578H166.186ZM165.661 33.4325C165.661 33.1425 165.896 32.9075 166.186 32.9075H185.085C185.374 32.9075 185.609 33.1425 185.609 33.4325V49.1809C185.609 49.4709 185.374 49.7059 185.085 49.7059H166.186C165.896 49.7059 165.661 49.4709 165.661 49.1809V33.4325ZM194.535 36.5815C195.985 36.5815 197.16 35.4064 197.16 33.9568C197.16 32.5072 195.985 31.332 194.535 31.332C193.085 31.332 191.91 32.5072 191.91 33.9568C191.91 35.4064 193.085 36.5815 194.535 36.5815ZM197.16 41.8318C197.16 43.2814 195.985 44.4565 194.535 44.4565C193.085 44.4565 191.91 43.2814 191.91 41.8318C191.91 40.3822 193.085 39.207 194.535 39.207C195.985 39.207 197.16 40.3822 197.16 41.8318Z" fill="black"/>
<path fill-rule="evenodd" clip-rule="evenodd" d="M171.017 17.9987C171.713 17.4768 172.7 17.6178 173.222 18.3136L177.867 24.5078H182.855L187.501 18.3136C188.022 17.6178 189.01 17.4768 189.705 17.9987C190.401 18.5205 190.542 19.5076 190.02 20.2034L186.792 24.5078H199.785C201.814 24.5078 203.459 26.153 203.459 28.1825V54.4299C203.459 56.4594 201.814 58.1046 199.785 58.1046H160.938C158.909 58.1046 157.264 56.4594 157.264 54.4299V28.1825C157.264 26.153 158.909 24.5078 160.938 24.5078H173.93L170.702 20.2034C170.18 19.5076 170.321 18.5205 171.017 17.9987ZM160.413 28.1825C160.413 27.8925 160.648 27.6575 160.938 27.6575H199.785C200.075 27.6575 200.31 27.8925 200.31 28.1825V54.4299C200.31 54.7199 200.075 54.9549 199.785 54.9549H160.938C160.648 54.9549 160.413 54.7199 160.413 54.4299V28.1825ZM166.186 29.7578C164.157 29.7578 162.512 31.403 162.512 33.4325V49.1809C162.512 51.2104 164.157 52.8556 166.186 52.8556H185.085C187.114 52.8556 188.759 51.2104 188.759 49.1809V33.4325C188.759 31.403 187.114 29.7578 185.085 29.7578H166.186ZM165.661 33.4325C165.661 33.1425 165.896 32.9075 166.186 32.9075H185.085C185.374 32.9075 185.609 33.1425 185.609 33.4325V49.1809C185.609 49.4709 185.374 49.7059 185.085 49.7059H166.186C165.896 49.7059 165.661 49.4709 165.661 49.1809V33.4325ZM194.535 36.5815C195.985 36.5815 197.16 35.4064 197.16 33.9568C197.16 32.5072 195.985 31.332 194.535 31.332C193.085 31.332 191.91 32.5072 191.91 33.9568C191.91 35.4064 193.085 36.5815 194.535 36.5815ZM197.16 41.8318C197.16 43.2814 195.985 44.4565 194.535 44.4565C193.085 44.4565 191.91 43.2814 191.91 41.8318C191.91 40.3822 193.085 39.207 194.535 39.207C195.985 39.207 197.16 40.3822 197.16 41.8318Z" fill="#126B3F"/>
<path fill-rule="evenodd" clip-rule="evenodd" d="M171.017 17.9987C171.713 17.4768 172.7 17.6178 173.222 18.3136L177.867 24.5078H182.855L187.501 18.3136C188.022 17.6178 189.01 17.4768 189.705 17.9987C190.401 18.5205 190.542 19.5076 190.02 20.2034L186.792 24.5078H199.785C201.814 24.5078 203.459 26.153 203.459 28.1825V54.4299C203.459 56.4594 201.814 58.1046 199.785 58.1046H160.938C158.909 58.1046 157.264 56.4594 157.264 54.4299V28.1825C157.264 26.153 158.909 24.5078 160.938 24.5078H173.93L170.702 20.2034C170.18 19.5076 170.321 18.5205 171.017 17.9987ZM160.413 28.1825C160.413 27.8925 160.648 27.6575 160.938 27.6575H199.785C200.075 27.6575 200.31 27.8925 200.31 28.1825V54.4299C200.31 54.7199 200.075 54.9549 199.785 54.9549H160.938C160.648 54.9549 160.413 54.7199 160.413 54.4299V28.1825ZM166.186 29.7578C164.157 29.7578 162.512 31.403 162.512 33.4325V49.1809C162.512 51.2104 164.157 52.8556 166.186 52.8556H185.085C187.114 52.8556 188.759 51.2104 188.759 49.1809V33.4325C188.759 31.403 187.114 29.7578 185.085 29.7578H166.186ZM165.661 33.4325C165.661 33.1425 165.896 32.9075 166.186 32.9075H185.085C185.374 32.9075 185.609 33.1425 185.609 33.4325V49.1809C185.609 49.4709 185.374 49.7059 185.085 49.7059H166.186C165.896 49.7059 165.661 49.4709 165.661 49.1809V33.4325ZM194.535 36.5815C195.985 36.5815 197.16 35.4064 197.16 33.9568C197.16 32.5072 195.985 31.332 194.535 31.332C193.085 31.332 191.91 32.5072 191.91 33.9568C191.91 35.4064 193.085 36.5815 194.535 36.5815ZM197.16 41.8318C197.16 43.2814 195.985 44.4565 194.535 44.4565C193.085 44.4565 191.91 43.2814 191.91 41.8318C191.91 40.3822 193.085 39.207 194.535 39.207C195.985 39.207 197.16 40.3822 197.16 41.8318Z" fill="#B62C2C"/>
<path d="M356.623 64.2415C347.653 88.8862 320.403 101.593 295.759 92.6231C271.114 83.6532 258.407 56.4032 267.377 31.7585C276.347 7.11384 303.597 -5.59306 328.241 3.37687C352.886 12.3468 365.593 39.5968 356.623 64.2415Z" stroke="#B62C2C"/>
<path d="M310.611 73.142H304.871V68.256H309.827V67.234H298.879V68.256H303.807V73.142H298.151V74.164H303.807V79.064H304.871V74.164H310.611V73.142ZM299.859 69.222C300.391 70.244 300.923 71.602 301.119 72.428L302.099 72.092C301.917 71.266 301.343 69.95 300.769 68.942L299.859 69.222ZM307.279 72.47C307.825 71.63 308.497 70.3 309.001 69.18L307.909 68.872C307.559 69.88 306.915 71.308 306.397 72.176L307.279 72.47ZM322.567 74.206V77.3H315.805V74.206H322.567ZM314.755 79.064H315.805V78.308H322.567V79.036H323.659V73.212H314.755V79.064ZM320.579 68.41C321.251 69.012 321.965 69.74 322.609 70.468L315.469 70.818C316.701 69.656 317.947 68.214 319.053 66.702L318.031 66.24C316.939 67.976 315.315 69.74 314.811 70.188C314.349 70.65 313.985 70.958 313.677 71.014C313.789 71.294 313.971 71.812 314.013 72.036C314.559 71.84 315.371 71.812 323.365 71.364C323.715 71.798 324.009 72.204 324.219 72.568L325.101 71.938C324.373 70.776 322.763 69.068 321.405 67.878L320.579 68.41Z" fill="#242424"/>
<path fill-rule="evenodd" clip-rule="evenodd" d="M292.21 17.6836C290.118 17.6836 288.422 19.3796 288.422 21.4717V48.5295C288.422 50.6216 290.118 52.3176 292.21 52.3176H332.256C334.348 52.3176 336.044 50.6216 336.044 48.5295V21.4717C336.044 19.3796 334.348 17.6836 332.256 17.6836H292.21ZM291.669 21.4717C291.669 21.1728 291.911 20.9305 292.21 20.9305H332.256C332.554 20.9305 332.797 21.1728 332.797 21.4717V48.5295C332.797 48.8283 332.554 49.0706 332.256 49.0706H292.21C291.911 49.0706 291.669 48.8283 291.669 48.5295V21.4717ZM305.198 54.8584C304.301 54.8584 303.574 55.5853 303.574 56.4819C303.574 57.3785 304.301 58.1053 305.198 58.1053H319.538C320.435 58.1053 321.162 57.3785 321.162 56.4819C321.162 55.5853 320.435 54.8584 319.538 54.8584H305.198ZM308.725 26.1106C309.152 26.8991 308.858 27.8843 308.07 28.3112C308.035 28.3304 307.999 28.3499 307.964 28.3696C305.528 29.7355 303.906 32.2928 303.844 35.1791C303.825 36.0755 303.083 36.7868 302.187 36.7677C301.29 36.7487 300.579 36.0066 300.598 35.1101C300.685 31.026 302.98 27.442 306.376 25.5376C306.425 25.51 306.474 25.4828 306.524 25.4559C307.313 25.029 308.298 25.3221 308.725 26.1106ZM315.601 26.1623C316.038 25.3794 317.027 25.099 317.81 25.5361C321.409 27.5455 323.507 31.2426 323.596 35.1069C323.617 36.0033 322.907 36.7468 322.011 36.7676C321.115 36.7885 320.371 36.0787 320.35 35.1823C320.286 32.4366 318.796 29.8052 316.227 28.3712C315.444 27.9341 315.164 26.9452 315.601 26.1623ZM305.809 42.8468C306.261 42.0729 307.256 41.8124 308.03 42.265C310.519 43.7208 313.701 43.805 316.326 42.266C317.099 41.8124 318.094 42.0718 318.547 42.8453C319.001 43.6187 318.742 44.6134 317.968 45.0669C314.295 47.2206 309.858 47.0956 306.39 45.0678C305.616 44.6152 305.356 43.6208 305.809 42.8468ZM312.232 27.4241C313.577 27.4241 314.667 26.3338 314.667 24.9889C314.667 23.644 313.577 22.5537 312.232 22.5537C310.887 22.5537 309.797 23.644 309.797 24.9889C309.797 26.3338 310.887 27.4241 312.232 27.4241ZM305.738 40.2467C305.738 41.5917 304.647 42.6819 303.302 42.6819C301.957 42.6819 300.867 41.5917 300.867 40.2467C300.867 38.9018 301.957 37.8115 303.302 37.8115C304.647 37.8115 305.738 38.9018 305.738 40.2467ZM321.162 42.6819C322.507 42.6819 323.597 41.5917 323.597 40.2467C323.597 38.9018 322.507 37.8115 321.162 37.8115C319.817 37.8115 318.727 38.9018 318.727 40.2467C318.727 41.5917 319.817 42.6819 321.162 42.6819Z" fill="black"/>
<path fill-rule="evenodd" clip-rule="evenodd" d="M292.21 17.6836C290.118 17.6836 288.422 19.3796 288.422 21.4717V48.5295C288.422 50.6216 290.118 52.3176 292.21 52.3176H332.256C334.348 52.3176 336.044 50.6216 336.044 48.5295V21.4717C336.044 19.3796 334.348 17.6836 332.256 17.6836H292.21ZM291.669 21.4717C291.669 21.1728 291.911 20.9305 292.21 20.9305H332.256C332.554 20.9305 332.797 21.1728 332.797 21.4717V48.5295C332.797 48.8283 332.554 49.0706 332.256 49.0706H292.21C291.911 49.0706 291.669 48.8283 291.669 48.5295V21.4717ZM305.198 54.8584C304.301 54.8584 303.574 55.5853 303.574 56.4819C303.574 57.3785 304.301 58.1053 305.198 58.1053H319.538C320.435 58.1053 321.162 57.3785 321.162 56.4819C321.162 55.5853 320.435 54.8584 319.538 54.8584H305.198ZM308.725 26.1106C309.152 26.8991 308.858 27.8843 308.07 28.3112C308.035 28.3304 307.999 28.3499 307.964 28.3696C305.528 29.7355 303.906 32.2928 303.844 35.1791C303.825 36.0755 303.083 36.7868 302.187 36.7677C301.29 36.7487 300.579 36.0066 300.598 35.1101C300.685 31.026 302.98 27.442 306.376 25.5376C306.425 25.51 306.474 25.4828 306.524 25.4559C307.313 25.029 308.298 25.3221 308.725 26.1106ZM315.601 26.1623C316.038 25.3794 317.027 25.099 317.81 25.5361C321.409 27.5455 323.507 31.2426 323.596 35.1069C323.617 36.0033 322.907 36.7468 322.011 36.7676C321.115 36.7885 320.371 36.0787 320.35 35.1823C320.286 32.4366 318.796 29.8052 316.227 28.3712C315.444 27.9341 315.164 26.9452 315.601 26.1623ZM305.809 42.8468C306.261 42.0729 307.256 41.8124 308.03 42.265C310.519 43.7208 313.701 43.805 316.326 42.266C317.099 41.8124 318.094 42.0718 318.547 42.8453C319.001 43.6187 318.742 44.6134 317.968 45.0669C314.295 47.2206 309.858 47.0956 306.39 45.0678C305.616 44.6152 305.356 43.6208 305.809 42.8468ZM312.232 27.4241C313.577 27.4241 314.667 26.3338 314.667 24.9889C314.667 23.644 313.577 22.5537 312.232 22.5537C310.887 22.5537 309.797 23.644 309.797 24.9889C309.797 26.3338 310.887 27.4241 312.232 27.4241ZM305.738 40.2467C305.738 41.5917 304.647 42.6819 303.302 42.6819C301.957 42.6819 300.867 41.5917 300.867 40.2467C300.867 38.9018 301.957 37.8115 303.302 37.8115C304.647 37.8115 305.738 38.9018 305.738 40.2467ZM321.162 42.6819C322.507 42.6819 323.597 41.5917 323.597 40.2467C323.597 38.9018 322.507 37.8115 321.162 37.8115C319.817 37.8115 318.727 38.9018 318.727 40.2467C318.727 41.5917 319.817 42.6819 321.162 42.6819Z" fill="#126B3F"/>
<path fill-rule="evenodd" clip-rule="evenodd" d="M292.21 17.6836C290.118 17.6836 288.422 19.3796 288.422 21.4717V48.5295C288.422 50.6216 290.118 52.3176 292.21 52.3176H332.256C334.348 52.3176 336.044 50.6216 336.044 48.5295V21.4717C336.044 19.3796 334.348 17.6836 332.256 17.6836H292.21ZM291.669 21.4717C291.669 21.1728 291.911 20.9305 292.21 20.9305H332.256C332.554 20.9305 332.797 21.1728 332.797 21.4717V48.5295C332.797 48.8283 332.554 49.0706 332.256 49.0706H292.21C291.911 49.0706 291.669 48.8283 291.669 48.5295V21.4717ZM305.198 54.8584C304.301 54.8584 303.574 55.5853 303.574 56.4819C303.574 57.3785 304.301 58.1053 305.198 58.1053H319.538C320.435 58.1053 321.162 57.3785 321.162 56.4819C321.162 55.5853 320.435 54.8584 319.538 54.8584H305.198ZM308.725 26.1106C309.152 26.8991 308.858 27.8843 308.07 28.3112C308.035 28.3304 307.999 28.3499 307.964 28.3696C305.528 29.7355 303.906 32.2928 303.844 35.1791C303.825 36.0755 303.083 36.7868 302.187 36.7677C301.29 36.7487 300.579 36.0066 300.598 35.1101C300.685 31.026 302.98 27.442 306.376 25.5376C306.425 25.51 306.474 25.4828 306.524 25.4559C307.313 25.029 308.298 25.3221 308.725 26.1106ZM315.601 26.1623C316.038 25.3794 317.027 25.099 317.81 25.5361C321.409 27.5455 323.507 31.2426 323.596 35.1069C323.617 36.0033 322.907 36.7468 322.011 36.7676C321.115 36.7885 320.371 36.0787 320.35 35.1823C320.286 32.4366 318.796 29.8052 316.227 28.3712C315.444 27.9341 315.164 26.9452 315.601 26.1623ZM305.809 42.8468C306.261 42.0729 307.256 41.8124 308.03 42.265C310.519 43.7208 313.701 43.805 316.326 42.266C317.099 41.8124 318.094 42.0718 318.547 42.8453C319.001 43.6187 318.742 44.6134 317.968 45.0669C314.295 47.2206 309.858 47.0956 306.39 45.0678C305.616 44.6152 305.356 43.6208 305.809 42.8468ZM312.232 27.4241C313.577 27.4241 314.667 26.3338 314.667 24.9889C314.667 23.644 313.577 22.5537 312.232 22.5537C310.887 22.5537 309.797 23.644 309.797 24.9889C309.797 26.3338 310.887 27.4241 312.232 27.4241ZM305.738 40.2467C305.738 41.5917 304.647 42.6819 303.302 42.6819C301.957 42.6819 300.867 41.5917 300.867 40.2467C300.867 38.9018 301.957 37.8115 303.302 37.8115C304.647 37.8115 305.738 38.9018 305.738 40.2467ZM321.162 42.6819C322.507 42.6819 323.597 41.5917 323.597 40.2467C323.597 38.9018 322.507 37.8115 321.162 37.8115C319.817 37.8115 318.727 38.9018 318.727 40.2467C318.727 41.5917 319.817 42.6819 321.162 42.6819Z" fill="#B62C2C"/>
<path d="M106 48H122" stroke="#B62C2C" stroke-linecap="round" stroke-linejoin="round"/>
<path d="M114 40L114 56" stroke="#B62C2C" stroke-linecap="round" stroke-linejoin="round"/>
<path d="M240 48H252" stroke="#B62C2C" stroke-linecap="round" stroke-linejoin="round"/>
<path d="M246 42L246 54" stroke="#B62C2C" stroke-linecap="round" stroke-linejoin="round"/>
</svg>
