<svg width="215" height="48" viewBox="0 0 215 48" fill="none" xmlns="http://www.w3.org/2000/svg">
<path d="M64.4353 41.7461C63.4948 41.9557 62.5268 42.0133 61.5681 41.9168H44.3672V47.854H63.2748C65.2305 47.854 66.9023 47.6606 68.2904 47.2737C69.6784 46.8869 70.8048 46.2839 71.6695 45.4647C72.4896 44.701 73.2016 43.8289 73.7857 42.8725C74.3252 41.9778 74.7387 41.013 75.0145 40.0054C75.1067 39.6347 75.1751 39.2584 75.2193 38.879C75.2592 38.5254 75.3022 38.1812 75.3441 37.8466L75.3444 37.8443L75.3445 37.843L75.3449 37.8403L75.3558 37.7526C75.4013 37.3885 75.4355 37.0244 75.4582 36.6604C75.481 36.2963 75.4924 35.955 75.4924 35.6364C75.5029 34.3867 75.3186 33.143 74.9463 31.9501C74.5986 30.846 74.0678 29.8082 73.3761 28.88C72.7253 28.0031 72.0062 27.1788 71.2258 26.4149C70.5005 25.7075 69.7122 25.0677 68.8706 24.5035C68.6886 24.4124 68.5066 24.31 68.3245 24.1963C68.1425 24.0825 67.9832 23.9801 67.8466 23.8891C67.6682 23.8002 67.497 23.6975 67.3347 23.5819C67.1754 23.4681 67.0275 23.3657 66.8909 23.2747C66.7999 23.2292 66.6975 23.1837 66.5837 23.1381C66.4684 23.0916 66.3638 23.0219 66.2765 22.9333C66.1442 22.8905 66.0171 22.8333 65.8973 22.7627C65.7835 22.6944 65.6811 22.6375 65.5901 22.592L65.503 22.5462C65.3539 22.4679 65.1922 22.383 65.0212 22.2848L65.0199 22.284C64.8154 22.1667 64.5979 22.0418 64.3727 21.9056C63.5485 21.4935 62.7268 21.0725 61.9076 20.6427C61.0884 20.2129 60.2237 19.7704 59.3135 19.3153C58.4463 18.8589 57.5247 18.3356 56.5488 17.7452C55.5728 17.1548 54.5615 16.4949 53.5147 15.7655C53.1894 15.5799 52.8909 15.3508 52.6273 15.0847C52.3611 14.8207 52.1316 14.5222 51.9446 14.1973C51.7679 13.8527 51.6402 13.485 51.5654 13.105C51.4964 12.7221 51.4621 12.3337 51.463 11.9445V11.3984C51.4831 11.3814 51.4997 11.3606 51.5117 11.3372C51.5238 11.3137 51.5311 11.2881 51.5331 11.2619C51.6228 10.624 51.8062 10.0029 52.0774 9.41872C52.3828 8.78167 52.7989 8.20384 53.3062 7.71208C53.8558 7.16368 54.5203 6.74401 55.2517 6.48331C56.0788 6.19471 56.9388 6.01124 57.8116 5.93719H73.3743V0L56.7194 0.136531C56.6273 0.136667 56.5356 0.148131 56.4463 0.170664C56.3571 0.193196 56.2654 0.20466 56.1733 0.204796C56.0368 0.250306 55.923 0.284439 55.832 0.307194C55.7427 0.329727 55.651 0.341191 55.5589 0.341327C55.3791 0.386419 55.1967 0.420614 55.0128 0.443725C54.8288 0.466837 54.6465 0.50103 54.4667 0.546122C53.2522 0.814028 52.0811 1.24994 50.987 1.84127C49.8537 2.46352 48.7994 3.21988 47.8468 4.09402C46.8347 4.9746 46.07 6.10406 45.6282 7.37076C45.1258 8.84224 44.8833 10.3899 44.9114 11.9445V12.703C44.8849 14.4158 45.2961 16.1069 46.106 17.6162C46.9667 19.1451 48.1701 20.4536 49.6217 21.4391C51.2095 22.525 52.8807 23.5686 54.6354 24.5698C56.3901 25.571 58.2231 26.5268 60.1346 27.437C60.1326 27.4555 60.1347 27.4742 60.1406 27.4918C60.1465 27.5095 60.1561 27.5257 60.1687 27.5394C60.1826 27.5516 60.1988 27.561 60.2164 27.5668C60.234 27.5727 60.2526 27.575 60.2711 27.5735H60.4076L62.5921 28.6657C63.5639 29.1673 64.4986 29.7376 65.3891 30.3724C66.1546 30.9145 66.8435 31.5575 67.4371 32.2838C67.9558 32.9199 68.3705 33.6342 68.6658 34.4C68.9415 35.1426 69.0802 35.929 69.0754 36.721C68.9703 37.5894 68.6918 38.4277 68.2562 39.1862C67.8674 39.847 67.3298 40.4079 66.6861 40.8245C65.9935 41.2571 65.2324 41.5687 64.4353 41.7461Z" fill="#B62C2C"/>
<path d="M0 16.1146C0 12.8391 0.420964 10.1211 1.2629 7.96067C2.10484 5.80019 3.36901 4.21998 5.05542 3.22002C6.69578 2.19321 8.47754 1.4119 10.3441 0.900894C12.2246 0.392768 14.1645 0.137685 16.1125 0.14239L23.0737 0.00585938V5.94305H16.6586C15.2745 6.01606 13.9017 6.23341 12.5627 6.59157C11.3994 6.90344 10.2932 7.3989 9.28598 8.05927C8.30007 8.73535 7.54915 9.70166 7.13752 10.824C6.65966 12.03 6.42073 13.4977 6.42073 15.2271V20.9595H23.0737V26.8986H6.42073V47.8523H0V16.1146Z" fill="#B62C2C"/>
<path d="M30.2373 0.00793457H36.7263V47.8543H30.243L30.2373 0.00793457Z" fill="#B62C2C"/>
<path d="M78.9032 0.00793457H109.543V5.94512H97.7349V47.8524H90.7055V5.94512H78.8975L78.9032 0.00793457Z" fill="#B62C2C"/>
<path d="M134.838 7.96067C133.996 10.1211 133.575 12.8391 133.575 16.1146L133.579 47.8523H139.996V26.8986H156.649V20.9595H139.996V15.2271C139.993 13.4977 140.232 12.03 140.713 10.824C141.124 9.70135 141.875 8.73488 142.861 8.05927C143.868 7.3989 144.975 6.90344 146.138 6.59157C147.477 6.23341 148.85 6.01606 150.234 5.94305H156.649V0.00585938L149.688 0.14239C147.74 0.137685 145.8 0.392768 143.919 0.900894C142.053 1.4119 140.271 2.19321 138.631 3.22002C136.944 4.21998 135.68 5.80019 134.838 7.96067Z" fill="#B62C2C"/>
<path d="M163.811 0.00793457H170.296V47.8543H163.811V0.00793457Z" fill="#B62C2C"/>
<path d="M183.23 1.10018C181.162 0.447741 179.015 0.0802759 176.847 0.00793457H176.823V6.62777C179.643 6.90083 182.032 7.53798 183.989 8.5392C185.858 9.46193 187.44 10.8783 188.562 12.6351C189.642 14.3757 190.472 16.2594 191.028 18.231C191.58 20.232 191.855 22.2991 191.847 24.3749C191.877 26.521 191.59 28.6598 190.993 30.7216C190.466 32.5102 189.597 34.1794 188.434 35.6367C187.409 36.9385 186.215 38.0978 184.884 39.0841C183.706 39.9465 182.391 40.6043 180.995 41.0297C180.674 41.1207 180.371 41.2004 180.073 41.2686C179.775 41.3369 179.493 41.3938 179.22 41.4393C178.947 41.4848 178.673 41.5189 178.4 41.5417C178.127 41.5644 177.854 41.5758 177.581 41.5758H177.001C176.933 41.5758 176.876 41.5303 176.83 41.4393V47.8562H177.923C180.008 47.8752 182.082 47.555 184.065 46.9081C186.029 46.2422 187.856 45.2251 189.458 43.9063C191.052 42.6404 192.425 41.1177 193.519 39.4008C194.55 37.7449 195.278 35.9188 195.67 34.0079C195.771 35.6006 196.224 37.1511 196.997 38.5475C197.874 40.1298 199.017 41.5499 200.374 42.7458C201.751 44.0547 203.302 45.1681 204.982 46.0548C206.564 46.8857 208.252 47.4944 210 47.8638H210.758C210.861 47.8653 210.964 47.8768 211.065 47.8979C211.19 47.922 211.317 47.9334 211.445 47.9321H211.824C211.953 47.934 212.081 47.9571 212.203 48.0003H213.5C213.546 47.9548 213.58 47.9321 213.603 47.9321H213.842C213.887 47.8866 213.921 47.8638 213.944 47.8638H214.456V41.5853H214.251C214.206 41.6308 214.171 41.6536 214.149 41.6536H213.091C211.259 41.6618 209.454 41.2162 207.836 40.3565C206.198 39.4918 204.65 38.1948 203.194 36.4654C200.381 33.0714 198.858 28.7925 198.893 24.3843C198.893 21.789 199.166 19.5135 199.712 17.5578C200.259 15.6021 201.101 13.9644 202.238 12.6446C203.289 11.4043 204.493 10.3032 205.822 9.36787C207.03 8.52514 208.352 7.85856 209.747 7.38817C209.947 7.30571 210.153 7.23728 210.362 7.18338C210.541 7.13787 210.746 7.09236 210.976 7.04684C211.167 6.9996 211.361 6.96539 211.557 6.94445C211.751 6.92318 211.945 6.88897 212.135 6.84205C212.528 6.75338 212.927 6.69631 213.33 6.67139C213.71 6.65061 214.087 6.59346 214.456 6.50072V0.153946H213.978C213.905 0.194633 213.823 0.217984 213.739 0.222211H213.5C213.331 0.265088 213.16 0.299266 212.988 0.324609C212.841 0.346429 212.693 0.357835 212.544 0.358742C210.681 0.631423 208.858 1.13529 207.119 1.85868C205.319 2.61559 203.613 3.57767 202.034 4.72582C200.446 5.81242 199.079 7.19079 198.006 8.78761C196.929 10.4264 196.144 12.2395 195.687 14.1464C195.047 12.0948 194.103 10.1505 192.888 8.37802C191.714 6.67714 190.287 5.16602 188.655 3.89716C187.016 2.66853 185.182 1.72313 183.23 1.10018Z" fill="#B62C2C"/>
</svg>
