<svg width="36" height="36" viewBox="0 0 36 36" fill="none" xmlns="http://www.w3.org/2000/svg">
<path d="M5.5 10C5.5 11.6727 6.67339 13.0713 8.24194 13.4177C7.44857 14.9379 7 16.6665 7 18.5C7 24.5751 11.9249 29.5 18 29.5C24.0751 29.5 29 24.5751 29 18.5C29 16.6665 28.5514 14.9378 27.7581 13.4177C29.3266 13.0713 30.5 11.6727 30.5 10C30.5 8.067 28.933 6.5 27 6.5C25.3968 6.5 24.0454 7.57791 23.6309 9.04853C21.9837 8.06508 20.0578 7.5 18 7.5C15.9422 7.5 14.0163 8.06508 12.3691 9.04853C11.9546 7.57791 10.6032 6.5 9 6.5C7.067 6.5 5.5 8.067 5.5 10Z" fill="#7152E1"/>
</svg>
