<svg width="1440" height="1414" viewBox="0 0 1440 1414" fill="none" xmlns="http://www.w3.org/2000/svg">
<g opacity="0.1">
<path d="M382.5 377.959C231 314.959 332.5 195.459 211.5 113.959C140.797 66.3369 70.4137 83.4803 0 110.408V617.74C74.1898 667.595 163.934 702.541 249 716.959C367 736.959 726 732.959 665.5 575.959C605 418.959 485.897 420.956 382.5 377.959Z" fill="#9992B3"/>
<path d="M1364 1119.46C1339.1 1097.61 1269.47 1093.83 1264.5 1019.96C1257.56 916.732 1369.75 842.647 1440 817.938V1338.33C1414.83 1324.94 1370.61 1291.31 1388.5 1225.96C1400.65 1181.59 1388.5 1140.96 1364 1119.46Z" fill="#9992B3"/>
</g>
</svg>
