<svg width="36" height="36" viewBox="0 0 36 36" fill="none" xmlns="http://www.w3.org/2000/svg">
<path d="M18 21C22.4183 21 26 17.4183 26 13C26 8.58172 22.4183 5 18 5C13.5817 5 10 8.58172 10 13C10 17.4183 13.5817 21 18 21Z" fill="#7152E1"/>
<path d="M9.5 27C11.433 27 13 25.433 13 23.5C13 21.567 11.433 20 9.5 20C7.567 20 6 21.567 6 23.5C6 25.433 7.567 27 9.5 27Z" fill="#7152E1"/>
<path d="M21.5 27.5C21.5 29.433 19.933 31 18 31C16.067 31 14.5 29.433 14.5 27.5C14.5 25.567 16.067 24 18 24C19.933 24 21.5 25.567 21.5 27.5Z" fill="#7152E1"/>
<path d="M26.5 27C28.433 27 30 25.433 30 23.5C30 21.567 28.433 20 26.5 20C24.567 20 23 21.567 23 23.5C23 25.433 24.567 27 26.5 27Z" fill="#7152E1"/>
</svg>
