<svg width="64" height="64" viewBox="0 0 64 64" fill="none" xmlns="http://www.w3.org/2000/svg">
<circle cx="32" cy="32" r="32" fill="#F7CD58"/>
<path fill-rule="evenodd" clip-rule="evenodd" d="M22.3252 18.9629C21.4968 18.9629 20.8252 19.6345 20.8252 20.4629V43.537C20.8252 44.3654 21.4968 45.037 22.3252 45.037H41.6744C42.5028 45.037 43.1744 44.3654 43.1744 43.537V20.4629C43.1744 19.6345 42.5028 18.9629 41.6744 18.9629H22.3252ZM24.8896 25.0742C24.3374 25.0742 23.8896 25.5219 23.8896 26.0742C23.8896 26.6265 24.3374 27.0742 24.8896 27.0742H34.3711C34.9234 27.0742 35.3711 26.6265 35.3711 26.0742C35.3711 25.5219 34.9234 25.0742 34.3711 25.0742H24.8896ZM23.8896 32C23.8896 31.4477 24.3374 31 24.8896 31H30.8156C31.3679 31 31.8156 31.4477 31.8156 32C31.8156 32.5523 31.3679 33 30.8156 33H24.8896C24.3374 33 23.8896 32.5523 23.8896 32ZM23.8896 37.9258C23.8896 37.3735 24.3374 36.9258 24.8896 36.9258H39.1119C39.6642 36.9258 40.1119 37.3735 40.1119 37.9258C40.1119 38.4781 39.6642 38.9258 39.1119 38.9258H24.8896C24.3374 38.9258 23.8896 38.4781 23.8896 37.9258Z" fill="white"/>
</svg>
