<svg width="36" height="36" viewBox="0 0 36 36" fill="none" xmlns="http://www.w3.org/2000/svg">
<circle cx="18" cy="18" r="18" fill="#7152E1"/>
<path fill-rule="evenodd" clip-rule="evenodd" d="M16.2458 11.958C16.8567 10.3421 19.1424 10.3421 19.7534 11.958L20.7858 14.6884L23.5665 14.9336C25.1785 15.0758 25.8654 17.0562 24.6876 18.166L22.4436 20.2806L23.1127 23.3663C23.4705 25.0163 21.636 26.2616 20.2346 25.32L17.9996 23.8183L15.7645 25.32C14.3631 26.2616 12.5286 25.0163 12.8864 23.3663L13.5556 20.2806L11.3115 18.166C10.1337 17.0562 10.8206 15.0758 12.4326 14.9336L15.2133 14.6884L16.2458 11.958ZM17.9996 13.6814L17.2346 15.7044C16.9801 16.3777 16.3625 16.8458 15.6455 16.909L13.4627 17.1015L15.2528 18.7883C15.7313 19.2392 15.9387 19.9078 15.7994 20.5503L15.2827 22.9331L16.9539 21.8102C17.5863 21.3853 18.4129 21.3853 19.0452 21.8102L20.7165 22.9331L20.1998 20.5503C20.0604 19.9078 20.2678 19.2392 20.7463 18.7883L22.5364 17.1015L20.3536 16.909C19.6366 16.8458 19.0191 16.3777 18.7645 15.7044L17.9996 13.6814Z" fill="white"/>
</svg>
