<svg width="36" height="36" viewBox="0 0 36 36" fill="none" xmlns="http://www.w3.org/2000/svg">
<circle cx="18" cy="18" r="18" fill="#7152E1"/>
<path d="M13.5 16.04C12.8787 16.04 12.375 16.5437 12.375 17.165C12.375 17.7864 12.8787 18.29 13.5 18.29H18.75C19.3713 18.29 19.875 17.7864 19.875 17.165C19.875 16.5437 19.3713 16.04 18.75 16.04H13.5Z" fill="white"/>
<path d="M13.5 19.79C12.8787 19.79 12.375 20.2937 12.375 20.915C12.375 21.5364 12.8787 22.04 13.5 22.04H22.5C23.1213 22.04 23.625 21.5364 23.625 20.915C23.625 20.2937 23.1213 19.79 22.5 19.79H13.5Z" fill="white"/>
<path fill-rule="evenodd" clip-rule="evenodd" d="M15.375 11.165C15.375 10.5437 14.8713 10.04 14.25 10.04C13.6287 10.04 13.125 10.5437 13.125 11.165V11.54H11.25C9.80025 11.54 8.625 12.7153 8.625 14.165V23.165C8.625 24.6148 9.80025 25.79 11.25 25.79H24.75C26.1997 25.79 27.375 24.6148 27.375 23.165V14.165C27.375 12.7153 26.1997 11.54 24.75 11.54H22.875V11.165C22.875 10.5437 22.3713 10.04 21.75 10.04C21.1287 10.04 20.625 10.5437 20.625 11.165V11.54H15.375V11.165ZM13.189 13.79C13.3435 14.227 13.7602 14.54 14.25 14.54C14.7398 14.54 15.1565 14.227 15.311 13.79H20.689C20.8435 14.227 21.2602 14.54 21.75 14.54C22.2398 14.54 22.6565 14.227 22.811 13.79H24.75C24.9571 13.79 25.125 13.9579 25.125 14.165V23.165C25.125 23.3721 24.9571 23.54 24.75 23.54H11.25C11.0429 23.54 10.875 23.3721 10.875 23.165V14.165C10.875 13.9579 11.0429 13.79 11.25 13.79H13.189Z" fill="white"/>
</svg>
