<svg width="64" height="64" viewBox="0 0 64 64" fill="none" xmlns="http://www.w3.org/2000/svg">
<circle cx="32" cy="32" r="32" fill="#7152E1"/>
<path d="M47.6211 41.6975C47.6211 41.6975 44.5379 42.3147 41.4121 42.9582C39.3299 45.2787 37.254 47.5942 37.254 47.5942L32.7873 39.9703C32.5339 39.9854 32.2843 40.008 32.0271 40.008C31.7675 40.008 31.5179 39.9866 31.2645 39.9703L26.7978 47.5942C26.7978 47.5942 24.7219 45.2774 22.6397 42.9582C19.5138 42.3159 16.4307 41.6975 16.4307 41.6975L21.29 33.4064C20.5085 31.8372 20.0582 30.0823 20.0582 28.2171C20.0582 21.7021 25.4143 16.4238 32.0284 16.4238C38.6388 16.4238 43.9948 21.7034 43.9948 28.2171C43.9948 30.0836 43.5433 31.8372 42.7618 33.4064L47.6211 41.6975ZM37.486 44.057C37.486 44.057 38.9812 42.6396 40.3898 41.2711C42.3817 40.7054 44.3962 40.1284 44.3962 40.1284L41.5727 35.3092C39.9445 37.434 37.6065 38.9919 34.9034 39.653L37.486 44.057ZM19.6568 40.1284C19.6568 40.1284 21.6713 40.7054 23.6632 41.2711C25.0718 42.6396 26.567 44.057 26.567 44.057L29.1497 39.6517C26.4466 38.9907 24.1085 37.434 22.4804 35.3079L19.6568 40.1284ZM32.0271 18.3605C26.6523 18.3605 22.2935 22.7256 22.2935 28.1093C22.2935 33.4967 26.6523 37.8605 32.0271 37.8605C37.3995 37.8605 41.7571 33.4954 41.7571 28.1093C41.7583 22.7244 37.3995 18.3605 32.0271 18.3605ZM32.0271 34.9316C28.2591 34.9316 25.2073 31.8773 25.2073 28.1118C25.2073 24.3462 28.2591 21.2944 32.0271 21.2944C35.7927 21.2944 38.8445 24.3462 38.8445 28.1118C38.8445 31.8773 35.7927 34.9316 32.0271 34.9316Z" fill="white"/>
</svg>
