<svg width="64" height="64" viewBox="0 0 64 64" fill="none" xmlns="http://www.w3.org/2000/svg">
<circle cx="32" cy="32" r="32" fill="#61A3F1"/>
<path d="M17.1855 22.5188C17.1855 24.5012 18.5762 26.1588 20.4353 26.5693C19.495 28.371 18.9633 30.4198 18.9633 32.5928C18.9633 39.793 24.8002 45.6299 32.0004 45.6299C39.2005 45.6299 45.0374 39.793 45.0374 32.5928C45.0374 30.4198 44.5058 28.371 43.5655 26.5693C45.4245 26.1588 46.8152 24.5012 46.8152 22.5188C46.8152 20.2278 44.958 18.3706 42.667 18.3706C40.7669 18.3706 39.1652 19.6481 38.674 21.3911C36.7218 20.2255 34.4393 19.5558 32.0004 19.5558C29.5614 19.5558 27.2789 20.2255 25.3267 21.3911C24.8355 19.6481 23.2338 18.3706 21.3337 18.3706C19.0427 18.3706 17.1855 20.2278 17.1855 22.5188Z" fill="white"/>
</svg>
