<svg width="36" height="36" viewBox="0 0 36 36" fill="none" xmlns="http://www.w3.org/2000/svg">
<circle cx="18" cy="18" r="18" fill="#7152E1"/>
<path d="M13.3052 25.5442C13.27 25.8416 13.5023 26.103 13.8017 26.103H14.9388C15.1913 26.103 15.4042 25.9147 15.4351 25.6641L15.8729 22.1109C15.9038 21.8603 16.1167 21.672 16.3692 21.672H17.7373C18.0367 21.672 18.269 21.9334 18.2338 22.2308L17.8412 25.5442C17.806 25.8416 18.0383 26.103 18.3377 26.103H19.4937C19.7471 26.103 19.9605 25.9135 19.9903 25.6618L20.4107 22.1132C20.4405 21.8615 20.6539 21.672 20.9073 21.672H22.252C22.5281 21.672 22.752 21.4481 22.752 21.172V19.799C22.752 19.5229 22.5281 19.299 22.252 19.299H21.3065C21.0043 19.299 20.7712 19.033 20.8108 18.7335L21.0146 17.1925C21.0474 16.9438 21.2594 16.758 21.5102 16.758H22.735C23.0111 16.758 23.235 16.5341 23.235 16.258V14.885C23.235 14.6089 23.0111 14.385 22.735 14.385H21.926C21.6275 14.385 21.3955 14.1252 21.4292 13.8286L21.7438 11.0564C21.7775 10.7598 21.5455 10.5 21.247 10.5H20.1277C19.8754 10.5 19.6626 10.688 19.6315 10.9383L19.2575 13.9467C19.2264 14.197 19.0136 14.385 18.7613 14.385H17.372C17.0724 14.385 16.8401 14.1234 16.8755 13.826L17.2045 11.059C17.2399 10.7616 17.0076 10.5 16.708 10.5H15.5917C15.3394 10.5 15.1266 10.688 15.0955 10.9383L14.7215 13.9467C14.6904 14.197 14.4776 14.385 14.2253 14.385H12.983C12.7069 14.385 12.483 14.6089 12.483 14.885V16.258C12.483 16.5341 12.7069 16.758 12.983 16.758H13.7698C14.0687 16.758 14.3009 17.0185 14.2665 17.3155L14.0882 18.8565C14.059 19.1087 13.8454 19.299 13.5915 19.299H12.5C12.2239 19.299 12 19.5229 12 19.799V21.172C12 21.4481 12.2239 21.672 12.5 21.672H13.2013C13.5007 21.672 13.733 21.9334 13.6978 22.2308L13.3052 25.5442ZM16.7448 19.299C16.4443 19.299 16.2116 19.0357 16.2486 18.7375L16.4396 17.1965C16.4707 16.946 16.6835 16.758 16.9358 16.758H18.3222C18.6227 16.758 18.8554 17.0213 18.8184 17.3195L18.6274 18.8605C18.5963 19.111 18.3835 19.299 18.1312 19.299H16.7448Z" fill="white"/>
</svg>
