<svg width="36" height="36" viewBox="0 0 36 36" fill="none" xmlns="http://www.w3.org/2000/svg">
<circle cx="18" cy="18" r="18" fill="#7152E1"/>
<path fill-rule="evenodd" clip-rule="evenodd" d="M18 12.2505C19.9438 10.3719 22.9996 10.4176 24.8892 12.3876L25.1041 12.6116L24.2922 13.3904L25.1041 12.6116C27.132 14.7258 27.132 18.1349 25.1041 20.2491L19.68 25.9039C18.7578 26.8654 17.2422 26.8654 16.32 25.9039L10.8959 20.2491C8.86803 18.1349 8.86803 14.7258 10.8959 12.6116L11.1108 12.3876L11.9227 13.1664L11.1108 12.3876C13.0004 10.4176 16.0562 10.3719 18 12.2505ZM23.2655 13.9452C22.2165 12.8516 20.5361 12.8516 19.4871 13.9452C18.6714 14.7956 17.3286 14.7956 16.5129 13.9452C15.4639 12.8516 13.7835 12.8516 12.7345 13.9452L12.5197 14.1692C11.3268 15.4128 11.3268 17.4479 12.5197 18.6915L17.9437 24.3463C17.9575 24.3607 17.9687 24.367 17.9761 24.3701C17.9841 24.3735 17.9921 24.375 18 24.375C18.0079 24.375 18.0159 24.3735 18.0239 24.3701C18.0313 24.367 18.0425 24.3607 18.0563 24.3463L23.4803 18.6915C24.6732 17.4479 24.6732 15.4128 23.4803 14.1692L23.2655 13.9452Z" fill="white"/>
</svg>
