<svg width="200" height="56" viewBox="0 0 200 56" fill="none" xmlns="http://www.w3.org/2000/svg">
<rect width="200" height="56" rx="28" fill="#F7CD58"/>
<g filter="url(#filter0_d_1644_5452)">
<path d="M62.6289 36.9219H80.8672L81.0723 34.0508H65.4727L67.4004 19.9141H63.4219V16.4141H88.6602V19.9141H71.4746L71.0645 22.7031H85.9531L84.9414 36.9219H89.4258V40.4219H62.6289V36.9219ZM81.6602 26.1484H70.5723L69.9297 30.6055H81.332L81.6602 26.1484Z" fill="white"/>
<path d="M103.312 16.1133H117.148V19.7227H103.312V16.1133ZM92.6484 38.5078L91.8828 34.8438C93.0039 34.6341 94.0703 34.4199 95.082 34.2012V27.8984H92.6484V24.6445H95.082V19.4766H92.375V16.168H101.398V19.4766H98.6367V24.6445H101.207V27.8984H98.6367V33.3945C99.7214 33.1302 100.724 32.8659 101.645 32.6016C101.572 33.8958 101.562 35.0625 101.617 36.1016C98.8828 36.776 95.8932 37.5781 92.6484 38.5078ZM101.945 23.7695H118.516V27.3789H114.113V36.293C114.113 37.1315 114.414 37.5508 115.016 37.5508C115.344 37.5508 115.59 37.4049 115.754 37.1133C115.927 36.8216 116.082 35.3268 116.219 32.6289C117.44 33.1029 118.388 33.431 119.062 33.6133C118.743 37.2409 118.26 39.3874 117.613 40.0527C116.966 40.7181 116.182 41.0508 115.262 41.0508H113.771C111.63 41.0508 110.559 39.875 110.559 37.5234V27.3789H108.166C108.303 34.4062 106.129 39.2188 101.645 41.8164C100.861 40.668 100.004 39.6289 99.0742 38.6992C102.911 36.612 104.785 32.8385 104.693 27.3789H101.945V23.7695Z" fill="white"/>
<path d="M148.344 35.6641H142.109C143.841 36.9766 146.029 37.8333 148.672 38.2344C148.107 39.2552 147.505 40.431 146.867 41.7617C143.531 40.7773 140.988 39.0365 139.238 36.5391C137.853 38.9818 135.283 40.7773 131.527 41.9258C130.944 40.7956 130.242 39.7201 129.422 38.6992C132.594 38.043 134.772 37.0312 135.957 35.6641H130.133V33.0117H137.27C137.379 32.5924 137.452 32.1276 137.488 31.6172H131.609V28.6641L129.504 30.7422C129.085 30.1042 128.638 29.4479 128.164 28.7734V41.6797H124.773V30.1133C124.062 32.0456 123.206 33.8776 122.203 35.6094C122.021 34.3516 121.729 32.6836 121.328 30.6055C122.641 28.3815 123.68 25.9935 124.445 23.4414H121.602V20.2148H124.773V14.8555H128.164V20.2148H130.707V23.4414H128.164V25C129.458 26.2031 130.607 27.3151 131.609 28.3359V21.8008H147.359V31.6172H140.934C140.897 32.1094 140.842 32.5742 140.77 33.0117H148.344V35.6641ZM143.969 29.2109V27.707H135V29.2109H143.969ZM143.969 24.2344H135V25.6836H143.969V24.2344ZM144.68 21.1445H141.453V19.6133H137.27V21.1445H134.043V19.6133H130.516V16.9062H134.043V14.8555H137.27V16.9062H141.453V14.8555H144.68V16.9062H148.453V19.6133H144.68V21.1445Z" fill="white"/>
<path d="M150.938 19.5312H165.156L164.855 14.7188H168.957C169.003 16.332 169.071 17.9362 169.162 19.5312H172.922C172.138 18.5104 171.363 17.5898 170.598 16.7695L173.031 14.9375C174.107 16.0495 175.146 17.207 176.148 18.4102L174.699 19.5312H177.488V23.1406H169.408C169.818 29.0742 170.365 32.9707 171.049 34.8301C171.742 36.6803 172.393 37.6055 173.004 37.6055C173.168 37.6055 173.318 37.5098 173.455 37.3184C173.592 37.127 173.751 36.5846 173.934 35.6914C174.125 34.7891 174.307 33.5951 174.48 32.1094C175.738 32.9115 176.932 33.5495 178.062 34.0234C177.57 37.4414 176.969 39.5833 176.258 40.4492C175.547 41.3242 174.471 41.7617 173.031 41.7617C170.461 41.7617 168.661 40.3216 167.631 37.4414C166.601 34.5612 165.863 29.7943 165.416 23.1406H150.938V19.5312ZM152.141 26.1211H164.5V29.7031H160.398V35.0215L165.812 34.2148C165.758 36.0013 165.74 37.3138 165.758 38.1523L151.375 40.2578L150.91 36.1836L156.488 35.5273V29.7031H152.141V26.1211Z" fill="white"/>
</g>
<g filter="url(#filter1_d_1644_5452)">
<path d="M46.3737 41.9985C41.4404 41.9985 41.2509 37.3442 37.7435 35.1687C36.417 34.4756 33.4766 34.1788 31.0116 34.0777C28.5481 34.1788 25.6092 34.4756 24.2827 35.1687C20.7738 37.3442 20.5843 41.9985 15.6526 41.9985C12.1452 41.9985 11.5767 37.0474 12.2431 31.108C13.3801 20.0171 15.5562 12 22.4777 12C25.9851 12 27.6937 13.3025 30.9136 13.6009C34.0451 13.3025 35.8485 12 39.3559 12C46.2774 12 48.4566 20.0171 49.6915 31.2091C50.2584 37.1485 49.7863 42.0995 46.3737 41.9985ZM27.5516 20.6249C27.0978 19.8285 26.4415 19.1662 25.6492 18.7051C24.8568 18.244 23.9567 18.0006 23.0399 17.9994C20.1627 17.9994 17.8302 20.3502 17.8302 23.2504C17.8302 26.1491 20.1627 28.4999 23.0399 28.4999C23.9567 28.4987 24.8568 28.2552 25.6492 27.7941C26.4415 27.333 27.0978 26.6707 27.5516 25.8744C28.0095 25.0754 28.2505 24.1705 28.2505 23.2496C28.2505 22.3288 28.0095 21.4239 27.5516 20.6249ZM43.3575 21.8185H41.0756V19.9444C41.0756 19.5572 40.9226 19.1857 40.6499 18.9107C40.3772 18.6357 40.0069 18.4795 39.6196 18.4762H39.5564C39.3647 18.4763 39.1749 18.5143 38.9979 18.588C38.821 18.6617 38.6603 18.7696 38.5252 18.9056C38.2511 19.1819 38.0972 19.5553 38.0973 19.9444V21.8185H35.8628C35.6844 21.8191 35.5079 21.8548 35.3434 21.9236C35.1789 21.9924 35.0295 22.093 34.9038 22.2195C34.7782 22.346 34.6786 22.496 34.611 22.661C34.5433 22.826 34.5088 23.0026 34.5094 23.181C34.5086 23.3594 34.5429 23.5362 34.6105 23.7014C34.6781 23.8665 34.7776 24.0168 34.9033 24.1434C35.029 24.2701 35.1784 24.3708 35.343 24.4397C35.5077 24.5086 35.6843 24.5444 35.8628 24.545H38.0973V26.5548C38.0973 27.3647 38.7495 28.0231 39.5564 28.0231H39.6196C39.8111 28.0229 40.0006 27.9848 40.1773 27.9111C40.354 27.8374 40.5144 27.7295 40.6492 27.5937C40.9227 27.317 41.0759 26.9437 41.0756 26.5548V24.545H43.3575C43.536 24.5444 43.7126 24.5086 43.8772 24.4397C44.0418 24.3708 44.1913 24.2701 44.317 24.1434C44.4427 24.0168 44.5421 23.8665 44.6097 23.7014C44.6773 23.5362 44.7117 23.3594 44.7108 23.181C44.7115 23.0026 44.6769 22.826 44.6093 22.661C44.5416 22.496 44.4421 22.346 44.3164 22.2195C44.1907 22.093 44.0414 21.9924 43.8768 21.9236C43.7123 21.8548 43.5358 21.8191 43.3575 21.8185ZM23.0399 25.7733C22.3734 25.7704 21.7354 25.503 21.266 25.0299C20.7967 24.5568 20.5344 23.9167 20.5369 23.2504C20.5369 21.8564 21.6581 20.7275 23.0399 20.7275C23.9337 20.7275 24.7612 21.2075 25.2081 21.989C25.4278 22.3731 25.5433 22.8079 25.5433 23.2504C25.5433 23.6929 25.4278 24.1277 25.2081 24.5119C24.9898 24.8944 24.6743 25.2125 24.2936 25.434C23.9129 25.6555 23.4804 25.7725 23.0399 25.7733Z" fill="white" fill-opacity="0.75"/>
</g>
<g filter="url(#filter2_d_1644_5452)">
<path d="M44.655 40.4196C39.9684 40.4196 39.7883 36.0103 36.4564 33.9493C35.1962 33.2926 32.4028 33.0115 30.061 32.9157C27.7206 33.0115 24.9288 33.2926 23.6686 33.9493C20.3351 36.0103 20.1551 40.4196 15.4699 40.4196C12.138 40.4196 11.5979 35.7291 12.231 30.1023C13.3111 19.5951 15.3784 12 21.9538 12C25.2858 12 26.909 13.2339 29.968 13.5166C32.9429 13.2339 34.6561 12 37.9881 12C44.5635 12 46.6338 19.5951 47.807 30.1981C48.3455 35.8249 47.897 40.5153 44.655 40.4196ZM26.774 20.171C26.3429 19.4165 25.7194 18.789 24.9667 18.3522C24.214 17.9154 23.3589 17.6848 22.4879 17.6836C19.7545 17.6836 17.5387 19.9107 17.5387 22.6583C17.5387 25.4044 19.7545 27.6315 22.4879 27.6315C23.3589 27.6303 24.214 27.3997 24.9667 26.9629C25.7194 26.526 26.3429 25.8986 26.774 25.1441C27.209 24.3872 27.4379 23.5299 27.4379 22.6575C27.4379 21.7851 27.209 20.9279 26.774 20.171ZM41.7896 21.3017H39.6218V19.5263C39.6218 19.1595 39.4765 18.8075 39.2174 18.5469C38.9584 18.2864 38.6066 18.1385 38.2386 18.1353H38.1786C37.9965 18.1354 37.8162 18.1714 37.6481 18.2412C37.4799 18.311 37.3273 18.4133 37.199 18.5422C36.9385 18.8039 36.7924 19.1576 36.7924 19.5263V21.3017H34.6696C34.5002 21.3023 34.3325 21.3361 34.1762 21.4013C34.0199 21.4665 33.878 21.5618 33.7586 21.6816C33.6393 21.8015 33.5447 21.9436 33.4804 22.0999C33.4161 22.2562 33.3833 22.4236 33.3839 22.5925C33.3832 22.7615 33.4158 22.9291 33.48 23.0855C33.5442 23.242 33.6387 23.3843 33.7581 23.5043C33.8775 23.6243 34.0195 23.7197 34.1759 23.785C34.3323 23.8503 34.5001 23.8842 34.6696 23.8848H36.7924V25.7888C36.7924 26.5561 37.412 27.1798 38.1786 27.1798H38.2386C38.4205 27.1795 38.6006 27.1435 38.7684 27.0737C38.9363 27.0039 39.0886 26.9017 39.2168 26.7729C39.4765 26.5109 39.6221 26.1572 39.6218 25.7888V23.8848H41.7896C41.9592 23.8842 42.1269 23.8503 42.2833 23.785C42.4398 23.7197 42.5817 23.6243 42.7011 23.5043C42.8205 23.3843 42.915 23.242 42.9792 23.0855C43.0434 22.9291 43.0761 22.7615 43.0753 22.5925C43.0759 22.4236 43.0431 22.2562 42.9788 22.0999C42.9145 21.9436 42.82 21.8015 42.7006 21.6816C42.5812 21.5618 42.4393 21.4665 42.283 21.4013C42.1267 21.3361 41.959 21.3023 41.7896 21.3017ZM22.4879 25.0484C21.8548 25.0456 21.2486 24.7923 20.8027 24.3441C20.3568 23.8959 20.1077 23.2896 20.1101 22.6583C20.1101 21.3376 21.1752 20.2682 22.4879 20.2682C23.337 20.2682 24.1231 20.7229 24.5477 21.4632C24.7564 21.8272 24.8661 22.2391 24.8661 22.6583C24.8661 23.0775 24.7564 23.4894 24.5477 23.8533C24.3403 24.2157 24.0406 24.5171 23.6789 24.7269C23.3172 24.9368 22.9064 25.0477 22.4879 25.0484Z" fill="white"/>
</g>
<path d="M26.7744 20.1695C26.3433 19.415 25.7198 18.7875 24.967 18.3507C24.2143 17.9139 23.3592 17.6833 22.4883 17.6821C19.7549 17.6821 17.5391 19.9092 17.5391 22.6568C17.5391 25.4029 19.7549 27.63 22.4883 27.63C23.3592 27.6288 24.2143 27.3982 24.967 26.9614C25.7198 26.5245 26.3433 25.8971 26.7744 25.1426C27.2094 24.3857 27.4383 23.5285 27.4383 22.656C27.4383 21.7836 27.2094 20.9264 26.7744 20.1695ZM41.7899 21.3002H39.6221V19.5248C39.6222 19.158 39.4768 18.806 39.2178 18.5454C38.9587 18.2849 38.6069 18.137 38.239 18.1338H38.1789C37.9968 18.1339 37.8165 18.1699 37.6484 18.2397C37.4803 18.3096 37.3276 18.4118 37.1993 18.5407C36.9388 18.8024 36.7927 19.1561 36.7928 19.5248V21.3002H34.67C34.5005 21.3008 34.3329 21.3346 34.1766 21.3998C34.0203 21.465 33.8784 21.5603 33.759 21.6801C33.6396 21.8 33.5451 21.9421 33.4808 22.0984C33.4165 22.2547 33.3837 22.4221 33.3843 22.591C33.3835 22.76 33.4161 22.9276 33.4803 23.084C33.5445 23.2405 33.639 23.3828 33.7584 23.5028C33.8779 23.6228 34.0198 23.7182 34.1762 23.7835C34.3326 23.8488 34.5004 23.8827 34.67 23.8833H36.7928V25.7873C36.7928 26.5546 37.4123 27.1783 38.1789 27.1783H38.239C38.4208 27.1781 38.6009 27.142 38.7688 27.0722C38.9366 27.0024 39.089 26.9002 39.2171 26.7714C39.4769 26.5094 39.6224 26.1557 39.6221 25.7873V23.8833H41.7899C41.9595 23.8827 42.1273 23.8488 42.2837 23.7835C42.4401 23.7182 42.5821 23.6228 42.7015 23.5028C42.8209 23.3828 42.9154 23.2405 42.9796 23.084C43.0438 22.9276 43.0764 22.76 43.0756 22.591C43.0762 22.4221 43.0434 22.2547 42.9791 22.0984C42.9149 21.9421 42.8203 21.8 42.7009 21.6801C42.5815 21.5603 42.4396 21.465 42.2833 21.3998C42.127 21.3346 41.9594 21.3008 41.7899 21.3002ZM22.4883 25.0469C21.8551 25.0441 21.2489 24.7908 20.803 24.3426C20.3572 23.8944 20.108 23.2881 20.1104 22.6568C20.1104 21.3361 21.1756 20.2667 22.4883 20.2667C23.3374 20.2667 24.1235 20.7214 24.548 21.4617C24.7567 21.8257 24.8665 22.2376 24.8665 22.6568C24.8665 23.076 24.7567 23.4879 24.548 23.8519C24.3407 24.2142 24.041 24.5156 23.6793 24.7254C23.3176 24.9353 22.9067 25.0462 22.4883 25.0469Z" fill="white"/>
<path d="M26.7744 20.1695C26.3433 19.415 25.7198 18.7875 24.967 18.3507C24.2143 17.9139 23.3592 17.6833 22.4883 17.6821C19.7549 17.6821 17.5391 19.9092 17.5391 22.6568C17.5391 25.4029 19.7549 27.63 22.4883 27.63C23.3592 27.6288 24.2143 27.3982 24.967 26.9614C25.7198 26.5245 26.3433 25.8971 26.7744 25.1426C27.2094 24.3857 27.4383 23.5285 27.4383 22.656C27.4383 21.7836 27.2094 20.9264 26.7744 20.1695ZM41.7899 21.3002H39.6221V19.5248C39.6222 19.158 39.4768 18.806 39.2178 18.5454C38.9587 18.2849 38.6069 18.137 38.239 18.1338H38.1789C37.9968 18.1339 37.8165 18.1699 37.6484 18.2397C37.4803 18.3096 37.3276 18.4118 37.1993 18.5407C36.9388 18.8024 36.7927 19.1561 36.7928 19.5248V21.3002H34.67C34.5005 21.3008 34.3329 21.3346 34.1766 21.3998C34.0203 21.465 33.8784 21.5603 33.759 21.6801C33.6396 21.8 33.5451 21.9421 33.4808 22.0984C33.4165 22.2547 33.3837 22.4221 33.3843 22.591C33.3835 22.76 33.4161 22.9276 33.4803 23.084C33.5445 23.2405 33.639 23.3828 33.7584 23.5028C33.8779 23.6228 34.0198 23.7182 34.1762 23.7835C34.3326 23.8488 34.5004 23.8827 34.67 23.8833H36.7928V25.7873C36.7928 26.5546 37.4123 27.1783 38.1789 27.1783H38.239C38.4208 27.1781 38.6009 27.142 38.7688 27.0722C38.9366 27.0024 39.089 26.9002 39.2171 26.7714C39.4769 26.5094 39.6224 26.1557 39.6221 25.7873V23.8833H41.7899C41.9595 23.8827 42.1273 23.8488 42.2837 23.7835C42.4401 23.7182 42.5821 23.6228 42.7015 23.5028C42.8209 23.3828 42.9154 23.2405 42.9796 23.084C43.0438 22.9276 43.0764 22.76 43.0756 22.591C43.0762 22.4221 43.0434 22.2547 42.9791 22.0984C42.9149 21.9421 42.8203 21.8 42.7009 21.6801C42.5815 21.5603 42.4396 21.465 42.2833 21.3998C42.127 21.3346 41.9594 21.3008 41.7899 21.3002ZM22.4883 25.0469C21.8551 25.0441 21.2489 24.7908 20.803 24.3426C20.3572 23.8944 20.108 23.2881 20.1104 22.6568C20.1104 21.3361 21.1756 20.2667 22.4883 20.2667C23.3374 20.2667 24.1235 20.7214 24.548 21.4617C24.7567 21.8257 24.8665 22.2376 24.8665 22.6568C24.8665 23.076 24.7567 23.4879 24.548 23.8519C24.3407 24.2142 24.041 24.5156 23.6793 24.7254C23.3176 24.9353 22.9067 25.0462 22.4883 25.0469Z" fill="#F7CD58"/>
<defs>
<filter id="filter0_d_1644_5452" x="60.6289" y="13.7188" width="119.434" height="31.207" filterUnits="userSpaceOnUse" color-interpolation-filters="sRGB">
<feFlood flood-opacity="0" result="BackgroundImageFix"/>
<feColorMatrix in="SourceAlpha" type="matrix" values="0 0 0 0 0 0 0 0 0 0 0 0 0 0 0 0 0 0 127 0" result="hardAlpha"/>
<feOffset dy="1"/>
<feGaussianBlur stdDeviation="1"/>
<feColorMatrix type="matrix" values="0 0 0 0 0.952941 0 0 0 0 0.694118 0 0 0 0 0.286275 0 0 0 1 0"/>
<feBlend mode="normal" in2="BackgroundImageFix" result="effect1_dropShadow_1644_5452"/>
<feBlend mode="normal" in="SourceGraphic" in2="effect1_dropShadow_1644_5452" result="shape"/>
</filter>
<filter id="filter1_d_1644_5452" x="4" y="4" width="53.8945" height="46" filterUnits="userSpaceOnUse" color-interpolation-filters="sRGB">
<feFlood flood-opacity="0" result="BackgroundImageFix"/>
<feColorMatrix in="SourceAlpha" type="matrix" values="0 0 0 0 0 0 0 0 0 0 0 0 0 0 0 0 0 0 127 0" result="hardAlpha"/>
<feOffset/>
<feGaussianBlur stdDeviation="4"/>
<feColorMatrix type="matrix" values="0 0 0 0 0.908333 0 0 0 0 0.5995 0 0 0 0 0 0 0 0 0.6 0"/>
<feBlend mode="normal" in2="BackgroundImageFix" result="effect1_dropShadow_1644_5452"/>
<feBlend mode="normal" in="SourceGraphic" in2="effect1_dropShadow_1644_5452" result="shape"/>
</filter>
<filter id="filter2_d_1644_5452" x="4" y="4" width="52" height="44.4209" filterUnits="userSpaceOnUse" color-interpolation-filters="sRGB">
<feFlood flood-opacity="0" result="BackgroundImageFix"/>
<feColorMatrix in="SourceAlpha" type="matrix" values="0 0 0 0 0 0 0 0 0 0 0 0 0 0 0 0 0 0 127 0" result="hardAlpha"/>
<feOffset/>
<feGaussianBlur stdDeviation="4"/>
<feColorMatrix type="matrix" values="0 0 0 0 0.908333 0 0 0 0 0.5995 0 0 0 0 0 0 0 0 1 0"/>
<feBlend mode="normal" in2="BackgroundImageFix" result="effect1_dropShadow_1644_5452"/>
<feBlend mode="normal" in="SourceGraphic" in2="effect1_dropShadow_1644_5452" result="shape"/>
</filter>
</defs>
</svg>
