<svg width="170" height="56" viewBox="0 0 170 56" fill="none" xmlns="http://www.w3.org/2000/svg">
<rect width="170" height="56" rx="28" fill="#7152E1"/>
<g filter="url(#filter0_d_1665_5935)">
<path d="M76.4375 20.1562H72.6914C73.1927 20.3841 74.168 20.8125 75.6172 21.4414C75.3164 21.9062 74.8516 22.6081 74.2227 23.5469H77.0391V26.6094H71.7344V28.3867H76.5469V31.4492H71.7344V38.0391C71.7344 38.8867 71.5521 39.5566 71.1875 40.0488C70.832 40.541 70.3307 40.8509 69.6836 40.9785C69.0456 41.1152 67.8607 41.1836 66.1289 41.1836C66.0469 40.099 65.8646 39.0736 65.582 38.1074L65.0078 39.3242C64.2969 38.8867 63.3216 38.431 62.082 37.957C62.9935 36.2435 63.7865 34.2383 64.4609 31.9414L67.5234 32.8711C67.0312 34.5208 66.4479 36.1159 65.7734 37.6562C66.2201 37.6927 66.6667 37.7109 67.1133 37.7109C67.806 37.7109 68.1615 37.3008 68.1797 36.4805V31.4492H63.0391V28.3867H68.1797V26.6094H62.6016V23.5469H65.541C65.1582 22.7995 64.7617 22.0885 64.3516 21.4141L67.332 20.2109C68.0612 21.4232 68.6719 22.5352 69.1641 23.5469H70.3672C71.2695 22.0247 71.8893 20.8945 72.2266 20.1562H63.0938V17.0938H67.9609C67.7148 16.4284 67.4779 15.8268 67.25 15.2891L71.0234 14.6055C71.2878 15.3164 71.5612 16.1458 71.8438 17.0938H76.4375V20.1562ZM89.5625 27.1289H87.4844V41.3477H83.875V27.1289H81.4688V28.6875C81.4688 34.457 80.2201 38.8594 77.7227 41.8945C76.4831 40.819 75.3346 39.9076 74.2773 39.1602C75.3164 38.2396 76.1276 37.0957 76.7109 35.7285L73.9219 37.3008C73.2839 35.8607 72.5911 34.5117 71.8438 33.2539L74.4688 31.9414C75.1159 32.8164 75.8678 34.0697 76.7246 35.7012C77.4811 33.9238 77.8594 31.7682 77.8594 29.2344V16.9297C82.0156 16.5104 85.3971 15.8451 88.0039 14.9336L89.5625 18.5156C87.1016 19.1719 84.4036 19.6367 81.4688 19.9102V23.5469H89.5625V27.1289Z" fill="white"/>
<path d="M119.145 37.3828H111.953V41.6758H108.398V37.3828H101.672V33.8281H108.398V31.7773H102.273V18.5703H105.555C104.971 17.6771 104.415 16.9115 103.887 16.2734L106.676 14.5508C107.605 15.5352 108.48 16.5924 109.301 17.7227L107.906 18.5703H111.365C112.368 17.1758 113.266 15.8268 114.059 14.5234L117.312 16.082C116.684 16.9206 116.027 17.75 115.344 18.5703H118.105V31.7773H111.953V33.8281H119.145V37.3828ZM114.715 21.4688H111.953V23.8203H114.715V21.4688ZM105.664 23.8203H108.398V21.4688H105.664V23.8203ZM111.953 28.8789H114.715V26.5H111.953V28.8789ZM105.664 28.8789H108.398V26.5H105.664V28.8789ZM92.0742 16H100.605V25.5156H96.0664L95.7109 28.6875H100.523L100.441 32.543C100.35 36.2799 100.25 38.3398 100.141 38.7227C100.04 39.1146 99.7897 39.5931 99.3887 40.1582C98.9967 40.7324 98.2402 41.0833 97.1191 41.2109C95.998 41.3385 94.5534 41.4023 92.7852 41.4023C92.6758 40.3268 92.457 39.1055 92.1289 37.7383C93.2227 37.8112 94.2526 37.8477 95.2188 37.8477C95.7292 37.8477 96.1257 37.7337 96.4082 37.5059C96.6908 37.2689 96.8548 36.9134 96.9004 36.4395C96.9551 35.9564 97.0234 34.375 97.1055 31.6953H92.1562L92.8945 22.5078H97.2969V19.0352H92.0742V16Z" fill="white"/>
<path d="M122.203 16.2734H129.039V14.9336H132.703V16.2734H137.352V14.9336H141.016V16.2734H148.016V18.8984H141.016V19.8828H137.352V18.8984H132.703V19.8828H129.039V18.8984H122.203V16.2734ZM122.203 29.6172H129.695C130.005 29.2617 130.297 28.888 130.57 28.4961H124.582V20.4297H145.418V28.4961H134.248C133.975 28.8789 133.701 29.2526 133.428 29.6172H147.77V32.2422H142.506C144.566 33.7279 146.585 34.6393 148.562 34.9766C148.089 35.8151 147.578 36.8268 147.031 38.0117C146.029 37.6016 145.053 37.1048 144.105 36.5215V38.0117C144.105 38.7409 143.9 39.306 143.49 39.707C143.089 40.1172 142.456 40.3268 141.59 40.3359C140.733 40.3451 139.703 40.3359 138.5 40.3086C138.281 38.9596 138.117 38.0208 138.008 37.4922C138.783 37.6016 139.366 37.6562 139.758 37.6562C140.396 37.6562 140.724 37.4557 140.742 37.0547V36.4531H136.859V41.7031H133.195V36.4531H129.312V40.2812H125.922V36.4668C125.12 36.959 124.29 37.401 123.434 37.793C122.814 36.4987 122.276 35.5599 121.82 34.9766C123.725 34.2201 125.402 33.3086 126.852 32.2422H122.203V29.6172ZM141.754 22.5352H128.246V23.6289H141.754V22.5352ZM128.246 26.3906H141.754V25.2969H128.246V26.3906ZM138.951 32.2422H136.859V33.9375H140.688C140.095 33.4089 139.516 32.8438 138.951 32.2422ZM129.381 33.9375H133.195V32.2422H131.172C130.598 32.8438 130.001 33.4089 129.381 33.9375Z" fill="white"/>
</g>
<g filter="url(#filter1_d_1665_5935)">
<path d="M40.7693 42.2222H19.8466C19.3886 42.2222 18.9636 41.97 18.7267 41.5597C18.6105 41.3592 18.5457 41.1284 18.539 40.8912C18.5323 40.654 18.5839 40.4192 18.6884 40.2113L19.1081 39.3755C20.1143 37.3797 21.1534 35.3164 21.1534 34.3075C21.1534 33.9367 21.1534 33.7693 20.5606 33.7693C20.0049 33.7693 19.4524 34.0006 19.2941 34.1203C18.596 34.6376 17.5877 34.9363 16.5273 34.9363C15.4467 34.9363 14.4831 34.6318 13.8094 34.082C12.5929 33.0823 12 31.0156 12 27.7655C12 23.882 14.0931 22.4999 16.0502 22.4999C16.743 22.4999 17.4836 22.6731 18.1891 23.0021C19.8264 23.7646 20.4957 23.7367 20.6997 23.7053C20.7016 23.6829 20.7027 23.6604 20.7029 23.6379C20.7221 21.0225 19.8699 14.9432 19.8604 14.8839C19.7987 14.4422 19.9443 13.9958 20.2535 13.6866C20.5329 13.4065 22.1522 12 26.3831 12C28.3774 12 29.3719 12.852 29.8532 13.5646C30.4152 14.3957 30.5566 15.4732 30.2336 16.4438C29.4632 18.757 29.3729 20.5273 29.9828 21.4282C30.4461 22.1163 31.4363 22.465 32.9217 22.465C33.3467 22.465 35.7543 22.2291 36.4364 21.2991C37.0622 20.4471 36.2197 17.089 36.0571 16.4438C35.8988 15.8115 35.8988 14.4189 36.4364 13.6866C37.3087 12.501 38.6613 12 40.7693 12C41.9806 12 44.0057 12 45.6483 14.1167C45.8374 14.3608 45.9989 16.13 46 16.4438V36.9194C46 39.8451 43.654 42.2222 40.7693 42.2222Z" fill="white" fill-opacity="0.75"/>
</g>
<g filter="url(#filter2_d_1665_5935)">
<path d="M39.171 40.3333H19.4106C18.9781 40.3333 18.5768 40.0969 18.353 39.7122C18.2433 39.5243 18.1821 39.3079 18.1757 39.0855C18.1694 38.8631 18.2181 38.643 18.3169 38.4481L18.7132 37.6646C19.6635 35.7935 20.6449 33.8592 20.6449 32.9133C20.6449 32.5656 20.6449 32.4087 20.085 32.4087C19.5602 32.4087 19.0384 32.6256 18.8888 32.7378C18.2296 33.2228 17.2773 33.5028 16.2758 33.5028C15.2553 33.5028 14.3451 33.2173 13.7089 32.7019C12.5599 31.7647 12 29.8271 12 26.7802C12 23.1394 13.9768 21.8437 15.8252 21.8437C16.4795 21.8437 17.1789 22.006 17.8452 22.3144C19.3916 23.0293 20.0238 23.0031 20.2164 22.9737C20.2182 22.9527 20.2192 22.9316 20.2194 22.9105C20.2375 20.4586 19.4327 14.7592 19.4237 14.7037C19.3655 14.2896 19.503 13.8711 19.795 13.5812C20.0589 13.3186 21.5882 12 25.584 12C27.4675 12 28.4068 12.7988 28.8613 13.4668C29.3922 14.246 29.5256 15.2562 29.2206 16.1661C28.4931 18.3347 28.4078 19.9944 28.9838 20.8389C29.4213 21.484 30.3565 21.811 31.7594 21.811C32.1608 21.811 34.4346 21.5897 35.0789 20.7179C35.6699 19.9192 34.8741 16.7709 34.7206 16.1661C34.5711 15.5733 34.5711 14.2678 35.0789 13.5812C35.9027 12.4697 37.1801 12 39.171 12C40.315 12 42.2276 12 43.779 13.9844C43.9576 14.2133 44.1101 15.8719 44.1111 16.1661V35.3619C44.1111 38.1048 41.8954 40.3333 39.171 40.3333Z" fill="white"/>
</g>
<defs>
<filter id="filter0_d_1665_5935" x="60.082" y="13.5234" width="90.4805" height="31.3711" filterUnits="userSpaceOnUse" color-interpolation-filters="sRGB">
<feFlood flood-opacity="0" result="BackgroundImageFix"/>
<feColorMatrix in="SourceAlpha" type="matrix" values="0 0 0 0 0 0 0 0 0 0 0 0 0 0 0 0 0 0 127 0" result="hardAlpha"/>
<feOffset dy="1"/>
<feGaussianBlur stdDeviation="1"/>
<feColorMatrix type="matrix" values="0 0 0 0 0.188235 0 0 0 0 0.0941176 0 0 0 0 0.537255 0 0 0 1 0"/>
<feBlend mode="normal" in2="BackgroundImageFix" result="effect1_dropShadow_1665_5935"/>
<feBlend mode="normal" in="SourceGraphic" in2="effect1_dropShadow_1665_5935" result="shape"/>
</filter>
<filter id="filter1_d_1665_5935" x="4" y="4" width="50" height="46.2222" filterUnits="userSpaceOnUse" color-interpolation-filters="sRGB">
<feFlood flood-opacity="0" result="BackgroundImageFix"/>
<feColorMatrix in="SourceAlpha" type="matrix" values="0 0 0 0 0 0 0 0 0 0 0 0 0 0 0 0 0 0 127 0" result="hardAlpha"/>
<feOffset/>
<feGaussianBlur stdDeviation="4"/>
<feColorMatrix type="matrix" values="0 0 0 0 0.188411 0 0 0 0 0.0940625 0 0 0 0 0.5375 0 0 0 1 0"/>
<feBlend mode="normal" in2="BackgroundImageFix" result="effect1_dropShadow_1665_5935"/>
<feBlend mode="normal" in="SourceGraphic" in2="effect1_dropShadow_1665_5935" result="shape"/>
</filter>
<filter id="filter2_d_1665_5935" x="4" y="4" width="48.1113" height="44.3335" filterUnits="userSpaceOnUse" color-interpolation-filters="sRGB">
<feFlood flood-opacity="0" result="BackgroundImageFix"/>
<feColorMatrix in="SourceAlpha" type="matrix" values="0 0 0 0 0 0 0 0 0 0 0 0 0 0 0 0 0 0 127 0" result="hardAlpha"/>
<feOffset/>
<feGaussianBlur stdDeviation="4"/>
<feColorMatrix type="matrix" values="0 0 0 0 0.188411 0 0 0 0 0.0940625 0 0 0 0 0.5375 0 0 0 1 0"/>
<feBlend mode="normal" in2="BackgroundImageFix" result="effect1_dropShadow_1665_5935"/>
<feBlend mode="normal" in="SourceGraphic" in2="effect1_dropShadow_1665_5935" result="shape"/>
</filter>
</defs>
</svg>
