<svg width="200" height="56" viewBox="0 0 200 56" fill="none" xmlns="http://www.w3.org/2000/svg">
<rect width="200" height="56" rx="28" fill="#F7CD58"/>
<g filter="url(#filter0_d_1644_5260)">
<path d="M76.3828 21.7734L78.7344 20.0234C79.9922 21.3906 81.0404 22.5299 81.8789 23.4414C83.0456 23.569 83.6562 23.0951 83.7109 22.0195C83.7839 21.3268 83.8203 20.6523 83.8203 19.9961H75.5898V27.4609H88.8516C88.724 30.2318 88.6146 33.2396 88.5234 36.4844C88.3958 39.638 87.0195 41.2148 84.3945 41.2148C83.319 41.2695 81.9336 41.2969 80.2383 41.2969C80.0924 40.3125 79.9375 39.474 79.7734 38.7812H70.6133V31.8359H73.5664V35.9922H75.6172V31.043H78.625V35.9922H80.6758V31.8359H83.6289V38.043C84.4128 37.9336 84.8503 37.332 84.9414 36.2383C85.0872 33.9049 85.1602 31.9453 85.1602 30.3594H72.1992V17.0977H76.4922C76.7292 16.3867 76.9935 15.5755 77.2852 14.6641L81.1406 15.2656C80.7396 15.9401 80.375 16.5508 80.0469 17.0977H87.1836C87.1471 17.6992 87.0651 19.5859 86.9375 22.7578C86.7734 25.0365 85.8802 26.276 84.2578 26.4766C83.1823 26.5677 82.0339 26.6042 80.8125 26.5859C80.7214 25.9661 80.6029 25.3281 80.457 24.6719L79.3359 25.4102C78.1875 23.9154 77.2031 22.7031 76.3828 21.7734ZM62.4922 19.8867H65.3633V14.9102H68.8906V19.8867H71.2695V23.2773H68.8906V27.4336C69.6745 27.2331 70.4583 27.0326 71.2422 26.832C71.2422 28.2721 71.2513 29.4935 71.2695 30.4961C70.4492 30.7148 69.6562 30.9245 68.8906 31.125V38.0156C68.8906 40.112 68.0339 41.2422 66.3203 41.4062C65.3359 41.5339 64.2604 41.5977 63.0938 41.5977C62.9297 40.5039 62.7018 39.3281 62.4102 38.0703C62.7018 38.0885 63.3945 38.0885 64.4883 38.0703C65.0716 38.0703 65.3633 37.6693 65.3633 36.8672V32.082C64.3971 32.3372 63.4857 32.5833 62.6289 32.8203L62.3281 28.8008C63.349 28.6185 64.3607 28.4271 65.3633 28.2266V23.2773H62.4922V19.8867Z" fill="white"/>
<path d="M103.695 27.3242H107.305V28.5273H116.328V36.375H115.316C116.483 37.487 117.768 38.7266 119.172 40.0938L116.41 41.9805C116.082 41.5612 115.763 41.1602 115.453 40.7773C107.596 40.9779 99.9583 41.2331 92.5391 41.543L92.2383 38.3438C96.0664 38.362 99.8854 38.3529 103.695 38.3164V36.375H98.1719V37.1133H94.6719V28.5273H103.695V27.3242ZM114.551 21.8555C114.824 20.944 115.07 19.9049 115.289 18.7383H107.195V20.1602H113.867V22.457H107.195V23.9609C110.185 23.9792 114.177 23.9245 119.172 23.7969C118.789 24.6354 118.406 25.6471 118.023 26.832C113.193 26.8685 108.572 26.8503 104.16 26.7773C101.553 26.7773 99.457 25.9753 97.8711 24.3711C96.9779 25.7201 95.793 26.9323 94.3164 28.0078C93.3867 27.0052 92.5755 26.2031 91.8828 25.6016C94.6901 23.651 96.276 21.4271 96.6406 18.9297L99.7852 19.3945C99.6393 20.3424 99.4023 21.2448 99.0742 22.1016C100.204 23.1224 101.708 23.7148 103.586 23.8789V18.7383H92.8125V15.9492H118.406V18.3828C118.078 19.9688 117.759 21.2904 117.449 22.3477C116.702 22.1471 115.736 21.9831 114.551 21.8555ZM98.1719 33.6406H103.695V31.2617H98.1719V33.6406ZM112.828 33.6406V31.2617H107.305V33.6406H112.828ZM112.062 36.9492L113.074 36.375H107.305V38.2617C109.255 38.2253 111.215 38.1797 113.184 38.125C112.783 37.724 112.409 37.332 112.062 36.9492Z" fill="white"/>
<path d="M148.344 35.6641H142.109C143.841 36.9766 146.029 37.8333 148.672 38.2344C148.107 39.2552 147.505 40.431 146.867 41.7617C143.531 40.7773 140.988 39.0365 139.238 36.5391C137.853 38.9818 135.283 40.7773 131.527 41.9258C130.944 40.7956 130.242 39.7201 129.422 38.6992C132.594 38.043 134.772 37.0312 135.957 35.6641H130.133V33.0117H137.27C137.379 32.5924 137.452 32.1276 137.488 31.6172H131.609V28.6641L129.504 30.7422C129.085 30.1042 128.638 29.4479 128.164 28.7734V41.6797H124.773V30.1133C124.062 32.0456 123.206 33.8776 122.203 35.6094C122.021 34.3516 121.729 32.6836 121.328 30.6055C122.641 28.3815 123.68 25.9935 124.445 23.4414H121.602V20.2148H124.773V14.8555H128.164V20.2148H130.707V23.4414H128.164V25C129.458 26.2031 130.607 27.3151 131.609 28.3359V21.8008H147.359V31.6172H140.934C140.897 32.1094 140.842 32.5742 140.77 33.0117H148.344V35.6641ZM143.969 29.2109V27.707H135V29.2109H143.969ZM143.969 24.2344H135V25.6836H143.969V24.2344ZM144.68 21.1445H141.453V19.6133H137.27V21.1445H134.043V19.6133H130.516V16.9062H134.043V14.8555H137.27V16.9062H141.453V14.8555H144.68V16.9062H148.453V19.6133H144.68V21.1445Z" fill="white"/>
<path d="M150.938 19.5312H165.156L164.855 14.7188H168.957C169.003 16.332 169.071 17.9362 169.162 19.5312H172.922C172.138 18.5104 171.363 17.5898 170.598 16.7695L173.031 14.9375C174.107 16.0495 175.146 17.207 176.148 18.4102L174.699 19.5312H177.488V23.1406H169.408C169.818 29.0742 170.365 32.9707 171.049 34.8301C171.742 36.6803 172.393 37.6055 173.004 37.6055C173.168 37.6055 173.318 37.5098 173.455 37.3184C173.592 37.127 173.751 36.5846 173.934 35.6914C174.125 34.7891 174.307 33.5951 174.48 32.1094C175.738 32.9115 176.932 33.5495 178.062 34.0234C177.57 37.4414 176.969 39.5833 176.258 40.4492C175.547 41.3242 174.471 41.7617 173.031 41.7617C170.461 41.7617 168.661 40.3216 167.631 37.4414C166.601 34.5612 165.863 29.7943 165.416 23.1406H150.938V19.5312ZM152.141 26.1211H164.5V29.7031H160.398V35.0215L165.812 34.2148C165.758 36.0013 165.74 37.3138 165.758 38.1523L151.375 40.2578L150.91 36.1836L156.488 35.5273V29.7031H152.141V26.1211Z" fill="white"/>
</g>
<g filter="url(#filter1_d_1644_5260)">
<path d="M30.7822 10C28.2754 9.99494 25.7926 10.4736 23.4786 11.4081C21.2515 12.3049 19.2246 13.611 17.5096 15.2544C15.7647 16.9183 14.379 18.9022 13.4331 21.0904C12.4872 23.2786 12 25.6274 12 28C12 30.3726 12.4872 32.7214 13.4331 34.9096C14.379 37.0978 15.7647 39.0817 17.5096 40.7456C19.2246 42.389 21.2515 43.6951 23.4786 44.5919C25.7926 45.5264 28.2754 46.0051 30.7822 46C32.2328 46.0004 33.6788 45.841 35.0922 45.5247C39.1814 44.6111 42.8374 42.3968 45.477 39.2347C45.8874 38.7428 46.0956 38.1211 46.0614 37.4893C46.0273 36.8575 45.7532 36.2604 45.292 35.8127L39.8235 30.5038L47.2456 23.1546C47.6256 22.7783 47.8767 22.2977 47.9649 21.7782C48.0531 21.2586 47.974 20.7253 47.7385 20.2509C46.2286 17.2187 43.874 14.6564 40.9406 12.8533C37.9038 10.9846 34.3792 9.9936 30.7822 10Z" fill="white" fill-opacity="0.75"/>
</g>
<g filter="url(#filter2_d_1644_5260)">
<path d="M29.8878 10C27.5003 9.99518 25.1358 10.451 22.932 11.341C20.811 12.1951 18.8806 13.439 17.2472 15.0042C15.5855 16.5889 14.2657 18.4782 13.3648 20.5623C12.464 22.6463 12 24.8833 12 27.1429C12 29.4024 12.464 31.6394 13.3648 33.7234C14.2657 35.8075 15.5855 37.6969 17.2472 39.2815C18.8806 40.8467 20.811 42.0906 22.932 42.9447C25.1358 43.8347 27.5003 44.2905 29.8878 44.2857C31.2693 44.2861 32.6464 44.1342 33.9926 43.833C37.8871 42.963 41.3689 40.8541 43.8829 37.8425C44.2738 37.3741 44.472 36.782 44.4395 36.1803C44.4069 35.5786 44.1459 35.0099 43.7067 34.5836L38.4986 29.5275L45.5672 22.5282C45.9291 22.1698 46.1683 21.7121 46.2523 21.2173C46.3363 20.7225 46.261 20.2146 46.0366 19.7628C44.5987 16.875 42.3562 14.4346 39.5625 12.7174C36.6703 10.9377 33.3135 9.9939 29.8878 10Z" fill="white"/>
<path d="M23.3065 12.2683L23.3055 12.2686C21.3015 13.0756 19.4794 14.2502 17.9391 15.7262L17.9373 15.7279C16.3715 17.221 15.1298 18.9996 14.2827 20.9591C13.4357 22.9184 13 25.0204 13 27.1429C13 29.2653 13.4357 31.3673 14.2827 33.3267C15.1298 35.2861 16.3715 37.0647 17.9373 38.5578L17.9391 38.5595C19.4794 40.0355 21.3015 41.2101 23.3055 42.0171L23.3065 42.0175C25.3901 42.8589 27.6267 43.2903 29.8857 43.2857L29.8881 43.2857C31.1962 43.2861 32.5 43.1423 33.7742 42.8572L33.7746 42.8571C37.4578 42.0342 40.745 40.041 43.115 37.2019L23.3065 12.2683ZM23.3065 12.2683C25.3901 11.4268 27.6267 10.9954 29.8857 11L29.8896 11M23.3065 12.2683L29.8896 11M29.8896 11C33.1311 10.9942 36.3055 11.8874 39.0384 13.5691L39.0388 13.5693C41.6759 15.1903 43.7884 17.4911 45.1415 20.2085C45.2719 20.4718 45.3148 20.7651 45.2664 21.0499C45.218 21.3354 45.0793 21.604 44.8636 21.8176L37.795 28.8169L37.0702 29.5345L37.802 30.2449L43.0101 35.3011L43.0102 35.3012M29.8896 11L43.0102 35.3012M43.0102 35.3012C43.272 35.5553 43.4222 35.8883 43.4409 36.2343C43.4596 36.58 43.3463 36.9246 43.1152 37.2017L43.0102 35.3012Z" stroke="white" stroke-width="2"/>
</g>
<path d="M29.1433 15.5195C27.4356 15.5195 26.0957 16.8593 26.0957 18.567C26.0957 20.2744 27.4353 21.6148 29.1433 21.6148C30.7649 21.6148 32.1909 20.3036 32.1909 18.567C32.1909 16.8588 30.8509 15.5195 29.1433 15.5195Z" fill="#F7CD58"/>
<defs>
<filter id="filter0_d_1644_5260" x="60.3281" y="13.6641" width="119.734" height="31.3164" filterUnits="userSpaceOnUse" color-interpolation-filters="sRGB">
<feFlood flood-opacity="0" result="BackgroundImageFix"/>
<feColorMatrix in="SourceAlpha" type="matrix" values="0 0 0 0 0 0 0 0 0 0 0 0 0 0 0 0 0 0 127 0" result="hardAlpha"/>
<feOffset dy="1"/>
<feGaussianBlur stdDeviation="1"/>
<feColorMatrix type="matrix" values="0 0 0 0 0.952941 0 0 0 0 0.694118 0 0 0 0 0.286275 0 0 0 1 0"/>
<feBlend mode="normal" in2="BackgroundImageFix" result="effect1_dropShadow_1644_5260"/>
<feBlend mode="normal" in="SourceGraphic" in2="effect1_dropShadow_1644_5260" result="shape"/>
</filter>
<filter id="filter1_d_1644_5260" x="4" y="2" width="52" height="52" filterUnits="userSpaceOnUse" color-interpolation-filters="sRGB">
<feFlood flood-opacity="0" result="BackgroundImageFix"/>
<feColorMatrix in="SourceAlpha" type="matrix" values="0 0 0 0 0 0 0 0 0 0 0 0 0 0 0 0 0 0 127 0" result="hardAlpha"/>
<feOffset/>
<feGaussianBlur stdDeviation="4"/>
<feColorMatrix type="matrix" values="0 0 0 0 0.908333 0 0 0 0 0.5995 0 0 0 0 0 0 0 0 1 0"/>
<feBlend mode="normal" in2="BackgroundImageFix" result="effect1_dropShadow_1644_5260"/>
<feBlend mode="normal" in="SourceGraphic" in2="effect1_dropShadow_1644_5260" result="shape"/>
</filter>
<filter id="filter2_d_1644_5260" x="4" y="2" width="50.2861" height="50.2856" filterUnits="userSpaceOnUse" color-interpolation-filters="sRGB">
<feFlood flood-opacity="0" result="BackgroundImageFix"/>
<feColorMatrix in="SourceAlpha" type="matrix" values="0 0 0 0 0 0 0 0 0 0 0 0 0 0 0 0 0 0 127 0" result="hardAlpha"/>
<feOffset/>
<feGaussianBlur stdDeviation="4"/>
<feColorMatrix type="matrix" values="0 0 0 0 0.908333 0 0 0 0 0.5995 0 0 0 0 0 0 0 0 1 0"/>
<feBlend mode="normal" in2="BackgroundImageFix" result="effect1_dropShadow_1644_5260"/>
<feBlend mode="normal" in="SourceGraphic" in2="effect1_dropShadow_1644_5260" result="shape"/>
</filter>
</defs>
</svg>
