<svg width="1440" height="1212" viewBox="0 0 1440 1212" fill="none" xmlns="http://www.w3.org/2000/svg">
<rect width="1440" height="800" fill="#D5C6F3" fill-opacity="0.1"/>
<path d="M1440 1142.54L1416 1159.33C1392 1176.13 1344 1209.72 1296 1208.92C1248 1208.12 1200 1172.93 1152 1163.65C1104 1154.22 1056 1170.85 1008 1182.53C960 1194.2 912 1201.24 864 1193.24C816 1185.25 768 1162.21 720 1170.05C672 1177.73 624 1216.12 576 1211.64C528 1207 480 1159.65 432 1138.86C384 1118.07 336 1123.82 288 1138.22C240 1152.62 192 1175.65 144 1183.65C96 1191.64 48 1184.61 24 1181.25L2.99615e-06 1177.73L3.59308e-05 801L24 801C48 801 96 801 144 801C192 801 240 801 288 801C336 801 384 801 432 801C480 801 528 801 576 801C624 801 672 801 720 801C768 801 816 801 864 801C912 801 960 801 1008 801C1056 801 1104 801 1152 801C1200 801 1248 801 1296 801C1344 801 1392 801 1416 801L1440 801L1440 1142.54Z" fill="#7152E1"/>
</svg>
