<svg width="84" height="84" viewBox="0 0 84 84" fill="none" xmlns="http://www.w3.org/2000/svg">
<rect width="83.9999" height="83.9999" rx="5" fill="black"/>
<rect width="73.8181" height="73.8181" transform="matrix(1 0 0 -1 5.0918 78.9097)" fill="url(#paint0_linear_1665_5611)" fill-opacity="0.5"/>
<path fill-rule="evenodd" clip-rule="evenodd" d="M0 8.90904C0 5.39451 2.84909 2.54541 6.36363 2.54541H77.6363C81.1508 2.54541 83.9999 5.3945 83.9999 8.90904V77.6362C83.9999 81.1508 81.1508 83.9999 77.6363 83.9999H6.36363C2.8491 83.9999 0 81.1508 0 77.6362V8.90904ZM6.36363 7.63631C5.66072 7.63631 5.0909 8.20613 5.0909 8.90904V77.6362C5.0909 78.3391 5.66072 78.909 6.36363 78.909H77.6363C78.3392 78.909 78.909 78.3391 78.909 77.6362V8.90904C78.909 8.20613 78.3392 7.63631 77.6363 7.63631H6.36363Z" fill="#3E1089"/>
<path fill-rule="evenodd" clip-rule="evenodd" d="M0 6.36363C0 2.8491 2.84909 0 6.36363 0H77.6363C81.1508 0 83.9999 2.84909 83.9999 6.36363V75.0908C83.9999 78.6054 81.1508 81.4545 77.6363 81.4545H6.36363C2.8491 81.4545 0 78.6054 0 75.0908V6.36363ZM6.36363 5.0909C5.66072 5.0909 5.0909 5.66072 5.0909 6.36363V75.0908C5.0909 75.7937 5.66072 76.3636 6.36363 76.3636H77.6363C77.6363 76.3636 78.909 75.7937 78.909 75.0908V6.36363C78.909 5.66072 78.3392 5.0909 77.6363 5.0909H6.36363Z" fill="url(#paint1_linear_1665_5611)"/>
<mask id="mask0_1665_5611" style="mask-type:alpha" maskUnits="userSpaceOnUse" x="0" y="0" width="79" height="77">
<path fill-rule="evenodd" clip-rule="evenodd" d="M78.9313 0H5.06929V1.73828H0V35.0486H5.06929V76.7585H78.9313V0Z" fill="#C4C4C4"/>
</mask>
<g mask="url(#mask0_1665_5611)">
<g filter="url(#filter0_d_1665_5611)">
<path d="M82.5509 21.9995C82.5509 19.584 80.0811 17.6248 77.0345 17.6248C76.7164 17.6248 76.4078 17.6467 76.1041 17.687C75.1432 15.8083 72.8213 14.4834 70.1057 14.4834C67.5251 14.4834 65.298 15.6814 64.2583 17.4137C63.6688 16.9279 62.9534 16.5398 62.1571 16.2736C61.3608 16.0074 60.5006 15.8689 59.6306 15.8668C56.0569 15.8668 53.1597 18.164 53.1597 20.998V21.0834C50.9615 21.2541 49.2422 22.7242 49.2422 24.5126C49.2422 26.4158 51.1865 27.959 53.5871 27.959C53.7109 27.959 53.833 27.9529 53.9551 27.9456C54.4661 29.6413 56.3895 30.904 58.6857 30.904C59.4524 30.9038 60.2073 30.7606 60.8839 30.4868C62.0569 32.1703 64.3178 33.311 66.9161 33.311C69.1239 33.311 71.0891 32.4875 72.3473 31.2065C73.0922 31.5399 73.9411 31.7156 74.8058 31.7153C77.5825 31.7153 79.8321 29.9317 79.8321 27.7309C79.8321 27.1038 79.6473 26.5097 79.3211 25.9815C81.2268 25.2922 82.5525 23.7685 82.5525 21.9995H82.5509Z" fill="#DEDEDE"/>
</g>
<g filter="url(#filter1_d_1665_5611)">
<path d="M57.9278 49.3545C57.9278 44.5235 52.4514 40.605 45.6958 40.605C44.9903 40.605 44.3062 40.649 43.6328 40.7295C41.5021 36.972 36.3535 34.3223 30.332 34.3223C24.6097 34.3223 19.6713 36.7183 17.366 40.1829C16.0587 39.2113 14.4725 38.435 12.7068 37.9026C10.941 37.3703 9.03375 37.0933 7.10444 37.0891C-0.819778 37.0891 -7.24395 41.6835 -7.24395 47.3514V47.5222C-12.1182 47.8638 -15.9307 50.8039 -15.9307 54.3808C-15.9307 58.187 -11.6194 61.2735 -6.29618 61.2735C-6.02183 61.2735 -5.75104 61.2613 -5.48024 61.2467C-4.34719 64.6381 -0.0822266 67.1635 5.00937 67.1635C6.70945 67.1632 8.38334 66.8766 9.88362 66.329C12.4846 69.6961 17.4979 71.9774 23.2593 71.9774C28.1549 71.9774 32.5125 70.3305 35.3024 67.7685C36.9541 68.4353 38.8366 68.7866 40.7539 68.786C46.9108 68.786 51.8991 65.2188 51.8991 60.8172C51.8991 59.5631 51.4893 58.3749 50.766 57.3184C54.9918 55.9399 57.9313 52.8924 57.9313 49.3545H57.9278Z" fill="#C8C8C8"/>
</g>
<g filter="url(#filter2_d_1665_5611)">
<path d="M61.4072 21.1477C61.4072 15.2822 56.854 10.5246 51.2373 10.5246C50.6508 10.5246 50.082 10.5779 49.5221 10.6757C47.7506 6.11363 43.4699 2.89648 38.4635 2.89648C33.7059 2.89648 29.6001 5.80554 27.6834 10.0121C26.5965 8.83243 25.2777 7.88989 23.8097 7.24352C22.3416 6.59716 20.7558 6.26091 19.1518 6.25582C12.5634 6.25582 7.22228 11.834 7.22228 18.7156V18.923C3.16975 19.3377 0 22.9074 0 27.2502C0 31.8715 3.58448 35.6189 8.01027 35.6189C8.23838 35.6189 8.46352 35.6041 8.68866 35.5863C9.63069 39.704 13.1767 42.7701 17.4099 42.7701C18.8234 42.7697 20.2151 42.4218 21.4624 41.757C23.625 45.8451 27.793 48.6149 32.5832 48.6149C36.6535 48.6149 40.2765 46.6153 42.596 43.5048C43.9693 44.3143 45.5344 44.7409 47.1285 44.7401C52.2475 44.7401 56.3948 40.4091 56.3948 35.065C56.3948 33.5423 56.0541 32.0996 55.4528 30.8169C58.9662 29.1432 61.4101 25.4432 61.4101 21.1477H61.4072Z" fill="#8B8B8B"/>
</g>
<g filter="url(#filter3_d_1665_5611)">
<path d="M85.4461 61.9675C85.4461 58.8087 82.2247 56.2466 78.2509 56.2466C77.8359 56.2466 77.4335 56.2754 77.0373 56.328C75.784 53.8712 72.7554 52.1387 69.2133 52.1387C65.8473 52.1387 62.9423 53.7053 61.5863 55.9706C60.8173 55.3353 59.8842 54.8278 58.8455 54.4797C57.8069 54.1316 56.6849 53.9505 55.5501 53.9478C50.8888 53.9478 47.1098 56.9518 47.1098 60.6577V60.7694C44.2426 60.9927 42 62.9151 42 65.2538C42 67.7426 44.5361 69.7606 47.6673 69.7606C47.8287 69.7606 47.988 69.7527 48.1473 69.7431C48.8138 71.9606 51.3226 73.6118 54.3177 73.6118C55.3177 73.6116 56.3024 73.4242 57.1849 73.0662C58.7149 75.2677 61.6638 76.7593 65.0529 76.7593C67.9327 76.7593 70.496 75.6825 72.1371 74.0074C73.1087 74.4433 74.216 74.6731 75.3438 74.6726C78.9656 74.6726 81.8999 72.3403 81.8999 69.4623C81.8999 68.6423 81.6588 67.8654 81.2333 67.1746C83.7191 66.2733 85.4482 64.2807 85.4482 61.9675H85.4461Z" fill="#757575"/>
</g>
</g>
<defs>
<filter id="filter0_d_1665_5611" x="49.2422" y="12.4834" width="35.3105" height="20.8276" filterUnits="userSpaceOnUse" color-interpolation-filters="sRGB">
<feFlood flood-opacity="0" result="BackgroundImageFix"/>
<feColorMatrix in="SourceAlpha" type="matrix" values="0 0 0 0 0 0 0 0 0 0 0 0 0 0 0 0 0 0 127 0" result="hardAlpha"/>
<feOffset dx="2" dy="-2"/>
<feColorMatrix type="matrix" values="0 0 0 0 0 0 0 0 0 0 0 0 0 0 0 0 0 0 0.5 0"/>
<feBlend mode="normal" in2="BackgroundImageFix" result="effect1_dropShadow_1665_5611"/>
<feBlend mode="normal" in="SourceGraphic" in2="effect1_dropShadow_1665_5611" result="shape"/>
</filter>
<filter id="filter1_d_1665_5611" x="-15.9307" y="32.3223" width="75.8623" height="39.6553" filterUnits="userSpaceOnUse" color-interpolation-filters="sRGB">
<feFlood flood-opacity="0" result="BackgroundImageFix"/>
<feColorMatrix in="SourceAlpha" type="matrix" values="0 0 0 0 0 0 0 0 0 0 0 0 0 0 0 0 0 0 127 0" result="hardAlpha"/>
<feOffset dx="2" dy="-2"/>
<feColorMatrix type="matrix" values="0 0 0 0 0 0 0 0 0 0 0 0 0 0 0 0 0 0 0.5 0"/>
<feBlend mode="normal" in2="BackgroundImageFix" result="effect1_dropShadow_1665_5611"/>
<feBlend mode="normal" in="SourceGraphic" in2="effect1_dropShadow_1665_5611" result="shape"/>
</filter>
<filter id="filter2_d_1665_5611" x="0" y="0.896484" width="63.4102" height="47.7183" filterUnits="userSpaceOnUse" color-interpolation-filters="sRGB">
<feFlood flood-opacity="0" result="BackgroundImageFix"/>
<feColorMatrix in="SourceAlpha" type="matrix" values="0 0 0 0 0 0 0 0 0 0 0 0 0 0 0 0 0 0 127 0" result="hardAlpha"/>
<feOffset dx="2" dy="-2"/>
<feColorMatrix type="matrix" values="0 0 0 0 0 0 0 0 0 0 0 0 0 0 0 0 0 0 0.5 0"/>
<feBlend mode="normal" in2="BackgroundImageFix" result="effect1_dropShadow_1665_5611"/>
<feBlend mode="normal" in="SourceGraphic" in2="effect1_dropShadow_1665_5611" result="shape"/>
</filter>
<filter id="filter3_d_1665_5611" x="42" y="50.1387" width="45.4482" height="26.6206" filterUnits="userSpaceOnUse" color-interpolation-filters="sRGB">
<feFlood flood-opacity="0" result="BackgroundImageFix"/>
<feColorMatrix in="SourceAlpha" type="matrix" values="0 0 0 0 0 0 0 0 0 0 0 0 0 0 0 0 0 0 127 0" result="hardAlpha"/>
<feOffset dx="2" dy="-2"/>
<feColorMatrix type="matrix" values="0 0 0 0 0 0 0 0 0 0 0 0 0 0 0 0 0 0 0.5 0"/>
<feBlend mode="normal" in2="BackgroundImageFix" result="effect1_dropShadow_1665_5611"/>
<feBlend mode="normal" in="SourceGraphic" in2="effect1_dropShadow_1665_5611" result="shape"/>
</filter>
<linearGradient id="paint0_linear_1665_5611" x1="36.909" y1="0" x2="36.909" y2="73.8181" gradientUnits="userSpaceOnUse">
<stop stop-color="white" stop-opacity="0.6"/>
<stop offset="1" stop-color="#261F1B" stop-opacity="0"/>
</linearGradient>
<linearGradient id="paint1_linear_1665_5611" x1="78.909" y1="2.54545" x2="2.54545" y2="78.909" gradientUnits="userSpaceOnUse">
<stop stop-color="#9350DD"/>
<stop offset="1" stop-color="#6648D5"/>
</linearGradient>
</defs>
</svg>
