<svg width="784" height="376" viewBox="0 0 784 376" fill="none" xmlns="http://www.w3.org/2000/svg">
<path fill-rule="evenodd" clip-rule="evenodd" d="M1.21702e-05 327.673C1.33353e-05 354.327 21.6067 375.933 48.2599 375.933L735.035 375.933C761.688 375.933 783.295 354.327 783.295 327.673V49.2511C783.295 22.5979 761.688 0.99121 735.035 0.991211L48.2599 0.991241C21.6067 0.991242 -1.16505e-06 22.5979 0 49.2511L1.21702e-05 327.673ZM35.0343 359.096C42.5783 362.94 52.454 362.94 72.2052 362.94L712.948 362.94C732.699 362.94 742.575 362.94 750.119 359.096C756.755 355.715 762.15 350.32 765.531 343.684C769.375 336.14 769.375 326.264 769.375 306.513V71.3387C769.375 51.5875 769.375 41.7118 765.531 34.1678C762.15 27.532 756.755 22.1368 750.119 18.7557C742.575 14.9118 732.699 14.9118 712.948 14.9118L72.2052 14.9118C52.454 14.9118 42.5783 14.9118 35.0343 18.7557C28.3984 22.1369 23.0033 27.532 19.6222 34.1679C15.7783 41.7119 15.7783 51.5875 15.7783 71.3388L15.7783 104.043C15.7874 107.47 18.4491 110.303 21.8182 110.54C26.422 110.674 29.8031 111.564 32.7221 113.125C35.8981 114.824 38.3907 117.316 40.0893 120.492C41.7879 123.669 42.6925 127.392 42.6925 132.642L42.6925 245.247C42.6925 250.497 41.7879 254.22 40.0893 257.396C38.3907 260.572 35.8981 263.065 32.7221 264.763C29.7984 266.327 26.411 267.218 21.7957 267.35C18.4372 267.597 15.7874 270.426 15.7783 273.845L15.7783 306.513C15.7783 326.264 15.7783 336.14 19.6222 343.684C23.0033 350.32 28.3985 355.715 35.0343 359.096Z" fill="black"/>
<path fill-rule="evenodd" clip-rule="evenodd" d="M29.7001 145.772C29.7001 142.184 26.7915 139.275 23.2035 139.275C19.6156 139.275 16.707 142.184 16.707 145.772C16.707 149.36 19.6156 152.268 23.2035 152.268C26.7915 152.268 29.7001 149.36 29.7001 145.772Z" fill="#232323"/>
<path d="M23.2035 212.593C21.1533 212.593 19.4912 210.931 19.4912 208.881L19.4912 168.045C19.4912 165.995 21.1533 164.333 23.2035 164.333C25.2538 164.333 26.9158 165.995 26.9158 168.045L26.9158 208.881C26.9158 210.931 25.2538 212.593 23.2035 212.593Z" fill="#232323"/>
</svg>
