<svg width="36" height="36" viewBox="0 0 36 36" fill="none" xmlns="http://www.w3.org/2000/svg">
<circle cx="18" cy="18" r="18" fill="#7152E1"/>
<path fill-rule="evenodd" clip-rule="evenodd" d="M15.5992 17.9997C15.5992 16.6742 16.6737 15.5997 17.9992 15.5997C18.662 15.5997 19.1992 15.0624 19.1992 14.3997C19.1992 13.737 18.662 13.1997 17.9992 13.1997C15.3483 13.1997 13.1992 15.3487 13.1992 17.9997C13.1992 20.6507 15.3483 22.7997 17.9992 22.7997C20.6502 22.7997 22.7992 20.6507 22.7992 17.9997C22.7992 17.337 22.262 16.7997 21.5992 16.7997C20.9365 16.7997 20.3992 17.337 20.3992 17.9997C20.3992 19.3252 19.3247 20.3997 17.9992 20.3997C16.6737 20.3997 15.5992 19.3252 15.5992 17.9997Z" fill="white"/>
<path fill-rule="evenodd" clip-rule="evenodd" d="M20.6992 16.4997C21.362 16.4997 21.8992 15.9624 21.8992 15.2997C21.8992 14.637 21.362 14.0997 20.6992 14.0997C20.0365 14.0997 19.4992 14.637 19.4992 15.2997C19.4992 15.9624 20.0365 16.4997 20.6992 16.4997Z" fill="white"/>
<path fill-rule="evenodd" clip-rule="evenodd" d="M17.9992 27.2997C23.1355 27.2997 27.2992 23.136 27.2992 17.9997C27.2992 12.8635 23.1355 8.69971 17.9992 8.69971C12.863 8.69971 8.69922 12.8635 8.69922 17.9997C8.69922 23.136 12.863 27.2997 17.9992 27.2997ZM24.8992 17.9997C24.8992 21.8105 21.81 24.8997 17.9992 24.8997C14.1885 24.8997 11.0992 21.8105 11.0992 17.9997C11.0992 14.1889 14.1885 11.0997 17.9992 11.0997C21.81 11.0997 24.8992 14.1889 24.8992 17.9997Z" fill="white"/>
</svg>
