<svg width="36" height="36" viewBox="0 0 36 36" fill="none" xmlns="http://www.w3.org/2000/svg">
<path d="M19.4442 5.62019C18.6782 4.79327 17.3218 4.79327 16.5558 5.62019L7.48311 15.4146C7.1377 15.7875 6.9895 16.2276 7.00058 16.6552L7 29.2069C7 30.1972 7.89543 31 9 31H12C13.1046 31 14 30.1972 14 29.2069V22.931C14 21.9407 14.8954 21.1379 16 21.1379H20C21.1046 21.1379 22 21.9407 22 22.931V29.2069C22 30.1972 22.8954 31 24 31H27C28.1046 31 29 30.1972 29 29.2069V16.6552C29.0111 16.2276 28.8623 15.7875 28.5169 15.4146L19.4442 5.62019Z" fill="#7152E1"/>
</svg>
