<svg width="160" height="24" viewBox="0 0 160 24" fill="none" xmlns="http://www.w3.org/2000/svg">
<path d="M137.213 14.3134L137.214 14.3104C137.404 13.3081 137.592 12.3176 137.792 11.3294C138.048 10.0602 138.318 8.79472 138.603 7.53297C138.748 6.87703 138.904 6.2228 139.059 5.56855L139.06 5.56725L139.06 5.5659L139.06 5.56448C139.241 4.80547 139.421 4.0464 139.585 3.28457C139.763 2.48855 139.891 1.68196 139.971 0.869508C140.027 0.218867 140.306 -0.133697 140.91 0.0489949C141.728 0.293747 142.536 0.570944 143.345 0.848189C143.881 1.03203 144.417 1.21591 144.956 1.39034C145.385 1.52816 145.356 1.76053 145.246 2.11951L145.102 2.58548C144.645 4.0697 144.188 5.55504 143.788 7.0522C143.406 8.45472 143.04 9.86171 142.674 11.2687L142.673 11.2705L142.673 11.2721C142.281 12.7787 141.889 14.2852 141.477 15.7862C141.267 16.5503 141.017 17.3022 140.766 18.0542C140.574 18.6317 140.381 19.2093 140.207 19.7926C139.936 20.698 139.703 21.6163 139.515 22.5426C139.413 23.0506 139.17 23.3166 138.689 23.323L138.375 23.3269C137.279 23.3407 136.182 23.3546 135.087 23.299C134.842 23.2862 134.485 22.9689 134.399 22.7125C133.878 21.1699 133.402 19.6112 132.925 18.0524L132.8 17.6419C132.536 16.7772 132.275 15.9147 132.015 15.0532L132.002 15.0109L131.997 14.9948C131.685 13.9599 131.372 12.9264 131.055 11.8919C130.708 10.7525 130.356 9.61408 130.004 8.47549L130.004 8.47407L130.003 8.47256L130.003 8.47115C129.403 6.53027 128.803 4.5888 128.225 2.64034C128.157 2.41438 128.347 1.92079 128.538 1.83906C129.18 1.55125 129.834 1.29183 130.488 1.03243C131.133 0.77622 131.779 0.519985 132.413 0.236495C132.883 0.0249564 133.054 0.209251 133.159 0.579444C133.453 1.62111 133.735 2.66278 133.994 3.71887C134.216 4.6241 134.431 5.53123 134.645 6.43845L134.645 6.44101L134.646 6.4437C134.826 7.20505 135.005 7.96646 135.19 8.72688C135.533 10.1521 135.889 11.5764 136.245 13.0005L136.246 13.0039L136.251 13.0218C136.381 13.5426 136.511 14.0634 136.641 14.5843C136.7 14.837 136.77 15.0906 136.848 15.3701C136.879 15.4822 136.911 15.5984 136.944 15.7205C137.032 15.2655 137.118 14.8138 137.203 14.3645L137.213 14.3134Z" fill="black"/>
<path d="M150.935 6.49066C150.936 6.20548 150.936 5.91804 150.936 5.6277C151.415 5.69716 151.883 5.76268 152.341 5.82694L152.343 5.82719C153.512 5.99116 154.623 6.14705 155.728 6.33924C157.219 6.58924 158.458 5.95783 159.667 5.23187C159.842 5.1277 159.986 4.72225 159.933 4.51071C159.637 3.33123 159.307 2.15815 158.926 1.0043C158.741 0.443407 158.328 0.148536 157.783 0.629305C156.93 1.3745 155.947 1.59084 154.876 1.43059C154.649 1.39661 154.425 1.3261 154.202 1.2557C153.931 1.17004 153.66 1.08455 153.384 1.0652C151.898 0.957272 150.409 0.87537 148.92 0.79349C148.287 0.758666 147.653 0.723815 147.021 0.686997C146.369 0.648536 146.1 0.930587 146.081 1.6261C146.054 2.6896 146.004 3.75225 145.955 4.81493C145.908 5.82086 145.861 6.82772 145.833 7.83443C145.773 10.0198 145.721 12.2055 145.67 14.3914L145.67 14.3995C145.61 16.922 145.551 19.4447 145.478 21.9674C145.456 22.7399 145.753 23.0299 146.472 23.0299C150.649 23.0161 154.826 23.0091 159.003 23.0091C159.725 23.0091 160.063 22.703 160 21.9402C159.886 20.6197 159.787 19.2976 159.704 17.9739C159.65 17.1101 159.549 17.0267 158.71 17.2527C158.507 17.2954 158.3 17.3196 158.093 17.3248C157.656 17.3586 157.22 17.3919 156.784 17.4252L156.778 17.4256C155.561 17.5183 154.345 17.611 153.129 17.7158C152.899 17.7547 152.677 17.8316 152.471 17.9434C151.193 18.5187 150.592 18.1341 150.603 16.7367C150.613 14.7224 150.615 14.7224 152.483 14.6587L152.639 14.6533C153.98 14.6064 155.319 14.5052 156.658 14.404C157.377 14.3497 158.096 14.2954 158.815 14.2495C159.347 14.2158 159.358 13.844 159.358 13.4594L159.358 13.2467C159.355 12.1958 159.352 11.1449 159.329 10.094C159.308 9.14693 159.126 8.94341 158.204 8.99789C157.03 9.06825 155.857 9.17257 154.686 9.27681C154.309 9.31027 153.933 9.34378 153.557 9.3761C153.488 9.38217 153.421 9.40612 153.353 9.4301C153.296 9.45039 153.239 9.47072 153.181 9.48027C153.092 9.49514 153.004 9.51026 152.915 9.52538C152.402 9.61289 151.889 9.70049 151.372 9.74148C151.235 9.7527 150.955 9.52354 150.955 9.40014C150.931 8.44001 150.933 7.47893 150.935 6.49066Z" fill="black"/>
<path fill-rule="evenodd" clip-rule="evenodd" d="M21.0698 6.53908C21.0706 6.2488 21.0715 5.95562 21.0715 5.65863C21.6433 5.73103 22.1994 5.79827 22.7442 5.86416C23.9963 6.01556 25.1892 6.1598 26.3766 6.34293C27.4712 6.51215 28.3429 6.02956 29.2141 5.5473C29.4237 5.43125 29.6333 5.31523 29.846 5.20831C30.0088 5.12658 30.1295 4.69068 30.0746 4.46793C29.799 3.33652 29.47 2.22434 29.1348 1.10254C28.9171 0.39421 28.5083 0.257992 27.9037 0.652223C27.8096 0.711127 27.7169 0.771931 27.6244 0.832552C27.0702 1.19579 26.5261 1.55239 25.7704 1.4535C24.5546 1.29479 23.3338 1.19218 22.1136 1.08962C21.8184 1.06481 21.5232 1.04 21.2281 1.0144C19.8633 0.899018 18.497 0.79218 17.1291 0.693889C16.5637 0.655428 16.2692 0.884595 16.2504 1.52562C16.2185 2.54251 16.1716 3.55869 16.1248 4.57466C16.0725 5.70735 16.0202 6.83986 15.9888 7.97274C15.8972 11.3216 15.8215 14.6696 15.7458 18.018L15.7457 18.0191C15.7179 19.2499 15.6901 20.4806 15.6615 21.7115C15.6333 22.9391 15.7131 23.0288 16.9317 23.0288L18.4761 23.0284C21.6935 23.0278 24.91 23.0272 28.1277 22.9968C28.5653 22.9927 29.0023 22.9096 29.4398 22.8264C29.6851 22.7798 29.9306 22.7331 30.1764 22.7003C30.3229 22.6957 30.4687 22.723 30.604 22.7804C30.9377 22.8921 31.2706 23.007 31.6036 23.1219C32.4507 23.4142 33.2984 23.7067 34.1596 23.9471C34.3882 24.0096 34.9224 23.7356 34.974 23.5288C35.3531 21.9904 35.7055 20.4439 35.9405 18.8814C36.0517 18.1474 36.3289 17.9471 36.9915 17.9199C37.4921 17.8996 37.991 17.8409 38.49 17.7823C38.9371 17.7298 39.3842 17.6772 39.8327 17.6522C40.0818 17.6394 40.4984 17.8077 40.5689 17.9984C40.862 18.8148 41.1068 19.6486 41.3019 20.4952C41.5353 21.4663 41.7421 22.4455 41.9081 23.4295C42.0146 24.0705 42.3984 24.0705 42.8244 23.9102C44.0398 23.4519 45.2506 22.992 46.4488 22.4904C46.8169 22.3365 47.0487 22.0945 46.8561 21.5561C46.4206 20.3429 46.0588 19.1009 45.7142 17.8574C45.4137 16.7712 45.1247 15.682 44.8357 14.593C44.4681 13.2075 44.1005 11.8221 43.7094 10.4439C43.0509 8.12038 42.3629 5.80661 41.6752 3.49347C41.4811 2.84075 41.287 2.18807 41.0936 1.53524C40.9276 0.972736 40.6096 0.639402 39.9612 0.666646C39.0488 0.717961 38.1341 0.706718 37.2233 0.632992C36.3602 0.549659 36.0015 0.980748 35.7823 1.72915C34.9922 4.4158 34.1981 7.09972 33.4037 9.78469L33.2026 10.4647C33.0454 10.9956 32.8886 11.5265 32.7318 12.0573C32.0867 14.2414 31.4416 16.4251 30.7763 18.6025C30.6937 18.8738 30.5383 19.1217 30.3826 19.37C30.3111 19.484 30.2395 19.5982 30.1749 19.7147C30.1419 19.5801 30.1014 19.4458 30.061 19.3116C29.9729 19.0192 29.8849 18.727 29.8741 18.4327L29.8712 18.3558C29.8478 17.7327 29.8361 17.4239 29.6778 17.2938C29.5222 17.166 29.225 17.2106 28.636 17.299L28.6211 17.3013C28.5361 17.3108 28.451 17.3114 28.366 17.312C28.2944 17.3125 28.2228 17.313 28.1512 17.3189L27.5029 17.3685C26.0901 17.4766 24.6774 17.5846 23.2659 17.7083C23.0365 17.7499 22.815 17.8283 22.6096 17.9407C21.3362 18.5128 20.73 18.1186 20.741 16.7195L20.7418 16.6481C20.752 15.6754 20.7571 15.1935 21.0005 14.9465C21.2395 14.704 21.7082 14.688 22.6371 14.6562L22.7991 14.6506C24.8041 14.5805 26.806 14.4072 28.8065 14.2341L28.9751 14.2195C29.1568 14.2035 29.47 13.8654 29.47 13.6747C29.4864 12.4646 29.4491 11.2473 29.4117 10.0296L29.4058 9.83652C29.3855 9.2035 29.0409 8.93588 28.43 8.98556C27.6764 9.04817 26.9225 9.10795 26.1685 9.16773C25.3212 9.23491 24.4731 9.30215 23.6261 9.37338C23.5475 9.38008 23.4727 9.41177 23.3969 9.44392C23.3277 9.47324 23.2576 9.50294 23.1829 9.5144C22.6311 9.62201 22.0735 9.69639 21.5132 9.73716C21.3722 9.74357 21.0919 9.47434 21.0919 9.31408C21.0643 8.39941 21.067 7.48461 21.0698 6.53908ZM38.1237 8.67256C38.2296 8.25332 38.3379 7.82417 38.4481 7.38139C38.5174 7.68859 38.5819 7.97209 38.6428 8.24L38.6449 8.24942C38.7567 8.74078 38.8565 9.17987 38.9525 9.61697C39.1129 10.3381 39.2591 11.0573 39.4052 11.7753C39.4473 11.9826 39.4896 12.1903 39.532 12.3974C39.5517 12.4965 39.5601 12.5976 39.5571 12.6987C38.9087 12.8292 38.2525 12.9149 37.5929 12.9551C37.488 12.9583 37.228 12.4102 37.2797 12.1715C37.5291 11.0278 37.8158 9.89204 38.1237 8.67256Z" fill="black"/>
<path fill-rule="evenodd" clip-rule="evenodd" d="M12.4026 0.649614H6.92051C6.45111 0.650015 5.98161 0.651217 5.51206 0.652418C4.10305 0.656024 2.69351 0.659631 1.28494 0.641602C0.609857 0.641602 0.293463 0.849935 0.280932 1.60314C0.249249 3.56355 0.203398 5.52432 0.15755 7.48494C0.108201 9.59526 0.0588563 11.7054 0.0271901 13.8147C-0.00464152 15.9491 0.000657841 18.0809 0.005957 20.2127C0.00795886 21.018 0.00996069 21.8233 0.00996069 22.6288C0.00996069 23.5583 0.157194 23.7185 1.07192 23.6608C1.76878 23.6207 2.46429 23.5402 3.15978 23.4597C3.51922 23.418 3.87938 23.3763 4.23899 23.3403L4.6092 23.3031C5.54118 23.2094 6.47429 23.1156 7.40764 23.0406L8.15546 22.9812C9.96747 22.8368 11.7796 22.6924 13.593 22.5839C14.6534 22.5198 14.857 22.3916 14.821 21.3227C14.7679 19.869 14.7026 18.4165 14.6373 16.9641C14.5928 15.975 14.5483 14.9851 14.5077 13.9958C14.5013 13.7886 14.5043 13.5806 14.5074 13.3727C14.5117 13.0725 14.5161 12.7722 14.4921 12.4749C14.4169 11.4733 14.3057 10.4749 14.1788 9.47814C14.16 9.3275 13.9971 9.08872 13.8843 9.0759C13.2075 9.00943 13.2316 8.53595 13.2552 8.07105L13.2578 8.01981C13.2899 7.34634 13.324 6.67304 13.3581 5.99986C13.4288 4.60347 13.4994 3.20738 13.5523 1.81147C13.593 0.702499 13.5194 0.649614 12.4026 0.649614ZM8.30055 18.1049C8.10963 18.1072 7.91901 18.1096 7.72873 18.1096C7.51293 18.1096 7.29734 18.1077 7.08158 18.1058C6.69755 18.1025 6.31301 18.0992 5.92591 18.1063C5.373 18.1128 5.11143 17.8371 5.11143 17.2778V15.9958C5.11143 15.0262 5.34637 14.7938 6.2658 14.6801C7.04895 14.5839 7.83211 14.4237 8.61526 14.2634C9.39841 14.1031 9.64119 14.2922 9.7524 15.0743C9.80903 15.4726 9.87663 15.8696 9.94424 16.2666C10.0094 16.6492 10.0745 17.0318 10.1299 17.4156C10.2051 17.9349 9.95445 18.1336 9.45167 18.1096C9.06731 18.0956 8.68305 18.1003 8.30055 18.1049ZM6.91604 9.34121C6.80364 9.34317 6.69123 9.34513 6.57906 9.34513C6.35466 9.34305 6.15836 9.3441 5.98667 9.34501C5.37309 9.34829 5.07373 9.34989 4.92959 9.2012C4.79244 9.05973 4.79563 8.78222 4.80186 8.24068C4.80421 8.03686 4.80698 7.79564 4.80287 7.51019V7.18968C4.80319 7.05506 4.80185 6.93474 4.80065 6.82716C4.79591 6.40176 4.79339 6.17556 4.90475 6.05198C5.03121 5.91165 5.30454 5.90367 5.88825 5.88663L5.99169 5.88359C6.42023 5.87103 6.84677 5.78741 7.27392 5.70367C7.50092 5.65917 7.72811 5.61463 7.95584 5.5807C8.54948 5.49737 8.84864 5.74096 8.76876 6.38199C8.75081 6.52151 8.73236 6.66103 8.7139 6.80057C8.63568 7.39183 8.55743 7.98338 8.51815 8.5759C8.47743 9.21372 8.14223 9.38038 7.59089 9.34513C7.36637 9.33337 7.14103 9.3373 6.91604 9.34121Z" fill="black"/>
<path fill-rule="evenodd" clip-rule="evenodd" d="M59.6173 16.1601L59.6186 16.1638L59.6192 16.1655L59.6196 16.1665C60.2467 17.9726 60.8603 19.7398 61.5033 21.496C61.7414 22.1515 61.4156 22.4031 60.9316 22.5489C60.3926 22.7097 59.8488 22.8525 59.3053 22.9952C58.8253 23.1212 58.3455 23.2471 57.8694 23.3854L57.8418 23.3935C56.3139 23.8375 56.2931 23.8435 55.9288 22.1995C55.7313 21.3112 55.5521 20.4186 55.373 19.5261L55.3728 19.525C55.2253 18.79 55.0778 18.0552 54.9201 17.3229C54.7948 16.7316 54.6209 16.1483 54.4392 15.5713C54.2372 14.9303 53.6999 14.9543 53.2065 15.0329C52.7461 15.1034 52.2104 15.2268 52.2307 15.8598L52.249 16.4298C52.3027 18.1252 52.3566 19.8231 52.5017 21.512C52.5973 22.6098 52.3905 22.9543 51.2862 23.02C50.4075 23.0729 49.5289 23.1611 48.658 23.2893C47.3595 23.48 47.1042 23.2749 47.1026 21.9127C47.1026 20.6413 47.1048 19.37 47.1069 18.0987C47.1123 14.8828 47.1177 11.667 47.0885 8.45114C47.0743 6.81518 46.9912 5.18015 46.9081 3.54535C46.8819 3.02969 46.8557 2.51325 46.8317 1.99761C46.8003 1.33255 47.0541 1.06973 47.7166 0.981584C50.3846 0.62678 53.0613 0.64769 55.7379 0.668599C56.9661 0.678194 58.1944 0.687789 59.4217 0.661071C60.6121 0.633828 60.6747 0.721969 60.6747 1.90626C60.681 5.56652 60.6857 9.22571 60.6888 12.8838C60.6888 13.5212 60.6888 13.8385 60.5307 14.0104C60.374 14.1808 60.0619 14.2084 59.4405 14.2632L59.4358 14.2636C59.287 14.2901 59.1403 14.3282 58.9972 14.3774C59.2053 14.9733 59.4104 15.5642 59.6141 16.1509L59.6173 16.1601ZM56.0071 5.97357C55.8574 5.9308 55.702 5.91242 55.5466 5.91908C54.9889 6.01475 54.4325 6.11848 53.876 6.22222C53.3793 6.31481 52.882 6.40751 52.3842 6.4944C51.7436 6.60658 51.5134 6.97517 51.6011 7.6162C51.6273 7.8076 51.6482 7.99814 51.6689 8.18744C51.7176 8.63214 51.7656 9.06999 51.8799 9.49601C51.9371 9.63495 52.026 9.75789 52.1391 9.85461C52.2521 9.95133 52.3861 10.019 52.5299 10.0521C53.0036 10.0903 53.4821 10.0861 53.9599 10.0819C54.343 10.0786 54.7257 10.0752 55.1049 10.0938C55.6797 10.1194 55.8881 9.91267 55.8881 9.31652C55.887 8.56461 55.9227 7.81113 55.9604 7.01755C55.9766 6.67795 55.993 6.33088 56.0071 5.97357Z" fill="black"/>
<path fill-rule="evenodd" clip-rule="evenodd" d="M73.4285 12.108C73.4285 11.2047 73.4298 10.3019 73.431 9.39952V9.39558C73.4344 6.93764 73.4378 4.48117 73.416 2.0231C73.416 1.30195 73.6541 1.01028 74.3464 0.991052C76.2557 0.93977 78.1646 0.881277 80.0736 0.822783C81.9825 0.76429 83.8915 0.705796 85.8008 0.654513C86.8972 0.625667 86.9552 0.721821 86.9865 1.80676C87.0291 3.26609 87.0747 4.72542 87.1204 6.18475C87.1888 8.37285 87.2572 10.561 87.3154 12.7491C87.3515 14.1241 86.9943 14.5247 85.6426 14.6497C84.8779 14.7201 84.112 14.7753 83.346 14.8305C82.5606 14.8871 81.775 14.9437 80.9907 15.0167C80.2962 15.0899 79.6068 15.2066 78.9263 15.3661C78.8377 15.4023 78.7593 15.4603 78.6978 15.5349C78.6363 15.6095 78.5938 15.6985 78.5739 15.7939C78.5444 16.3813 78.5481 16.9699 78.5848 17.5568C78.6125 18.0857 78.6448 18.6147 78.6772 19.1437C78.7419 20.2029 78.8067 21.2627 78.8339 22.3228C78.8339 22.5439 78.4909 22.9446 78.2669 22.9766C77.0389 23.1465 75.8015 23.2651 74.5626 23.3292C73.5632 23.3805 73.4317 23.209 73.4301 22.1978C73.427 18.8313 73.4265 15.4681 73.4285 12.108ZM81.4192 5.92706L81.4181 5.92725C80.6185 6.07924 79.8504 6.22521 79.0798 6.35644C78.5081 6.4558 78.1839 6.72663 78.2027 7.35964C78.2215 8.05355 78.2214 8.74746 78.2152 9.44298C78.2152 9.86605 78.3718 10.084 78.8088 10.084C79.0868 10.084 79.365 10.0858 79.6432 10.0876C80.4088 10.0927 81.1752 10.0977 81.9414 10.0648C82.1341 10.0568 82.4693 9.76349 82.4755 9.59362C82.5074 8.63705 82.5037 7.68049 82.4999 6.69932C82.4987 6.37697 82.4975 6.05196 82.4975 5.72342C82.1303 5.7919 81.7724 5.85993 81.4206 5.92678L81.4192 5.92706Z" fill="black"/>
<path fill-rule="evenodd" clip-rule="evenodd" d="M87.4796 20.066C87.2473 20.8414 87.0126 21.625 86.7744 22.4209C87.2044 22.5676 87.6226 22.7125 88.0325 22.8546C89.1498 23.2418 90.2056 23.6077 91.2713 23.9289C91.5015 23.9979 92.0497 23.7366 92.1014 23.5347C92.4867 22.0011 92.8423 20.4514 93.0866 18.8873C93.19 18.1789 93.4594 17.953 94.1298 17.9257C94.6105 17.9063 95.0892 17.85 95.5679 17.7937C96.036 17.7386 96.5041 17.6835 96.9742 17.6629C97.1235 17.6719 97.2691 17.7136 97.4013 17.7852C97.5335 17.8568 97.649 17.9567 97.7401 18.078C97.8745 18.2723 97.9198 18.5324 97.9647 18.7901C97.9804 18.8808 97.9963 18.9716 98.0158 19.0588C98.3447 20.531 98.669 22.0043 98.9885 23.4786C99.0919 23.9674 99.4161 24.1036 99.8077 23.9594C101.097 23.4866 102.387 22.9995 103.64 22.4482C103.825 22.3681 103.962 21.8921 103.924 21.6293C103.872 21.2674 103.76 20.9188 103.647 20.5705C103.589 20.3899 103.53 20.2089 103.481 20.0267C103.289 19.3276 103.102 18.6275 102.914 17.9275C102.529 16.4868 102.143 15.0466 101.722 13.6165C101.44 12.64 101.127 11.6719 100.814 10.7036C100.5 9.7316 100.186 8.75938 99.9032 7.77831C99.5569 6.57621 99.241 5.36498 98.9252 4.15395L98.9249 4.15266L98.9245 4.15135C98.6949 3.2709 98.4653 2.39055 98.2241 1.51389C98.0988 1.07478 97.8889 0.682155 97.3157 0.682155C96.9418 0.682155 96.5677 0.675923 96.1935 0.669691C95.4451 0.657227 94.6968 0.644762 93.9512 0.682155C93.7869 0.707162 93.6306 0.771025 93.4947 0.86867C93.3587 0.966316 93.2469 1.09505 93.1681 1.24466C92.903 1.9718 92.6876 2.71685 92.472 3.46249C92.3716 3.80963 92.2711 4.15702 92.1656 4.50267C91.8737 5.46105 91.5794 6.41849 91.285 7.37596L91.2846 7.37735C90.9141 8.58243 90.5436 9.78755 90.178 10.9947C89.9154 11.8664 89.66 12.7355 89.4047 13.6041L89.4044 13.6053L89.4032 13.6094C89.2113 14.2624 89.0194 14.9151 88.8247 15.5684C88.3808 17.0581 87.9349 18.5465 87.4796 20.066ZM95.4361 7.5235L95.5927 7.46741H95.5959C95.6744 7.67184 95.7403 7.88112 95.7932 8.09402C96.0892 9.51068 96.3743 10.9273 96.6594 12.3456C96.6831 12.4689 96.6988 12.5936 96.7064 12.719C96.0759 12.85 95.4365 12.9314 94.7939 12.9626C94.6655 12.9642 94.3851 12.4418 94.429 12.211C94.651 11.0394 94.9113 9.87578 95.1717 8.71222C95.2603 8.31637 95.349 7.91965 95.4361 7.5235Z" fill="black"/>
<path d="M113.861 23.0203C114.409 23.0193 114.957 23.0182 115.505 23.0182L115.499 23.0006C116.057 23.0006 116.614 23.0022 117.171 23.0038H117.173C118.287 23.007 119.399 23.0102 120.511 23.0006C121.516 22.9926 121.689 22.7682 121.607 21.7377L121.568 21.2682C121.478 20.1846 121.388 19.1018 121.349 18.0166C121.328 17.4477 121.134 17.257 120.597 17.3147C119.903 17.3876 119.208 17.4536 118.513 17.5197L118.511 17.5199C117.817 17.586 117.122 17.652 116.427 17.7249C116.318 17.7362 116.213 17.7909 116.108 17.846C116.048 17.8769 115.989 17.908 115.928 17.9317C114.946 18.3115 114.454 18.1688 114.549 17.0999C114.703 15.4108 114.775 13.7105 114.844 12.0134C114.87 11.3993 114.871 10.7851 114.872 10.1714C114.873 9.60971 114.874 9.04836 114.894 8.48775C114.984 6.1245 115.088 3.76232 115.207 1.40121C115.245 0.643197 114.936 0.335504 114.199 0.35153C113.235 0.371246 112.272 0.355072 111.308 0.338898L110.909 0.332299C110.325 0.322684 110.085 0.571081 110.07 1.19448C110.034 2.56797 109.982 3.94102 109.93 5.31409C109.883 6.54278 109.837 7.7715 109.802 9.00057C109.69 12.9763 109.596 16.9535 109.501 20.9307L109.479 21.8499C109.451 22.89 109.561 23.0102 110.576 23.0182C111.669 23.0246 112.765 23.0225 113.861 23.0203Z" fill="black"/>
<path d="M122.477 17.5172C122.477 16.9744 122.474 16.4316 122.47 15.8889C122.464 14.8037 122.458 13.7185 122.477 12.6342C122.518 10.5635 122.57 8.49219 122.621 6.42098C122.663 4.74487 122.705 3.06799 122.741 1.39224C122.751 0.948327 122.871 0.688711 123.341 0.647045C123.874 0.597722 124.406 0.540276 124.938 0.482849C125.408 0.432058 125.878 0.381275 126.349 0.336147C126.931 0.280058 127.235 0.558904 127.218 1.17108C127.216 1.19777 127.216 1.22453 127.218 1.25121C127.254 2.67847 127.289 4.10558 127.324 5.53262L127.324 5.53717L127.325 5.54238C127.403 8.72037 127.481 11.8981 127.573 15.0765C127.644 17.4708 127.752 19.865 127.871 22.2592C127.907 22.9804 127.702 23.3329 126.931 23.365C126.096 23.3993 125.262 23.4862 124.429 23.5732C124.055 23.6122 123.681 23.6513 123.307 23.6855C122.691 23.7384 122.416 23.4836 122.428 22.8057C122.453 21.5513 122.448 20.297 122.443 19.0426C122.441 18.5341 122.439 18.0257 122.439 17.5172H122.477Z" fill="black"/>
<path d="M67.8063 9.30198C68.5895 9.38211 69.3256 9.43179 69.8582 8.56961C70.2952 7.86128 70.6319 7.95102 71.0219 8.70743C71.1375 8.9329 71.2518 9.15897 71.366 9.38498C71.6667 9.97987 71.9672 10.5743 72.2906 11.1562C72.6039 11.7235 72.6352 12.1914 72.0745 12.6113C71.8658 12.7727 71.6807 12.9637 71.5247 13.1786C70.8872 14.0392 70.0587 14.2459 69.0186 14.2908C68.0222 14.3336 67.0312 14.4914 66.0392 14.6494C65.4345 14.7458 64.8295 14.8422 64.2226 14.9126C63.4734 14.998 62.7177 15.005 61.9671 14.9334C61.7541 14.9126 61.4189 14.4991 61.4095 14.2555C61.3724 13.285 61.3706 12.3106 61.3688 11.3382C61.3677 10.7899 61.3667 10.2422 61.3594 9.69621C61.3594 9.17378 61.6006 8.98307 62.0752 8.98628H64.4246L67.8063 9.30198Z" fill="black"/>
</svg>
