<svg width="1048" height="61" viewBox="0 0 1048 61" fill="none" xmlns="http://www.w3.org/2000/svg">
<path opacity="0.5" d="M80.1701 57H80.8191L81.1271 54.492H82.7551L82.4581 57H83.1181L83.4151 54.492H84.5481V53.788H83.5031L83.7341 51.962H84.7901V51.269H83.8111L84.0861 49.014H83.4481L83.1511 51.269H81.5231L81.7981 49.014H81.1491L80.8631 51.269H79.7411V51.962H80.7861L80.5551 53.788H79.4991V54.492H80.4671L80.1701 57ZM81.2151 53.788L81.4351 51.962H83.0741L82.8431 53.788H81.2151ZM87.9986 57H89.0436C89.1646 53.843 89.5166 51.973 91.4086 49.542V48.937H86.3596V49.795H90.2646C88.6916 51.995 88.1306 53.942 87.9986 57ZM93.5502 57H97.9722V56.164H96.3552V48.937H95.5852C95.1452 49.19 94.6282 49.377 93.9132 49.509V50.147H95.3432V56.164H93.5502V57ZM102.215 57.143C103.579 57.143 104.855 56.142 104.855 54.371C104.855 52.6 103.766 51.808 102.424 51.808C101.94 51.808 101.577 51.929 101.225 52.127L101.423 49.795H104.47V48.937H100.543L100.29 52.71L100.829 53.04C101.291 52.732 101.632 52.567 102.171 52.567C103.183 52.567 103.843 53.249 103.843 54.404C103.843 55.581 103.073 56.307 102.127 56.307C101.192 56.307 100.609 55.878 100.147 55.416L99.6518 56.076C100.191 56.615 100.961 57.143 102.215 57.143ZM106.589 57H111.66V56.131H109.427C109.02 56.131 108.525 56.175 108.107 56.208C109.999 54.415 111.264 52.776 111.264 51.17C111.264 49.729 110.362 48.783 108.921 48.783C107.898 48.783 107.205 49.256 106.545 49.971L107.128 50.543C107.568 50.015 108.14 49.608 108.8 49.608C109.801 49.608 110.285 50.279 110.285 51.203C110.285 52.589 109.119 54.195 106.589 56.406V57ZM113.967 57H118.741V56.131H114.99V53.194H118.048V52.325H114.99V49.795H118.62V48.937H113.967V57ZM120.962 57H125.384V56.164H123.767V48.937H122.997C122.557 49.19 122.04 49.377 121.325 49.509V50.147H122.755V56.164H120.962V57Z" fill="#242424"/>
<path opacity="0.5" d="M288.877 57H289.526L289.834 54.492H291.462L291.165 57H291.825L292.122 54.492H293.255V53.788H292.21L292.441 51.962H293.497V51.269H292.518L292.793 49.014H292.155L291.858 51.269H290.23L290.505 49.014H289.856L289.57 51.269H288.448V51.962H289.493L289.262 53.788H288.206V54.492H289.174L288.877 57ZM289.922 53.788L290.142 51.962H291.781L291.55 53.788H289.922ZM295.627 57H296.65V53.381H299.73V52.523H296.65V49.795H300.28V48.937H295.627V57ZM303.435 57H304.48C304.601 53.843 304.953 51.973 306.845 49.542V48.937H301.796V49.795H305.701C304.128 51.995 303.567 53.942 303.435 57ZM312.165 57.143C313.21 57.143 314.002 56.725 314.64 55.988L314.079 55.35C313.562 55.911 312.979 56.252 312.209 56.252C310.669 56.252 309.701 54.976 309.701 52.941C309.701 50.928 310.713 49.674 312.242 49.674C312.935 49.674 313.474 49.993 313.892 50.444L314.442 49.784C313.98 49.267 313.21 48.783 312.231 48.783C310.185 48.783 308.656 50.367 308.656 52.974C308.656 55.592 310.163 57.143 312.165 57.143ZM316.793 57H318.861C321.292 57 322.623 55.493 322.623 52.941C322.623 50.378 321.292 48.937 318.817 48.937H316.793V57ZM317.816 56.164V49.762H318.729C320.632 49.762 321.567 50.895 321.567 52.941C321.567 54.976 320.632 56.164 318.729 56.164H317.816ZM326.775 57.143C328.139 57.143 329.415 56.142 329.415 54.371C329.415 52.6 328.326 51.808 326.984 51.808C326.5 51.808 326.137 51.929 325.785 52.127L325.983 49.795H329.03V48.937H325.103L324.85 52.71L325.389 53.04C325.851 52.732 326.192 52.567 326.731 52.567C327.743 52.567 328.403 53.249 328.403 54.404C328.403 55.581 327.633 56.307 326.687 56.307C325.752 56.307 325.169 55.878 324.707 55.416L324.212 56.076C324.751 56.615 325.521 57.143 326.775 57.143ZM333.735 57.143C335.253 57.143 336.265 56.23 336.265 55.053C336.265 53.953 335.605 53.348 334.901 52.941V52.886C335.385 52.512 335.979 51.786 335.979 50.939C335.979 49.696 335.143 48.816 333.768 48.816C332.503 48.816 331.557 49.63 331.557 50.862C331.557 51.709 332.052 52.314 332.646 52.721V52.776C331.909 53.172 331.161 53.92 331.161 54.998C331.161 56.241 332.25 57.143 333.735 57.143ZM334.285 52.622C333.339 52.248 332.47 51.83 332.47 50.862C332.47 50.081 333.009 49.553 333.746 49.553C334.615 49.553 335.121 50.202 335.121 50.994C335.121 51.588 334.835 52.138 334.285 52.622ZM333.757 56.395C332.789 56.395 332.074 55.768 332.074 54.91C332.074 54.14 332.525 53.502 333.174 53.084C334.318 53.546 335.308 53.953 335.308 55.031C335.308 55.834 334.681 56.395 333.757 56.395Z" fill="#242424"/>
<path opacity="0.5" d="M499.205 57H499.854L500.162 54.492H501.79L501.493 57H502.153L502.45 54.492H503.583V53.788H502.538L502.769 51.962H503.825V51.269H502.846L503.121 49.014H502.483L502.186 51.269H500.558L500.833 49.014H500.184L499.898 51.269H498.776V51.962H499.821L499.59 53.788H498.534V54.492H499.502L499.205 57ZM500.25 53.788L500.47 51.962H502.109L501.878 53.788H500.25ZM505.955 57H506.978V53.381H510.058V52.523H506.978V49.795H510.608V48.937H505.955V57ZM513.763 57H514.808C514.929 53.843 515.281 51.973 517.173 49.542V48.937H512.124V49.795H516.029C514.456 51.995 513.895 53.942 513.763 57ZM519.446 57H520.469V53.381H523.549V52.523H520.469V49.795H524.099V48.937H519.446V57ZM527.254 57H528.299C528.42 53.843 528.772 51.973 530.664 49.542V48.937H525.615V49.795H529.52C527.947 51.995 527.386 53.942 527.254 57ZM532.937 57H533.96V53.381H537.04V52.523H533.96V49.795H537.59V48.937H532.937V57ZM542.595 57.143C543.64 57.143 544.432 56.725 545.07 55.988L544.509 55.35C543.992 55.911 543.409 56.252 542.639 56.252C541.099 56.252 540.131 54.976 540.131 52.941C540.131 50.928 541.143 49.674 542.672 49.674C543.365 49.674 543.904 49.993 544.322 50.444L544.872 49.784C544.41 49.267 543.64 48.783 542.661 48.783C540.615 48.783 539.086 50.367 539.086 52.974C539.086 55.592 540.593 57.143 542.595 57.143Z" fill="#242424"/>
<path opacity="0.5" d="M709.825 57H710.474L710.782 54.492H712.41L712.113 57H712.773L713.07 54.492H714.203V53.788H713.158L713.389 51.962H714.445V51.269H713.466L713.741 49.014H713.103L712.806 51.269H711.178L711.453 49.014H710.804L710.518 51.269H709.396V51.962H710.441L710.21 53.788H709.154V54.492H710.122L709.825 57ZM710.87 53.788L711.09 51.962H712.729L712.498 53.788H710.87ZM719.622 57.143C720.667 57.143 721.459 56.725 722.097 55.988L721.536 55.35C721.019 55.911 720.436 56.252 719.666 56.252C718.126 56.252 717.158 54.976 717.158 52.941C717.158 50.928 718.17 49.674 719.699 49.674C720.392 49.674 720.931 49.993 721.349 50.444L721.899 49.784C721.437 49.267 720.667 48.783 719.688 48.783C717.642 48.783 716.113 50.367 716.113 52.974C716.113 55.592 717.62 57.143 719.622 57.143ZM724.25 57H729.024V56.131H725.273V53.194H728.331V52.325H725.273V49.795H728.903V48.937H724.25V57ZM734.424 57.143C735.469 57.143 736.261 56.725 736.899 55.988L736.338 55.35C735.821 55.911 735.238 56.252 734.468 56.252C732.928 56.252 731.96 54.976 731.96 52.941C731.96 50.928 732.972 49.674 734.501 49.674C735.194 49.674 735.733 49.993 736.151 50.444L736.701 49.784C736.239 49.267 735.469 48.783 734.49 48.783C732.444 48.783 730.915 50.367 730.915 52.974C730.915 55.592 732.422 57.143 734.424 57.143ZM739.052 57H743.826V56.131H740.075V53.194H743.133V52.325H740.075V49.795H743.705V48.937H739.052V57ZM749.225 57.143C750.27 57.143 751.062 56.725 751.7 55.988L751.139 55.35C750.622 55.911 750.039 56.252 749.269 56.252C747.729 56.252 746.761 54.976 746.761 52.941C746.761 50.928 747.773 49.674 749.302 49.674C749.995 49.674 750.534 49.993 750.952 50.444L751.502 49.784C751.04 49.267 750.27 48.783 749.291 48.783C747.245 48.783 745.716 50.367 745.716 52.974C745.716 55.592 747.223 57.143 749.225 57.143ZM753.853 57H758.627V56.131H754.876V53.194H757.934V52.325H754.876V49.795H758.506V48.937H753.853V57Z" fill="#242424"/>
<path opacity="0.5" d="M920.189 57H920.838L921.146 54.492H922.774L922.477 57H923.137L923.434 54.492H924.567V53.788H923.522L923.753 51.962H924.809V51.269H923.83L924.105 49.014H923.467L923.17 51.269H921.542L921.817 49.014H921.168L920.882 51.269H919.76V51.962H920.805L920.574 53.788H919.518V54.492H920.486L920.189 57ZM921.234 53.788L921.454 51.962H923.093L922.862 53.788H921.234ZM926.808 57H931.23V56.164H929.613V48.937H928.843C928.403 49.19 927.886 49.377 927.171 49.509V50.147H928.601V56.164H926.808V57ZM933.866 53.975L935.703 51.225C935.934 50.829 936.154 50.433 936.352 50.037H936.396C936.374 50.455 936.33 51.104 936.33 51.5V53.975H933.866ZM938.354 53.975H937.287V48.937H936.176L932.821 54.118V54.778H936.33V57H937.287V54.778H938.354V53.975ZM940.331 57H944.753V56.164H943.136V48.937H942.366C941.926 49.19 941.409 49.377 940.694 49.509V50.147H942.124V56.164H940.331V57ZM947.389 53.975L949.226 51.225C949.457 50.829 949.677 50.433 949.875 50.037H949.919C949.897 50.455 949.853 51.104 949.853 51.5V53.975H947.389ZM951.877 53.975H950.81V48.937H949.699L946.344 54.118V54.778H949.853V57H950.81V54.778H951.877V53.975ZM953.37 57H958.441V56.131H956.208C955.801 56.131 955.306 56.175 954.888 56.208C956.78 54.415 958.045 52.776 958.045 51.17C958.045 49.729 957.143 48.783 955.702 48.783C954.679 48.783 953.986 49.256 953.326 49.971L953.909 50.543C954.349 50.015 954.921 49.608 955.581 49.608C956.582 49.608 957.066 50.279 957.066 51.203C957.066 52.589 955.9 54.195 953.37 56.406V57ZM960.747 57H963.321C965.125 57 966.379 56.219 966.379 54.635C966.379 53.535 965.697 52.897 964.729 52.71V52.655C965.488 52.413 965.917 51.709 965.917 50.906C965.917 49.487 964.784 48.937 963.145 48.937H960.747V57ZM961.77 52.369V49.74H963.013C964.267 49.74 964.916 50.092 964.916 51.038C964.916 51.852 964.355 52.369 962.969 52.369H961.77ZM961.77 56.186V53.15H963.178C964.586 53.15 965.378 53.601 965.378 54.602C965.378 55.691 964.564 56.186 963.178 56.186H961.77Z" fill="#242424"/>
<rect width="1048" height="36" rx="4" fill="#14142B"/>
<rect width="838.4" height="36" rx="4" fill="#CECECE"/>
<rect width="628.8" height="36" rx="4" fill="#F7F7FC"/>
<rect width="419.2" height="36" rx="4" fill="#F7CD58"/>
<rect width="209.6" height="36" rx="4" fill="#7152E1"/>
</svg>
