<svg width="334" height="92" viewBox="0 0 334 92" fill="none" xmlns="http://www.w3.org/2000/svg">
<path d="M1.29 34H16.17V30.28H11.34C10.32 30.28 8.85 30.4 7.74 30.52C11.79 26.56 15.12 22.24 15.12 18.22C15.12 14.08 12.33 11.38 8.13 11.38C5.1 11.38 3.12 12.58 1.08 14.74L3.48 17.14C4.59 15.91 5.94 14.86 7.56 14.86C9.66 14.86 10.89 16.21 10.89 18.46C10.89 21.88 7.32 26.05 1.29 31.45V34ZM24.386 24.88L27.836 19.36C28.466 18.16 29.066 16.93 29.606 15.76H29.726C29.666 17.05 29.546 19.06 29.546 20.35V24.88H24.386ZM36.296 24.88H33.656V11.8H28.376L20.096 25.24V28.24H29.546V34H33.656V28.24H36.296V24.88Z" fill="#242424"/>
<path d="M1.012 60.519H2.013V58.495L1.991 57.45C2.53 57.89 3.102 58.143 3.641 58.143C5.016 58.143 6.237 56.966 6.237 54.92C6.237 53.083 5.401 51.873 3.861 51.873C3.168 51.873 2.497 52.269 1.958 52.709H1.925L1.837 52.027H1.012V60.519ZM3.476 57.307C3.08 57.307 2.552 57.142 2.013 56.68V53.545C2.596 53.006 3.113 52.72 3.619 52.72C4.752 52.72 5.192 53.611 5.192 54.931C5.192 56.416 4.466 57.307 3.476 57.307ZM7.44219 58H8.49819L9.30119 56.603C9.51019 56.24 9.70819 55.877 9.91719 55.536H9.97219C10.1922 55.877 10.4122 56.24 10.6102 56.603L11.4902 58H12.5902L10.6212 54.986L12.4362 52.027H11.3912L10.6542 53.347C10.4782 53.677 10.3022 54.007 10.1152 54.337H10.0712C9.87319 54.007 9.66419 53.677 9.47719 53.347L8.67419 52.027H7.59619L9.41119 54.887L7.44219 58Z" fill="#242424" fill-opacity="0.5"/>
<path d="M2.367 86.947H6.669V87.748H2.367V86.947ZM6.669 83.131V83.887H2.367V83.131H6.669ZM6.669 85.129H2.367V84.409H6.669V85.129ZM2.367 85.651H6.669V86.425H2.367V85.651ZM7.335 87.748V82.564H4.473C4.527 82.348 4.572 82.105 4.617 81.853H8.289V81.241H4.734L4.851 80.53L4.122 80.458C4.104 80.692 4.077 80.962 4.041 81.241H0.711V81.853H3.951C3.915 82.105 3.87 82.348 3.834 82.564H1.728V87.748H0.45V88.369H8.559V87.748H7.335ZM12.528 84.211L11.7 84.508V82.897H12.654V82.276H11.7V80.476H11.07V82.276H9.954V82.897H11.07V84.733C10.593 84.904 10.161 85.048 9.819 85.165L9.963 85.822C10.305 85.696 10.674 85.552 11.07 85.408V87.91C11.07 88.045 11.025 88.072 10.917 88.072C10.818 88.081 10.458 88.081 10.071 88.072C10.161 88.261 10.242 88.531 10.269 88.693C10.836 88.702 11.178 88.675 11.385 88.567C11.61 88.459 11.7 88.279 11.7 87.91V85.174C12.015 85.057 12.339 84.931 12.645 84.805L12.528 84.211ZM13.365 81.745C13.554 82.087 13.77 82.537 13.869 82.807L14.427 82.6C14.319 82.339 14.094 81.907 13.905 81.583L13.365 81.745ZM15.588 87.784V87.01H16.938V87.784H15.588ZM13.797 87.01H15.012V87.784H13.797V87.01ZM15.012 85.741V86.506H13.797V85.741H15.012ZM16.938 86.506H15.588V85.741H16.938V86.506ZM18.036 83.365V82.807H16.74C16.947 82.456 17.181 82.006 17.379 81.601L16.794 81.412C16.65 81.817 16.371 82.411 16.137 82.807H15.624V81.34C16.38 81.268 17.091 81.16 17.658 81.025L17.262 80.53C16.218 80.782 14.337 80.953 12.789 81.043C12.852 81.178 12.924 81.394 12.942 81.538C13.59 81.511 14.319 81.466 15.012 81.403V82.807H12.681V83.365H14.472C13.941 84.049 13.077 84.679 12.276 85.012C12.411 85.12 12.6 85.354 12.69 85.489C13.536 85.102 14.445 84.364 15.012 83.545V85.03H15.624V83.509C16.11 84.166 16.839 84.814 17.559 85.228H13.194V88.684H13.797V88.288H16.938V88.63H17.559V85.228C17.667 85.291 17.766 85.345 17.865 85.399C17.964 85.237 18.162 85.021 18.288 84.904C17.55 84.598 16.722 83.995 16.191 83.365H18.036ZM27.162 81.16H23.265V81.79H27.162V81.16ZM22.788 84.76C22.617 84.526 21.852 83.554 21.582 83.23V82.996H22.743V82.366H21.582V80.476H20.916V82.366H19.557V82.996H20.772C20.484 84.112 19.899 85.39 19.332 86.065C19.449 86.227 19.629 86.497 19.71 86.686C20.16 86.119 20.592 85.183 20.916 84.22V88.684H21.582V84.004C21.879 84.445 22.248 85.003 22.392 85.291L22.788 84.76ZM23.499 84.922C23.265 85.876 22.86 86.839 22.365 87.469C22.518 87.541 22.779 87.73 22.896 87.82C23.382 87.136 23.832 86.092 24.111 85.057L23.499 84.922ZM27.639 83.923V83.293H22.878V83.923H24.795V87.829C24.795 87.946 24.759 87.973 24.624 87.982C24.507 87.991 24.093 87.991 23.625 87.973C23.706 88.171 23.805 88.459 23.832 88.657C24.462 88.657 24.876 88.648 25.128 88.522C25.389 88.414 25.461 88.216 25.461 87.838V83.923H27.639ZM26.073 85.075C26.496 85.957 26.91 87.127 27.036 87.829L27.657 87.613C27.504 86.902 27.063 85.768 26.631 84.904L26.073 85.075ZM33.471 82.294V86.056H34.038V82.798H36.162V86.029H36.756V82.294H35.073C35.172 82.051 35.289 81.736 35.415 81.43H37.188V80.881H33.111V81.43H34.731C34.65 81.718 34.56 82.042 34.461 82.294H33.471ZM37.17 87.271C36.819 86.911 36.108 86.344 35.568 85.966L35.172 86.317C35.73 86.713 36.432 87.307 36.765 87.685L37.17 87.271ZM34.857 83.239C34.803 85.561 34.623 86.695 32.742 87.298C32.868 87.388 33.012 87.604 33.066 87.73C35.109 87.055 35.361 85.759 35.433 83.239H34.857ZM32.049 82.015H30.222V81.34H32.049V82.015ZM32.049 83.158H30.222V82.483H32.049V83.158ZM32.679 80.845H29.619V83.653H32.679V80.845ZM31.482 86.308H32.967V85.795H31.482V84.841H33.129V84.319H29.088V84.841H30.906V87.253C30.636 87.037 30.411 86.767 30.231 86.398C30.276 86.065 30.312 85.705 30.33 85.318L29.763 85.273C29.709 86.569 29.538 87.649 28.953 88.333C29.088 88.414 29.331 88.585 29.43 88.675C29.763 88.243 29.979 87.721 30.114 87.091C30.915 88.279 32.238 88.495 34.146 88.495H37.008C37.044 88.315 37.161 88.063 37.26 87.919C36.738 87.937 34.551 87.937 34.155 87.937C33.075 87.928 32.175 87.874 31.482 87.586V86.308Z" fill="#242424"/>
<path d="M75.968 36H86.648V33.144H83.312V18.24H80.696C79.568 18.936 78.344 19.392 76.568 19.728V21.912H79.784V33.144H75.968V36ZM96.6288 36.336C100.229 36.336 102.605 34.272 102.605 31.584C102.605 29.16 101.261 27.72 99.6288 26.832V26.712C100.805 25.872 101.909 24.408 101.909 22.656C101.909 19.824 99.8928 17.928 96.7488 17.928C93.6528 17.928 91.3968 19.752 91.3968 22.608C91.3968 24.504 92.3808 25.848 93.7488 26.832V26.952C92.0928 27.84 90.7008 29.304 90.7008 31.584C90.7008 34.368 93.2448 36.336 96.6288 36.336ZM97.7568 25.848C95.8848 25.104 94.5168 24.288 94.5168 22.608C94.5168 21.192 95.4768 20.4 96.6768 20.4C98.1648 20.4 99.0288 21.432 99.0288 22.872C99.0288 23.928 98.6208 24.936 97.7568 25.848ZM96.7248 33.84C95.0688 33.84 93.7488 32.808 93.7488 31.2C93.7488 29.88 94.4208 28.68 95.3808 27.912C97.6848 28.848 99.3168 29.616 99.3168 31.464C99.3168 33 98.2128 33.84 96.7248 33.84Z" fill="#242424"/>
<path d="M75.012 60.519H76.013V58.495L75.991 57.45C76.53 57.89 77.102 58.143 77.641 58.143C79.016 58.143 80.237 56.966 80.237 54.92C80.237 53.083 79.401 51.873 77.861 51.873C77.168 51.873 76.497 52.269 75.958 52.709H75.925L75.837 52.027H75.012V60.519ZM77.476 57.307C77.08 57.307 76.552 57.142 76.013 56.68V53.545C76.596 53.006 77.113 52.72 77.619 52.72C78.752 52.72 79.192 53.611 79.192 54.931C79.192 56.416 78.466 57.307 77.476 57.307ZM81.4422 58H82.4982L83.3012 56.603C83.5102 56.24 83.7082 55.877 83.9172 55.536H83.9722C84.1922 55.877 84.4122 56.24 84.6102 56.603L85.4902 58H86.5902L84.6212 54.986L86.4362 52.027H85.3912L84.6542 53.347C84.4782 53.677 84.3022 54.007 84.1152 54.337H84.0712C83.8732 54.007 83.6642 53.677 83.4772 53.347L82.6742 52.027H81.5962L83.4112 54.887L81.4422 58Z" fill="#242424" fill-opacity="0.5"/>
<path d="M82.451 83.725V83.041H78.734C78.86 82.096 78.869 81.205 78.878 80.485H78.158C78.149 81.196 78.158 82.096 78.023 83.041H74.594V83.725H77.915C77.546 85.426 76.646 87.154 74.414 88.126C74.603 88.261 74.819 88.495 74.918 88.675C77.105 87.676 78.077 85.948 78.509 84.22C79.22 86.263 80.363 87.856 82.091 88.675C82.208 88.477 82.433 88.198 82.595 88.045C80.858 87.334 79.688 85.705 79.058 83.725H82.451ZM84.944 82.051H91.1V83.248H91.784V81.412H88.607C88.481 81.106 88.238 80.71 88.004 80.404L87.365 80.62C87.536 80.854 87.707 81.151 87.833 81.412H84.287V83.248H84.944V82.051ZM91.874 85.291H88.382V84.958C89.165 84.544 89.966 83.941 90.533 83.365L90.074 83.014L89.93 83.05H85.655V83.68H89.255C88.805 84.076 88.211 84.481 87.689 84.733V85.291H84.179V85.93H87.689V87.856C87.689 87.982 87.644 88.018 87.473 88.027C87.32 88.036 86.744 88.036 86.132 88.018C86.249 88.189 86.384 88.486 86.438 88.675C87.185 88.675 87.653 88.666 87.968 88.558C88.283 88.459 88.382 88.261 88.382 87.865V85.93H91.874V85.291ZM101.162 81.16H97.265V81.79H101.162V81.16ZM96.788 84.76C96.617 84.526 95.852 83.554 95.582 83.23V82.996H96.743V82.366H95.582V80.476H94.916V82.366H93.557V82.996H94.772C94.484 84.112 93.899 85.39 93.332 86.065C93.449 86.227 93.629 86.497 93.71 86.686C94.16 86.119 94.592 85.183 94.916 84.22V88.684H95.582V84.004C95.879 84.445 96.248 85.003 96.392 85.291L96.788 84.76ZM97.499 84.922C97.265 85.876 96.86 86.839 96.365 87.469C96.518 87.541 96.779 87.73 96.896 87.82C97.382 87.136 97.832 86.092 98.111 85.057L97.499 84.922ZM101.639 83.923V83.293H96.878V83.923H98.795V87.829C98.795 87.946 98.759 87.973 98.624 87.982C98.507 87.991 98.093 87.991 97.625 87.973C97.706 88.171 97.805 88.459 97.832 88.657C98.462 88.657 98.876 88.648 99.128 88.522C99.389 88.414 99.461 88.216 99.461 87.838V83.923H101.639ZM100.073 85.075C100.496 85.957 100.91 87.127 101.036 87.829L101.657 87.613C101.504 86.902 101.063 85.768 100.631 84.904L100.073 85.075ZM107.471 82.294V86.056H108.038V82.798H110.162V86.029H110.756V82.294H109.073C109.172 82.051 109.289 81.736 109.415 81.43H111.188V80.881H107.111V81.43H108.731C108.65 81.718 108.56 82.042 108.461 82.294H107.471ZM111.17 87.271C110.819 86.911 110.108 86.344 109.568 85.966L109.172 86.317C109.73 86.713 110.432 87.307 110.765 87.685L111.17 87.271ZM108.857 83.239C108.803 85.561 108.623 86.695 106.742 87.298C106.868 87.388 107.012 87.604 107.066 87.73C109.109 87.055 109.361 85.759 109.433 83.239H108.857ZM106.049 82.015H104.222V81.34H106.049V82.015ZM106.049 83.158H104.222V82.483H106.049V83.158ZM106.679 80.845H103.619V83.653H106.679V80.845ZM105.482 86.308H106.967V85.795H105.482V84.841H107.129V84.319H103.088V84.841H104.906V87.253C104.636 87.037 104.411 86.767 104.231 86.398C104.276 86.065 104.312 85.705 104.33 85.318L103.763 85.273C103.709 86.569 103.538 87.649 102.953 88.333C103.088 88.414 103.331 88.585 103.43 88.675C103.763 88.243 103.979 87.721 104.114 87.091C104.915 88.279 106.238 88.495 108.146 88.495H111.008C111.044 88.315 111.161 88.063 111.26 87.919C110.738 87.937 108.551 87.937 108.155 87.937C107.075 87.928 106.175 87.874 105.482 87.586V86.308Z" fill="#242424"/>
<path d="M149.76 38H157.8V36.48H154.86V23.34H153.46C152.66 23.8 151.72 24.14 150.42 24.38V25.54H153.02V36.48H149.76V38ZM162.594 32.5L165.934 27.5C166.354 26.78 166.754 26.06 167.114 25.34H167.194C167.154 26.1 167.074 27.28 167.074 28V32.5H162.594ZM170.754 32.5H168.814V23.34H166.794L160.694 32.76V33.96H167.074V38H168.814V33.96H170.754V32.5Z" fill="#242424"/>
<path d="M149.012 60.519H150.013V58.495L149.991 57.45C150.53 57.89 151.102 58.143 151.641 58.143C153.016 58.143 154.237 56.966 154.237 54.92C154.237 53.083 153.401 51.873 151.861 51.873C151.168 51.873 150.497 52.269 149.958 52.709H149.925L149.837 52.027H149.012V60.519ZM151.476 57.307C151.08 57.307 150.552 57.142 150.013 56.68V53.545C150.596 53.006 151.113 52.72 151.619 52.72C152.752 52.72 153.192 53.611 153.192 54.931C153.192 56.416 152.466 57.307 151.476 57.307ZM155.442 58H156.498L157.301 56.603C157.51 56.24 157.708 55.877 157.917 55.536H157.972C158.192 55.877 158.412 56.24 158.61 56.603L159.49 58H160.59L158.621 54.986L160.436 52.027H159.391L158.654 53.347C158.478 53.677 158.302 54.007 158.115 54.337H158.071C157.873 54.007 157.664 53.677 157.477 53.347L156.674 52.027H155.596L157.411 54.887L155.442 58Z" fill="#242424" fill-opacity="0.5"/>
<path d="M152.851 87.739V85.534H155.677V84.886H152.851V82.915H156.046V82.258H153.139L153.562 81.952C153.211 81.529 152.491 80.917 151.915 80.503L151.375 80.881C151.915 81.277 152.554 81.844 152.905 82.258H148.954V82.915H152.14V84.886H149.368V85.534H152.14V87.739H148.54V88.396H156.496V87.739H152.851ZM163.588 85.903C163.282 86.425 162.868 86.83 162.31 87.145C161.671 87.001 161.005 86.848 160.339 86.713C160.528 86.479 160.744 86.191 160.942 85.903H163.588ZM159.277 82.762H160.627V83.977H159.277V82.762ZM161.266 81.457H162.715V82.213H161.266V81.457ZM164.848 82.762V83.977H163.354V82.762H164.848ZM161.266 83.977V82.762H162.715V83.977H161.266ZM166.027 85.903V85.318H161.338C161.482 85.084 161.617 84.841 161.734 84.625L161.329 84.526H165.505V82.213H163.354V81.457H165.883V80.863H158.197V81.457H160.627V82.213H158.638V84.526H161.023C160.906 84.778 160.744 85.048 160.564 85.318H158.053V85.903H160.168C159.862 86.335 159.538 86.749 159.25 87.064C160.006 87.208 160.753 87.37 161.455 87.532C160.573 87.847 159.475 88.018 158.107 88.099C158.215 88.252 158.323 88.486 158.377 88.684C160.078 88.54 161.41 88.279 162.409 87.784C163.543 88.072 164.533 88.396 165.262 88.693L165.82 88.171C165.109 87.901 164.164 87.622 163.12 87.352C163.633 86.974 164.038 86.497 164.317 85.903H166.027ZM175.162 81.16H171.265V81.79H175.162V81.16ZM170.788 84.76C170.617 84.526 169.852 83.554 169.582 83.23V82.996H170.743V82.366H169.582V80.476H168.916V82.366H167.557V82.996H168.772C168.484 84.112 167.899 85.39 167.332 86.065C167.449 86.227 167.629 86.497 167.71 86.686C168.16 86.119 168.592 85.183 168.916 84.22V88.684H169.582V84.004C169.879 84.445 170.248 85.003 170.392 85.291L170.788 84.76ZM171.499 84.922C171.265 85.876 170.86 86.839 170.365 87.469C170.518 87.541 170.779 87.73 170.896 87.82C171.382 87.136 171.832 86.092 172.111 85.057L171.499 84.922ZM175.639 83.923V83.293H170.878V83.923H172.795V87.829C172.795 87.946 172.759 87.973 172.624 87.982C172.507 87.991 172.093 87.991 171.625 87.973C171.706 88.171 171.805 88.459 171.832 88.657C172.462 88.657 172.876 88.648 173.128 88.522C173.389 88.414 173.461 88.216 173.461 87.838V83.923H175.639ZM174.073 85.075C174.496 85.957 174.91 87.127 175.036 87.829L175.657 87.613C175.504 86.902 175.063 85.768 174.631 84.904L174.073 85.075ZM181.471 82.294V86.056H182.038V82.798H184.162V86.029H184.756V82.294H183.073C183.172 82.051 183.289 81.736 183.415 81.43H185.188V80.881H181.111V81.43H182.731C182.65 81.718 182.56 82.042 182.461 82.294H181.471ZM185.17 87.271C184.819 86.911 184.108 86.344 183.568 85.966L183.172 86.317C183.73 86.713 184.432 87.307 184.765 87.685L185.17 87.271ZM182.857 83.239C182.803 85.561 182.623 86.695 180.742 87.298C180.868 87.388 181.012 87.604 181.066 87.73C183.109 87.055 183.361 85.759 183.433 83.239H182.857ZM180.049 82.015H178.222V81.34H180.049V82.015ZM180.049 83.158H178.222V82.483H180.049V83.158ZM180.679 80.845H177.619V83.653H180.679V80.845ZM179.482 86.308H180.967V85.795H179.482V84.841H181.129V84.319H177.088V84.841H178.906V87.253C178.636 87.037 178.411 86.767 178.231 86.398C178.276 86.065 178.312 85.705 178.33 85.318L177.763 85.273C177.709 86.569 177.538 87.649 176.953 88.333C177.088 88.414 177.331 88.585 177.43 88.675C177.763 88.243 177.979 87.721 178.114 87.091C178.915 88.279 180.238 88.495 182.146 88.495H185.008C185.044 88.315 185.161 88.063 185.26 87.919C184.738 87.937 182.551 87.937 182.155 87.937C181.075 87.928 180.175 87.874 179.482 87.586V86.308Z" fill="#242424"/>
<path d="M223.584 38H230.82V36.632H228.174V24.806H226.914C226.194 25.22 225.348 25.526 224.178 25.742V26.786H226.518V36.632H223.584V38ZM233.856 38H242.154V36.578H238.5C237.834 36.578 237.024 36.65 236.34 36.704C239.436 33.77 241.506 31.088 241.506 28.46C241.506 26.102 240.03 24.554 237.672 24.554C235.998 24.554 234.864 25.328 233.784 26.498L234.738 27.434C235.458 26.57 236.394 25.904 237.474 25.904C239.112 25.904 239.904 27.002 239.904 28.514C239.904 30.782 237.996 33.41 233.856 37.028V38Z" fill="#242424"/>
<path d="M223.012 60.519H224.013V58.495L223.991 57.45C224.53 57.89 225.102 58.143 225.641 58.143C227.016 58.143 228.237 56.966 228.237 54.92C228.237 53.083 227.401 51.873 225.861 51.873C225.168 51.873 224.497 52.269 223.958 52.709H223.925L223.837 52.027H223.012V60.519ZM225.476 57.307C225.08 57.307 224.552 57.142 224.013 56.68V53.545C224.596 53.006 225.113 52.72 225.619 52.72C226.752 52.72 227.192 53.611 227.192 54.931C227.192 56.416 226.466 57.307 225.476 57.307ZM229.442 58H230.498L231.301 56.603C231.51 56.24 231.708 55.877 231.917 55.536H231.972C232.192 55.877 232.412 56.24 232.61 56.603L233.49 58H234.59L232.621 54.986L234.436 52.027H233.391L232.654 53.347C232.478 53.677 232.302 54.007 232.115 54.337H232.071C231.873 54.007 231.664 53.677 231.477 53.347L230.674 52.027H229.596L231.411 54.887L229.442 58Z" fill="#242424" fill-opacity="0.5"/>
<path d="M224.826 83.59H228.219V84.472H224.826V83.59ZM229.713 85.714H226.95V84.976H228.885V83.086H224.187V84.976H226.275V85.714H223.386V88.288H224.052V86.326H226.275V88.693H226.95V86.326H229.038V87.586C229.038 87.694 228.993 87.721 228.858 87.73C228.723 87.739 228.246 87.739 227.706 87.721C227.796 87.901 227.904 88.144 227.94 88.333C228.633 88.333 229.083 88.333 229.362 88.225C229.641 88.126 229.713 87.946 229.713 87.595V85.714ZM228.84 80.539C228.669 80.863 228.345 81.34 228.093 81.637L228.633 81.862C228.894 81.592 229.236 81.178 229.533 80.782L228.84 80.539ZM230.262 81.862H226.896V80.467H226.221V81.862H224.34L224.898 81.61C224.745 81.313 224.43 80.872 224.133 80.557L223.539 80.8C223.8 81.124 224.106 81.565 224.241 81.862H222.801V83.788H223.44V82.447H229.605V83.788H230.262V81.862ZM236.463 81.502H238.947V85.651H239.604V80.908H235.824V85.651H236.463V81.502ZM235.455 86.866C235.239 86.596 234.33 85.525 233.979 85.156C233.997 84.985 234.015 84.823 234.033 84.661H235.392V84.031H234.06C234.069 83.842 234.069 83.644 234.069 83.464V82.582H235.293V81.961H234.069V80.566H233.439V81.961H232.152V82.582H233.439V83.473C233.439 83.644 233.439 83.842 233.43 84.031H231.954V84.661H233.403C233.313 85.867 232.998 87.244 231.9 88.135C232.062 88.234 232.287 88.459 232.368 88.594C233.223 87.838 233.655 86.839 233.862 85.84C234.258 86.335 234.78 87.019 234.987 87.37L235.455 86.866ZM238.605 87.964C238.371 87.964 238.299 87.91 238.299 87.667V85.39H237.885C237.993 84.904 238.029 84.427 238.029 83.986V82.267H237.399V83.977C237.399 85.363 237.12 87.046 234.87 88.198C234.987 88.288 235.203 88.549 235.284 88.684C236.643 87.973 237.345 87.019 237.696 86.047V87.73C237.696 88.333 237.93 88.495 238.515 88.495H239.226C239.964 88.495 240.072 88.144 240.144 86.749C239.982 86.713 239.757 86.614 239.595 86.488C239.559 87.73 239.514 87.964 239.235 87.964H238.605ZM246.282 81.799C246.156 81.421 245.85 80.845 245.58 80.422L244.887 80.62C245.157 81.061 245.445 81.664 245.553 82.033L246.282 81.799ZM247.461 82.708C247.011 83.923 246.408 84.913 245.607 85.723C244.761 84.877 244.113 83.851 243.645 82.708H247.461ZM249.63 82.708V82.051H241.566V82.708H242.952C243.474 84.067 244.185 85.237 245.112 86.191C244.131 87.019 242.925 87.631 241.44 88.054C241.575 88.207 241.773 88.513 241.854 88.675C243.348 88.198 244.59 87.55 245.598 86.668C246.597 87.568 247.821 88.225 249.288 88.639C249.396 88.45 249.585 88.171 249.747 88.018C248.316 87.667 247.101 87.028 246.111 86.191C247.011 85.264 247.704 84.13 248.217 82.708H249.63ZM252.024 82.051H258.18V83.248H258.864V81.412H255.687C255.561 81.106 255.318 80.71 255.084 80.404L254.445 80.62C254.616 80.854 254.787 81.151 254.913 81.412H251.367V83.248H252.024V82.051ZM258.954 85.291H255.462V84.958C256.245 84.544 257.046 83.941 257.613 83.365L257.154 83.014L257.01 83.05H252.735V83.68H256.335C255.885 84.076 255.291 84.481 254.769 84.733V85.291H251.259V85.93H254.769V87.856C254.769 87.982 254.724 88.018 254.553 88.027C254.4 88.036 253.824 88.036 253.212 88.018C253.329 88.189 253.464 88.486 253.518 88.675C254.265 88.675 254.733 88.666 255.048 88.558C255.363 88.459 255.462 88.261 255.462 87.865V85.93H258.954V85.291Z" fill="#242424"/>
<path d="M297.408 39H303.84V37.784H301.488V27.272H300.368C299.728 27.64 298.976 27.912 297.936 28.104V29.032H300.016V37.784H297.408V39ZM310.283 39.208C312.507 39.208 313.931 37.176 313.931 33.096C313.931 29.032 312.507 27.048 310.283 27.048C308.043 27.048 306.619 29.016 306.619 33.096C306.619 37.176 308.043 39.208 310.283 39.208ZM310.283 38.04C308.939 38.04 308.043 36.552 308.043 33.096C308.043 29.672 308.939 28.232 310.283 28.232C311.611 28.232 312.507 29.672 312.507 33.096C312.507 36.552 311.611 38.04 310.283 38.04Z" fill="#242424"/>
<path d="M297.012 60.519H298.013V58.495L297.991 57.45C298.53 57.89 299.102 58.143 299.641 58.143C301.016 58.143 302.237 56.966 302.237 54.92C302.237 53.083 301.401 51.873 299.861 51.873C299.168 51.873 298.497 52.269 297.958 52.709H297.925L297.837 52.027H297.012V60.519ZM299.476 57.307C299.08 57.307 298.552 57.142 298.013 56.68V53.545C298.596 53.006 299.113 52.72 299.619 52.72C300.752 52.72 301.192 53.611 301.192 54.931C301.192 56.416 300.466 57.307 299.476 57.307ZM303.442 58H304.498L305.301 56.603C305.51 56.24 305.708 55.877 305.917 55.536H305.972C306.192 55.877 306.412 56.24 306.61 56.603L307.49 58H308.59L306.621 54.986L308.436 52.027H307.391L306.654 53.347C306.478 53.677 306.302 54.007 306.115 54.337H306.071C305.873 54.007 305.664 53.677 305.477 53.347L304.674 52.027H303.596L305.411 54.887L303.442 58Z" fill="#242424" fill-opacity="0.5"/>
<path d="M298.862 82.051C298.583 81.673 297.962 81.088 297.485 80.665L297.044 81.07C297.521 81.511 298.115 82.132 298.394 82.528L298.862 82.051ZM298.412 86.857V83.284H296.441V83.932H297.746V86.911C297.746 87.307 297.413 87.613 297.224 87.739C297.359 87.874 297.539 88.171 297.611 88.333C297.737 88.171 297.989 87.964 299.663 86.731C299.591 86.596 299.483 86.335 299.429 86.137L298.412 86.857ZM300.113 82.87H303.155V84.499H300.113V82.87ZM302.984 87.937C302.768 87.937 302.732 87.901 302.732 87.667V85.102H303.821V82.267H302.894C303.146 81.799 303.407 81.223 303.641 80.701L302.948 80.476C302.777 81.016 302.453 81.754 302.183 82.267H300.671L301.247 82.015C301.112 81.601 300.761 80.962 300.401 80.494L299.834 80.728C300.185 81.205 300.518 81.853 300.653 82.267H299.465V85.102H300.599C300.491 86.56 300.185 87.622 298.691 88.189C298.835 88.297 299.015 88.54 299.096 88.702C300.761 88.018 301.13 86.812 301.265 85.102H302.075V87.676C302.075 88.36 302.237 88.567 302.894 88.567H303.785C304.361 88.567 304.532 88.261 304.595 87.1C304.406 87.055 304.145 86.947 304.001 86.839C303.983 87.793 303.938 87.937 303.722 87.937H302.984ZM308.384 81.637V83.338H306.917V81.637H308.384ZM306.917 85.732V83.95H308.384V85.732H306.917ZM309.014 86.353V81.025H306.287V87.181H306.917V86.353H309.014ZM310.697 85.21C310.742 84.805 310.751 84.409 310.751 84.04V83.635H313.127V85.21H310.697ZM313.127 81.484V83.023H310.751V81.484H313.127ZM313.784 80.854H310.094V84.04C310.094 85.426 309.941 87.127 308.51 88.297C308.654 88.378 308.915 88.612 309.005 88.738C309.968 87.955 310.418 86.884 310.607 85.822H313.127V87.811C313.127 87.964 313.064 88.018 312.911 88.027C312.749 88.027 312.182 88.036 311.615 88.018C311.714 88.198 311.822 88.486 311.849 88.675C312.614 88.675 313.109 88.657 313.406 88.549C313.685 88.432 313.784 88.234 313.784 87.811V80.854ZM320.282 81.799C320.156 81.421 319.85 80.845 319.58 80.422L318.887 80.62C319.157 81.061 319.445 81.664 319.553 82.033L320.282 81.799ZM321.461 82.708C321.011 83.923 320.408 84.913 319.607 85.723C318.761 84.877 318.113 83.851 317.645 82.708H321.461ZM323.63 82.708V82.051H315.566V82.708H316.952C317.474 84.067 318.185 85.237 319.112 86.191C318.131 87.019 316.925 87.631 315.44 88.054C315.575 88.207 315.773 88.513 315.854 88.675C317.348 88.198 318.59 87.55 319.598 86.668C320.597 87.568 321.821 88.225 323.288 88.639C323.396 88.45 323.585 88.171 323.747 88.018C322.316 87.667 321.101 87.028 320.111 86.191C321.011 85.264 321.704 84.13 322.217 82.708H323.63ZM326.024 82.051H332.18V83.248H332.864V81.412H329.687C329.561 81.106 329.318 80.71 329.084 80.404L328.445 80.62C328.616 80.854 328.787 81.151 328.913 81.412H325.367V83.248H326.024V82.051ZM332.954 85.291H329.462V84.958C330.245 84.544 331.046 83.941 331.613 83.365L331.154 83.014L331.01 83.05H326.735V83.68H330.335C329.885 84.076 329.291 84.481 328.769 84.733V85.291H325.259V85.93H328.769V87.856C328.769 87.982 328.724 88.018 328.553 88.027C328.4 88.036 327.824 88.036 327.212 88.018C327.329 88.189 327.464 88.486 327.518 88.675C328.265 88.675 328.733 88.666 329.048 88.558C329.363 88.459 329.462 88.261 329.462 87.865V85.93H332.954V85.291Z" fill="#242424"/>
</svg>
