<svg width="868" height="28" viewBox="0 0 868 28" fill="none" xmlns="http://www.w3.org/2000/svg">
<path fill-rule="evenodd" clip-rule="evenodd" d="M6.00051 13.0787L6.00002 23H9.36347V18.1724C9.36347 15.9063 11.427 14.6552 13.1816 14.6552H14.8179C16.5725 14.6552 18.636 15.9063 18.636 18.1724V23H21.9995V13.0792L13.9997 5.0408L6.00051 13.0787ZM13.895 4.93557L13.8954 4.93595L13.895 4.93557ZM22.2234 22.9948C22.2234 22.9948 22.2231 22.9949 22.2224 22.9952L22.2234 22.9948ZM18.4121 22.9948C18.4121 22.9948 18.4124 22.9949 18.4131 22.9952L18.4121 22.9948ZM9.58736 22.9948C9.58736 22.9948 9.58703 22.9949 9.58638 22.9952L9.58736 22.9948ZM5.77611 22.9948C5.77612 22.9948 5.77644 22.9949 5.77709 22.9952L5.77611 22.9948ZM12.6868 3.52478C13.3832 2.82507 14.6163 2.82507 15.3126 3.52478L23.5603 11.8123C23.8743 12.1279 24.0095 12.5002 23.9995 12.8621V23.4828C23.9995 24.3207 23.1855 25 22.1813 25H18.4541C17.45 25 16.636 24.3207 16.636 23.4828V18.1724C16.636 17.3345 15.822 16.6552 14.8179 16.6552H13.1816C12.1775 16.6552 11.3635 17.3345 11.3635 18.1724V23.4828C11.3635 24.3207 10.5495 25 9.54534 25H5.81813C4.81401 25 4 24.3207 4 23.4828L4.00052 12.8621C3.99045 12.5002 4.12518 12.1279 4.43918 11.8123L12.6868 3.52478Z" fill="#242424" fill-opacity="0.5"/>
<path fill-rule="evenodd" clip-rule="evenodd" d="M89.4545 9.45455C89.4545 12.467 87.0125 14.9091 84 14.9091C80.9875 14.9091 78.5455 12.467 78.5455 9.45455C78.5455 6.44208 80.9875 4 84 4C87.0125 4 89.4545 6.44208 89.4545 9.45455ZM87.4545 9.45455C87.4545 11.3624 85.9079 12.9091 84 12.9091C82.0921 12.9091 80.5455 11.3624 80.5455 9.45455C80.5455 7.54665 82.0921 6 84 6C85.9079 6 87.4545 7.54665 87.4545 9.45455Z" fill="#242424" fill-opacity="0.5"/>
<path fill-rule="evenodd" clip-rule="evenodd" d="M80.3636 17.1818C80.3636 18.9391 78.9391 20.3636 77.1818 20.3636C75.4245 20.3636 74 18.9391 74 17.1818C74 15.4245 75.4245 14 77.1818 14C78.9391 14 80.3636 15.4245 80.3636 17.1818ZM78.3636 17.1818C78.3636 17.8345 77.8345 18.3636 77.1818 18.3636C76.5291 18.3636 76 17.8345 76 17.1818C76 16.5291 76.5291 16 77.1818 16C77.8345 16 78.3636 16.5291 78.3636 17.1818Z" fill="#242424" fill-opacity="0.5"/>
<path fill-rule="evenodd" clip-rule="evenodd" d="M84 24C85.7573 24 87.1818 22.5755 87.1818 20.8182C87.1818 19.0609 85.7573 17.6364 84 17.6364C82.2427 17.6364 80.8182 19.0609 80.8182 20.8182C80.8182 22.5755 82.2427 24 84 24ZM84 22C84.6527 22 85.1818 21.4709 85.1818 20.8182C85.1818 20.1655 84.6527 19.6364 84 19.6364C83.3473 19.6364 82.8182 20.1655 82.8182 20.8182C82.8182 21.4709 83.3473 22 84 22Z" fill="#242424" fill-opacity="0.5"/>
<path fill-rule="evenodd" clip-rule="evenodd" d="M94 17.1818C94 18.9391 92.5755 20.3636 90.8182 20.3636C89.0609 20.3636 87.6364 18.9391 87.6364 17.1818C87.6364 15.4245 89.0609 14 90.8182 14C92.5755 14 94 15.4245 94 17.1818ZM92 17.1818C92 17.8345 91.4709 18.3636 90.8182 18.3636C90.1655 18.3636 89.6364 17.8345 89.6364 17.1818C89.6364 16.5291 90.1655 16 90.8182 16C91.4709 16 92 16.5291 92 17.1818Z" fill="#242424" fill-opacity="0.5"/>
<path fill-rule="evenodd" clip-rule="evenodd" d="M145.149 6.65944C147.464 4.44685 151.2 4.44685 153.515 6.65944C153.558 6.70064 153.622 6.72801 153.697 6.72801C153.773 6.72801 153.836 6.70064 153.88 6.65944C156.195 4.44685 159.931 4.44685 162.246 6.65944L163.516 7.87305C163.915 8.25462 163.93 8.88762 163.548 9.2869C163.167 9.68618 162.534 9.70054 162.134 9.31898L160.864 8.10537C159.322 6.63154 156.804 6.63154 155.261 8.10537C154.393 8.93555 153.002 8.93555 152.133 8.10537C150.591 6.63154 148.073 6.63154 146.53 8.10537L146.253 8.37085C144.582 9.96681 144.582 12.5348 146.253 14.1307L153.266 20.8327C153.499 21.0558 153.896 21.0558 154.129 20.8327L158.166 16.9751C158.565 16.5936 159.198 16.6079 159.579 17.0072C159.961 17.4065 159.947 18.0395 159.547 18.421L155.511 22.2786C154.504 23.2405 152.89 23.2405 151.884 22.2786L144.871 15.5766C142.376 13.193 142.376 9.30861 144.871 6.92492L145.149 6.65944ZM156.499 9.87172C156.765 9.87805 157.017 9.98975 157.2 10.1822L160.478 13.6278L161.737 12.424C161.923 12.2462 162.171 12.147 162.428 12.147H166C166.552 12.147 167 12.5947 167 13.147C167 13.6992 166.552 14.147 166 14.147H162.829L161.135 15.7662C160.943 15.9497 160.686 16.0493 160.42 16.0429C160.155 16.0366 159.902 15.9249 159.719 15.7325L156.442 12.2869L154.785 13.8699C154.599 14.0477 154.352 14.147 154.094 14.147H150.919C150.367 14.147 149.919 13.6992 149.919 13.147C149.919 12.5947 150.367 12.147 150.919 12.147H153.693L155.784 10.1485C155.976 9.96497 156.234 9.8654 156.499 9.87172Z" fill="#242424" fill-opacity="0.5"/>
<path fill-rule="evenodd" clip-rule="evenodd" d="M213.5 7C213.5 8.37677 214.427 9.53693 215.692 9.88983C214.932 11.2551 214.5 12.827 214.5 14.5C214.5 19.7467 218.753 24 224 24C229.247 24 233.5 19.7467 233.5 14.5C233.5 12.827 233.068 11.2551 232.308 9.88982C233.573 9.53693 234.5 8.37677 234.5 7C234.5 5.34315 233.157 4 231.5 4C230.123 4 228.963 4.92742 228.61 6.19162C227.245 5.43243 225.673 5 224 5C222.327 5 220.755 5.43243 219.39 6.19162C219.037 4.92742 217.877 4 216.5 4C214.843 4 213.5 5.34315 213.5 7ZM224 22C228.142 22 231.5 18.6421 231.5 14.5C231.5 10.3579 228.142 7 224 7C219.858 7 216.5 10.3579 216.5 14.5C216.5 18.6421 219.858 22 224 22Z" fill="#242424" fill-opacity="0.5"/>
<path fill-rule="evenodd" clip-rule="evenodd" d="M294 5.5C291.791 5.5 290 7.29086 290 9.5C290 11.7091 291.791 13.5 294 13.5C296.209 13.5 298 11.7091 298 9.5C298 7.29086 296.209 5.5 294 5.5ZM297.714 14.2125C299.106 13.1137 300 11.4112 300 9.5C300 6.18629 297.314 3.5 294 3.5C290.686 3.5 288 6.18629 288 9.5C288 11.4112 288.894 13.1137 290.286 14.2125C286.602 15.687 284 19.2896 284 23.5C284 24.0523 284.448 24.5 285 24.5C285.552 24.5 286 24.0523 286 23.5C286 19.0817 289.582 15.5 294 15.5C298.418 15.5 302 19.0817 302 23.5C302 24.0523 302.448 24.5 303 24.5C303.552 24.5 304 24.0523 304 23.5C304 19.2896 301.398 15.687 297.714 14.2125Z" fill="#242424" fill-opacity="0.5"/>
<path fill-rule="evenodd" clip-rule="evenodd" d="M565.833 5.83312V11.2776H571.278V5.83312H565.833ZM565.444 3.88867C564.585 3.88867 563.889 4.58512 563.889 5.44423V11.6664C563.889 12.5256 564.585 13.222 565.444 13.222H571.666C572.526 13.222 573.222 12.5256 573.222 11.6664V5.44423C573.222 4.58512 572.526 3.88867 571.666 3.88867H565.444Z" fill="#242424" fill-opacity="0.5"/>
<path fill-rule="evenodd" clip-rule="evenodd" d="M576.722 5.83312V11.2776H582.166V5.83312H576.722ZM576.333 3.88867C575.474 3.88867 574.777 4.58512 574.777 5.44423V11.6664C574.777 12.5256 575.474 13.222 576.333 13.222H582.555C583.414 13.222 584.111 12.5256 584.111 11.6664V5.44423C584.111 4.58512 583.414 3.88867 582.555 3.88867H576.333Z" fill="#242424" fill-opacity="0.5"/>
<path fill-rule="evenodd" clip-rule="evenodd" d="M576.722 16.7218V22.1662H582.166V16.7218H576.722ZM576.333 14.7773C575.474 14.7773 574.777 15.4738 574.777 16.3329V22.5551C574.777 23.4142 575.474 24.1107 576.333 24.1107H582.555C583.414 24.1107 584.111 23.4142 584.111 22.5551V16.3329C584.111 15.4738 583.414 14.7773 582.555 14.7773H576.333Z" fill="#242424" fill-opacity="0.5"/>
<path fill-rule="evenodd" clip-rule="evenodd" d="M565.833 16.7218V22.1662H571.278V16.7218H565.833ZM565.444 14.7773C564.585 14.7773 563.889 15.4738 563.889 16.3329V22.5551C563.889 23.4142 564.585 24.1107 565.444 24.1107H571.666C572.526 24.1107 573.222 23.4142 573.222 22.5551V16.3329C573.222 15.4738 572.526 14.7773 571.666 14.7773H565.444Z" fill="#242424" fill-opacity="0.5"/>
<path fill-rule="evenodd" clip-rule="evenodd" d="M369.326 3.24228C369.72 2.87809 369.745 2.263 369.381 1.86845C369.017 1.4739 368.402 1.4493 368.007 1.8135L363.611 5.87145L360.77 3.2494C360.376 2.8852 359.761 2.9098 359.397 3.30435C359.032 3.6989 359.057 4.31398 359.451 4.67818L361.335 6.41699H356.222C354.074 6.41699 352.333 8.08241 352.333 10.1368V19.8083C352.333 21.8627 354.074 23.5281 356.222 23.5281H356.417V25.0829C356.417 25.6198 356.852 26.0551 357.389 26.0551C357.926 26.0551 358.361 25.6198 358.361 25.0829V23.5281H369.639V25.0829C369.639 25.6198 370.074 26.0551 370.611 26.0551C371.148 26.0551 371.583 25.6198 371.583 25.0829V23.5281H371.777C373.925 23.5281 375.666 21.8627 375.666 19.8083V10.1368C375.666 8.08241 373.925 6.41699 371.777 6.41699H365.887L369.326 3.24228ZM371.777 8.36144H356.222C355.066 8.36144 354.277 9.23685 354.277 10.1368V19.8083C354.277 20.7082 355.066 21.5837 356.222 21.5837H371.777C372.934 21.5837 373.722 20.7082 373.722 19.8083V10.1368C373.722 9.23685 372.934 8.36144 371.777 8.36144ZM361.083 16.5279C361.083 15.9909 360.648 15.5557 360.111 15.5557C359.574 15.5557 359.139 15.9909 359.139 16.5279V18.0834C359.139 18.6204 359.574 19.0557 360.111 19.0557C360.648 19.0557 361.083 18.6204 361.083 18.0834V16.5279ZM364 11.667C364.537 11.667 364.972 12.1023 364.972 12.6392V18.0837C364.972 18.6206 364.537 19.0559 364 19.0559C363.463 19.0559 363.027 18.6206 363.027 18.0837V12.6392C363.027 12.1023 363.463 11.667 364 11.667ZM368.861 14.1949C368.861 13.6579 368.426 13.2227 367.889 13.2227C367.352 13.2227 366.917 13.6579 366.917 14.1949V18.0838C366.917 18.6207 367.352 19.056 367.889 19.056C368.426 19.056 368.861 18.6207 368.861 18.0838V14.1949Z" fill="#242424" fill-opacity="0.5"/>
<path fill-rule="evenodd" clip-rule="evenodd" d="M514.792 22.1654L514.82 22.1662L514.828 22.1664C514.879 22.0943 514.982 21.9113 515.077 21.53C515.322 20.5466 515.339 18.9956 515.146 17.0429C514.717 13.2854 514.145 10.3416 513.206 8.36928C512.748 7.40725 512.253 6.78698 511.746 6.40823C511.269 6.05114 510.683 5.83312 509.867 5.83312C508.9 5.83312 508.169 6.00042 507.337 6.22826C507.234 6.2565 507.127 6.28639 507.016 6.3173C506.245 6.53314 505.294 6.7991 504.154 6.90405L503.978 6.92023L503.803 6.90449C502.62 6.79862 501.661 6.52837 500.885 6.30977L500.885 6.30976L500.885 6.30975C500.784 6.2811 500.685 6.25334 500.59 6.22695C499.766 5.99928 499.053 5.83312 498.089 5.83312C497.273 5.83312 496.687 6.05131 496.211 6.40726C495.707 6.78455 495.214 7.40183 494.762 8.3576C493.832 10.3197 493.276 13.2487 492.881 16.9741L492.88 16.9837L492.878 16.9932C492.653 18.9312 492.672 20.4743 492.926 21.4515C493.05 21.9283 493.19 22.1094 493.234 22.1533L493.239 22.1582C493.251 22.161 493.279 22.1654 493.326 22.1654C493.868 22.1654 494.173 22.0486 494.383 21.9243C494.622 21.7826 494.864 21.5551 495.188 21.1478C495.337 20.9597 495.483 20.7618 495.657 20.5253L495.708 20.4554C495.896 20.1999 496.114 19.905 496.355 19.6107C496.845 19.0144 497.476 18.3613 498.35 17.8379L498.41 17.8018L498.473 17.7702C499.246 17.3801 500.27 17.1823 501.132 17.0627C502.06 16.934 503.071 16.8633 503.967 16.8278L504.044 16.8247L504.121 16.8278C505.018 16.8633 506.03 16.934 506.958 17.0627C507.821 17.1822 508.845 17.38 509.618 17.7702L509.681 17.8019L509.742 17.8381C510.615 18.3615 511.246 19.0147 511.735 19.611C511.976 19.9052 512.195 20.2001 512.382 20.4555L512.433 20.5246L512.433 20.5247L512.433 20.5248C512.607 20.7615 512.753 20.9596 512.902 21.1478C513.226 21.5549 513.468 21.7825 513.707 21.9242C513.917 22.0485 514.223 22.1654 514.765 22.1654H514.792ZM493.231 22.156L493.233 22.1566C493.231 22.1562 493.231 22.156 493.231 22.156ZM517.08 16.837C516.218 9.29277 514.697 3.88867 509.867 3.88867C508.487 3.88867 507.485 4.16789 506.482 4.44748C505.706 4.66367 504.929 4.88008 503.976 4.96779C502.984 4.87897 502.197 4.65818 501.417 4.43928C500.431 4.16246 499.456 3.88867 498.089 3.88867C493.259 3.88867 491.74 9.29277 490.947 16.7689C490.482 20.7725 490.879 24.1099 493.326 24.1099C495.436 24.1099 496.302 22.9309 497.221 21.6805C497.8 20.8912 498.401 20.0736 499.349 19.5061C500.274 19.0389 502.325 18.8388 504.044 18.7707C505.765 18.8388 507.817 19.0389 508.742 19.5061C509.689 20.0734 510.289 20.8907 510.869 21.6798C511.787 22.9304 512.654 24.1099 514.765 24.1099C517.146 24.178 517.476 20.8406 517.08 16.837ZM499.333 12.8331C499.977 12.8331 500.5 12.3108 500.5 11.6664C500.5 11.0221 499.977 10.4998 499.333 10.4998C498.689 10.4998 498.166 11.0221 498.166 11.6664C498.166 12.3108 498.689 12.8331 499.333 12.8331ZM499.333 14.7776C501.051 14.7776 502.444 13.3847 502.444 11.6664C502.444 9.94823 501.051 8.55534 499.333 8.55534C497.615 8.55534 496.222 9.94823 496.222 11.6664C496.222 13.3847 497.615 14.7776 499.333 14.7776ZM510.027 9.722C510.027 9.18506 509.592 8.74978 509.055 8.74978C508.518 8.74978 508.083 9.18506 508.083 9.722V10.6942H507.111C506.574 10.6942 506.138 11.1295 506.138 11.6664C506.138 12.2034 506.574 12.6387 507.111 12.6387H508.083V13.6109C508.083 14.1478 508.518 14.5831 509.055 14.5831C509.592 14.5831 510.027 14.1478 510.027 13.6109V12.6387H511C511.537 12.6387 511.972 12.2034 511.972 11.6664C511.972 11.1295 511.537 10.6942 511 10.6942H510.027V9.722Z" fill="#242424" fill-opacity="0.5"/>
<path fill-rule="evenodd" clip-rule="evenodd" d="M434.486 4.27747C433.175 4.27471 431.875 4.53382 430.664 5.03981L430.662 5.04058C429.499 5.52515 428.44 6.23105 427.544 7.11957L427.54 7.1229C426.631 8.02014 425.908 9.09022 425.415 10.2709C424.921 11.4516 424.667 12.7192 424.667 13.9997C424.667 15.2802 424.921 16.5477 425.415 17.7284C425.908 18.9091 426.631 19.9792 427.54 20.8764L427.544 20.8798C428.44 21.7683 429.499 22.4742 430.662 22.9588L430.664 22.9595C431.875 23.4655 433.175 23.7246 434.486 23.7219L434.491 23.7219C435.252 23.7221 436.011 23.6356 436.752 23.4639C438.808 22.9888 440.656 21.8626 442.023 20.2545L437.425 15.636L443.275 9.64347C442.484 8.08169 441.288 6.76174 439.812 5.82318L439.811 5.82265C438.221 4.81026 436.376 4.27399 434.494 4.27747L434.486 4.27747ZM442.204 20.4355C442.204 20.4355 442.204 20.4354 442.204 20.4355V20.4355ZM442.204 20.4355C442.204 20.4355 442.204 20.4354 442.204 20.4355V20.4355ZM443.582 19.0635L440.155 15.6225L444.806 10.8591C445.044 10.6152 445.201 10.3037 445.256 9.967C445.311 9.63025 445.262 9.28461 445.114 8.97711C444.168 7.01183 442.693 5.35102 440.855 4.18236C438.953 2.97115 436.744 2.32886 434.49 2.33303C432.92 2.32973 431.364 2.63996 429.915 3.24564C428.519 3.8269 427.249 4.67347 426.175 5.73864C425.081 6.81709 424.213 8.10293 423.621 9.52122C423.028 10.9395 422.723 12.4619 422.723 13.9997C422.723 15.5374 423.028 17.0598 423.621 18.4781C424.213 19.8964 425.081 21.1823 426.175 22.2607C427.249 23.3259 428.519 24.1725 429.915 24.7537C431.364 25.3594 432.92 25.6696 434.49 25.6663C435.399 25.6666 436.305 25.5633 437.191 25.3583C439.753 24.7662 442.044 23.3309 443.697 21.2814C443.955 20.9626 444.085 20.5596 444.064 20.1502C444.042 19.7407 443.871 19.3536 443.582 19.0635Z" fill="#242424" fill-opacity="0.5"/>
<path d="M435.556 10.1107C435.556 11.3993 434.512 12.444 433.223 12.444C431.934 12.444 430.89 11.3993 430.89 10.1107C430.89 8.82201 431.934 7.77734 433.223 7.77734C434.512 7.77734 435.556 8.82201 435.556 10.1107Z" fill="#242424" fill-opacity="0.5"/>
<path fill-rule="evenodd" clip-rule="evenodd" d="M647.909 4.89632L643.029 7.55431C642.757 7.70236 642.442 7.75218 642.138 7.69537L636.676 6.6755L637.695 12.1381C637.752 12.4424 637.702 12.7569 637.554 13.0287L634.896 17.9088L640.407 18.6269C640.714 18.6669 640.997 18.8115 641.21 19.0363L645.03 23.0722L647.416 18.0534C647.549 17.7739 647.774 17.5487 648.053 17.4158L653.072 15.03L649.036 11.2102C648.811 10.9974 648.667 10.7136 648.627 10.4067L647.909 4.89632ZM647.418 3.41516C648.248 2.9629 649.274 3.48546 649.396 4.42306L650.141 10.1413L654.329 14.1052C655.016 14.7552 654.836 15.892 653.982 16.298L648.774 18.7737L646.298 23.9818C645.892 24.8358 644.755 25.0158 644.105 24.3291L640.141 20.1409L634.423 19.3958C633.485 19.2736 632.963 18.248 633.415 17.4177L636.173 12.3535L635.115 6.6849C634.942 5.75543 635.755 4.94154 636.685 5.11507L642.354 6.17341L647.418 3.41516Z" fill="#242424" fill-opacity="0.5"/>
<path fill-rule="evenodd" clip-rule="evenodd" d="M649.505 19.5046C649.805 19.2048 650.291 19.2048 650.591 19.5046L654.058 22.972C654.358 23.2718 654.358 23.758 654.058 24.0578C653.758 24.3577 653.272 24.3577 652.972 24.0578L649.505 20.5905C649.205 20.2907 649.205 19.8045 649.505 19.5046Z" fill="#242424" fill-opacity="0.5"/>
<path fill-rule="evenodd" clip-rule="evenodd" d="M644.176 9.68062C644.475 9.38076 644.962 9.38076 645.261 9.68062L646.079 10.4979C646.379 10.7977 646.379 11.2839 646.079 11.5837C645.779 11.8836 645.293 11.8836 644.993 11.5837L644.176 10.7665C643.876 10.4666 643.876 9.98047 644.176 9.68062ZM646.01 12.523C646.426 12.4399 646.831 12.7095 646.914 13.1254C647.062 13.8659 646.808 15.044 645.938 15.9137C645.069 16.7835 643.891 17.0373 643.15 16.8892C642.734 16.8061 642.465 16.4015 642.548 15.9857C642.631 15.5699 643.035 15.3002 643.451 15.3834C643.674 15.4279 644.335 15.3451 644.853 14.8279C645.37 14.3107 645.453 13.6492 645.408 13.4265C645.325 13.0107 645.595 12.6062 646.01 12.523ZM639.681 14.1756C639.98 13.8758 640.467 13.8758 640.766 14.1756L641.584 14.9929C641.884 15.2927 641.884 15.7789 641.584 16.0787C641.284 16.3786 640.798 16.3786 640.498 16.0787L639.681 15.2615C639.381 14.9616 639.381 14.4755 639.681 14.1756Z" fill="#242424" fill-opacity="0.5"/>
<path fill-rule="evenodd" clip-rule="evenodd" d="M778.07 16.3548H777.286C775.409 16.3548 773.801 15.0125 773.466 13.1657L773.188 11.6386C772.822 9.62472 774.081 7.67232 776.067 7.17587L776.611 7.03983C776.59 4.91867 778.306 3.125 780.494 3.125H787.264C789.426 3.125 791.135 4.87961 791.147 6.97923L791.933 7.17587C793.919 7.67232 795.178 9.62472 794.812 11.6386L794.534 13.1657C794.199 15.0125 792.591 16.3548 790.714 16.3548H789.845C789.07 18.3581 787.154 19.7602 784.934 19.8237V23.3214H788.574C789.003 23.3214 789.351 23.6692 789.351 24.0982C789.351 24.5272 789.003 24.875 788.574 24.875H779.741C779.312 24.875 778.964 24.5272 778.964 24.0982C778.964 23.6692 779.312 23.3214 779.741 23.3214H783.381V19.8259H783.139C780.856 19.8259 778.866 18.4086 778.07 16.3548ZM776.801 8.59357L776.443 8.68305C775.252 8.98092 774.497 10.1524 774.716 11.3607L774.994 12.8878C775.195 13.9958 776.16 14.8013 777.286 14.8013H777.706L776.801 8.59357ZM790.203 14.8013L790.986 8.5402L791.557 8.68305C792.748 8.98092 793.503 10.1524 793.284 11.3607L793.006 12.8878C792.805 13.9958 791.84 14.8013 790.714 14.8013H790.203ZM778.189 7.34521C777.984 5.93921 779.073 4.67857 780.494 4.67857H787.264C788.665 4.67857 789.749 5.90709 789.576 7.29797L788.629 14.8702C788.386 16.8138 786.735 18.2724 784.777 18.2724H783.139C781.211 18.2724 779.575 16.8573 779.297 14.9489L778.189 7.34521Z" fill="#242424" fill-opacity="0.5"/>
<path d="M714.001 15.0634C713.527 15.0634 713.186 15.1886 712.965 15.3274C712.754 15.4593 712.734 15.733 712.878 15.9361C712.976 16.0746 713.107 16.2331 713.268 16.3661V17.1884C713.268 17.5931 713.597 17.9211 714.001 17.9211C714.406 17.9211 714.734 17.5931 714.734 17.1884V16.3657C714.842 16.2767 714.936 16.1763 715.016 16.0782C715.23 15.8158 715.165 15.4116 714.865 15.2542C714.662 15.1475 714.389 15.0634 714.001 15.0634Z" fill="#242424" fill-opacity="0.5"/>
<path fill-rule="evenodd" clip-rule="evenodd" d="M714 13.2682C711.24 13.2682 709.549 14.9439 709.549 16.7138C709.549 17.868 709.994 18.8619 710.817 19.5555C711.627 20.2378 712.739 20.5769 714 20.5769C716.594 20.5769 718.452 18.8667 718.452 16.7138C718.452 14.9439 716.761 13.2682 714 13.2682ZM711.015 16.7138C711.015 15.9795 711.803 14.7336 714 14.7336C716.198 14.7336 716.986 15.9795 716.986 16.7138C716.986 17.9 715.952 19.1115 714 19.1115C712.989 19.1115 712.242 18.8402 711.761 18.4348C711.293 18.0405 711.015 17.4692 711.015 16.7138Z" fill="#242424" fill-opacity="0.5"/>
<path d="M706.362 12.9383C706.362 12.5336 706.69 12.2056 707.095 12.2056H710.282C710.687 12.2056 711.015 12.5336 711.015 12.9383C711.015 13.343 710.687 13.671 710.282 13.671H709.421V14.0007C709.421 14.4054 709.093 14.7334 708.689 14.7334C708.284 14.7334 707.956 14.4054 707.956 14.0007V13.671H707.095C706.69 13.671 706.362 13.343 706.362 12.9383Z" fill="#242424" fill-opacity="0.5"/>
<path d="M717.719 12.2056C717.314 12.2056 716.986 12.5336 716.986 12.9383C716.986 13.343 717.314 13.671 717.719 13.671H718.58V14.0007C718.58 14.4054 718.908 14.7334 719.313 14.7334C719.717 14.7334 720.045 14.4054 720.045 14.0007V13.671H720.906C721.311 13.671 721.639 13.343 721.639 12.9383C721.639 12.5336 721.311 12.2056 720.906 12.2056H717.719Z" fill="#242424" fill-opacity="0.5"/>
<path fill-rule="evenodd" clip-rule="evenodd" d="M725.357 15.2548C725.357 14.337 725.107 12.0698 723.836 9.86915C724.261 9.0866 724.372 8.07851 724.246 7.16946C724.101 6.11871 723.611 4.98942 722.644 4.36468C720.706 3.11298 718.581 3.78504 717.532 5.19123C716.468 4.92143 715.265 4.76908 713.908 4.76908C712.435 4.76908 711.147 4.9674 710.023 5.31079C709.006 3.82336 706.819 3.07826 704.828 4.36494C703.741 5.06699 703.252 6.40503 703.184 7.58359C703.128 8.54333 703.342 9.65103 703.988 10.3821C702.877 12.5245 702.644 14.605 702.644 15.2548C702.644 15.9443 702.741 18.2046 704.234 20.3072C705.759 22.4556 708.637 24.2957 713.908 24.2957C719.33 24.2957 722.265 22.6135 723.806 20.5205C725.317 18.4679 725.357 16.1828 725.357 15.2548ZM722.794 8.38513C721.881 7.31021 720.665 6.35256 719.06 5.69324C719.746 5.12064 720.816 4.92846 721.848 5.59561C722.329 5.90616 722.683 6.56306 722.795 7.36989C722.844 7.72821 722.84 8.07478 722.794 8.38513ZM704.647 7.66836C704.616 8.20243 704.698 8.65764 704.84 8.99655C705.721 7.77825 706.936 6.64797 708.592 5.86323C707.925 5.16485 706.752 4.86644 705.623 5.59575C705.078 5.94823 704.7 6.74632 704.647 7.66836ZM705.726 10.2983C704.363 12.4353 704.109 14.7285 704.109 15.2548C704.109 15.8296 704.196 17.7234 705.429 19.4588C706.629 21.1484 709.017 22.8303 713.908 22.8303C719.018 22.8303 721.441 21.2614 722.626 19.6518C723.84 18.0019 723.892 16.133 723.892 15.2548C723.892 14.4468 723.634 12.1644 722.26 10.108C720.919 8.10127 718.47 6.23449 713.908 6.23449C709.466 6.23449 707.057 8.21262 705.726 10.2983Z" fill="#242424" fill-opacity="0.5"/>
<path fill-rule="evenodd" clip-rule="evenodd" d="M846.5 17.2353C846.5 12.947 849.858 9.47059 854 9.47059C858.142 9.47059 861.5 12.947 861.5 17.2353C861.5 21.5236 858.142 25 854 25C849.858 25 846.5 21.5236 846.5 17.2353ZM848.038 17.2353C848.038 13.8266 850.708 11.0633 854 11.0633C857.292 11.0633 859.962 13.8266 859.962 17.2353C859.962 20.644 857.292 23.4072 854 23.4072C850.708 23.4072 848.038 20.644 848.038 17.2353Z" fill="#242424" fill-opacity="0.5"/>
<path fill-rule="evenodd" clip-rule="evenodd" d="M859 8.17647C859 6.74703 860.119 5.58824 861.5 5.58824C862.881 5.58824 864 6.74703 864 8.17647C864 9.60591 862.881 10.7647 861.5 10.7647C860.119 10.7647 859 9.60591 859 8.17647ZM860.538 8.17647C860.538 7.62669 860.969 7.181 861.5 7.181C862.031 7.181 862.462 7.62669 862.462 8.17647C862.462 8.72626 862.031 9.17195 861.5 9.17195C860.969 9.17195 860.538 8.72626 860.538 8.17647Z" fill="#242424" fill-opacity="0.5"/>
<path fill-rule="evenodd" clip-rule="evenodd" d="M854 3C852.619 3 851.5 4.15879 851.5 5.58824C851.5 7.01768 852.619 8.17647 854 8.17647C855.381 8.17647 856.5 7.01768 856.5 5.58824C856.5 4.15879 855.381 3 854 3ZM854 4.59276C853.469 4.59276 853.038 5.03845 853.038 5.58824C853.038 6.13802 853.469 6.58371 854 6.58371C854.531 6.58371 854.962 6.13802 854.962 5.58824C854.962 5.03845 854.531 4.59276 854 4.59276Z" fill="#242424" fill-opacity="0.5"/>
<path fill-rule="evenodd" clip-rule="evenodd" d="M844 8.17647C844 6.74703 845.119 5.58824 846.5 5.58824C847.881 5.58824 849 6.74703 849 8.17647C849 9.60592 847.881 10.7647 846.5 10.7647C845.119 10.7647 844 9.60591 844 8.17647ZM845.538 8.17647C845.538 7.62669 845.969 7.181 846.5 7.181C847.031 7.181 847.462 7.62669 847.462 8.17647C847.462 8.72626 847.031 9.17195 846.5 9.17195C845.969 9.17195 845.538 8.72626 845.538 8.17647Z" fill="#242424" fill-opacity="0.5"/>
</svg>
