<svg width="216" height="104" viewBox="0 0 216 104" fill="none" xmlns="http://www.w3.org/2000/svg">
<path opacity="0.2" d="M15.36 39.0371H24.576V33.8531H39.104V39.0371H48.384V33.8531H60.48V25.5971H48.384V21.1811H39.104V25.5971H24.576V21.1811H15.36V25.5971H3.392V33.8531H15.36V39.0371ZM17.728 56.5731V49.9811H26.88V55.6131V56.5731H17.728ZM46.208 49.9811V56.5731H36.672V55.7411V49.9811H46.208ZM61.056 65.1491V56.5731H55.68V41.9811H36.672V36.0931H26.88V41.9811H8.768V56.5731H2.816V65.1491H23.68C20.352 69.0531 13.76 72.1891 1.344 74.2371C3.456 76.2851 6.08 80.0611 7.168 82.1091C20.544 79.3571 28.288 74.8771 32.512 69.3731C37.952 76.2851 45.568 80.3171 57.088 82.1091C58.304 79.4851 60.864 75.5811 62.848 73.5331C52.352 72.5731 44.8 69.8851 39.936 65.1491H61.056Z" fill="#7152E1"/>
<path d="M179.713 9.62134C199.54 15.3813 213.998 33.3099 213.998 54.5347C213.998 58.9644 213.368 63.2506 212.191 67.3125M152.285 9.62134C132.458 15.3813 118 33.3099 118 54.5347C118 58.9644 118.63 63.2506 119.807 67.3125M193.427 92.9903C185.652 98.2839 176.197 101.388 165.999 101.388C155.801 101.388 146.346 98.2839 138.571 92.9903" stroke="#7152E1" stroke-width="4" stroke-linecap="round" stroke-linejoin="round"/>
<path d="M166.417 1.72705C169.176 1.72705 171.413 3.87448 171.413 6.52301C171.413 9.17222 169.176 11.3197 166.417 11.3197C163.659 11.3197 161.422 9.17222 161.422 6.52301C161.422 3.8738 163.659 1.72705 166.417 1.72705ZM166.417 1.72705C169.176 1.72705 171.413 3.87448 171.413 6.52301C171.413 9.17222 169.176 11.3197 166.417 11.3197C163.659 11.3197 161.422 9.17222 161.422 6.52301C161.422 3.8738 163.659 1.72705 166.417 1.72705ZM164.544 12.9188H168.708C172.272 12.9188 175.16 15.6919 175.16 19.1139V19.513C175.16 20.8616 172.271 20.9129 168.708 20.9129H164.544C160.98 20.9129 158.092 20.9109 158.092 19.513V19.1139C158.092 15.6919 160.98 12.9188 164.544 12.9188Z" fill="#7152E1"/>
<path d="M129.013 68.6606C131.772 68.6606 134.008 70.8081 134.008 73.4566C134.008 76.1058 131.772 78.2532 129.013 78.2532C126.254 78.2532 124.018 76.1058 124.018 73.4566C124.018 70.8074 126.255 68.6606 129.013 68.6606ZM129.013 68.6606C131.772 68.6606 134.008 70.8081 134.008 73.4566C134.008 76.1058 131.772 78.2532 129.013 78.2532C126.254 78.2532 124.018 76.1058 124.018 73.4566C124.018 70.8074 126.255 68.6606 129.013 68.6606ZM127.14 79.8524H131.303C134.867 79.8524 137.756 82.6255 137.756 86.0475V86.4466C137.756 87.7952 134.867 87.8465 131.303 87.8465H127.14C123.576 87.8465 120.688 87.8445 120.688 86.4466V86.0475C120.688 82.6255 123.576 79.8524 127.14 79.8524Z" fill="#7152E1"/>
<path d="M202.574 68.6606C205.332 68.6606 207.569 70.8081 207.569 73.4566C207.569 76.1058 205.332 78.2532 202.574 78.2532C199.815 78.2532 197.578 76.1058 197.578 73.4566C197.578 70.8074 199.816 68.6606 202.574 68.6606ZM202.574 68.6606C205.332 68.6606 207.569 70.8081 207.569 73.4566C207.569 76.1058 205.332 78.2532 202.574 78.2532C199.815 78.2532 197.578 76.1058 197.578 73.4566C197.578 70.8074 199.816 68.6606 202.574 68.6606ZM200.701 79.8524H204.864C208.428 79.8524 211.317 82.6255 211.317 86.0475V86.4466C211.317 87.7952 208.427 87.8465 204.864 87.8465H200.701C197.137 87.8465 194.248 87.8445 194.248 86.4466V86.0475C194.248 82.6255 197.137 79.8524 200.701 79.8524Z" fill="#7152E1"/>
<path opacity="0.6" d="M165.716 40.551C169.471 40.551 172.515 43.4739 172.515 47.0789C172.515 50.6847 169.471 53.6076 165.716 53.6076C161.961 53.6076 158.917 50.6847 158.917 47.0789C158.917 43.473 161.962 40.551 165.716 40.551ZM165.716 40.551C169.471 40.551 172.515 43.4739 172.515 47.0789C172.515 50.6847 169.471 53.6076 165.716 53.6076C161.961 53.6076 158.917 50.6847 158.917 47.0789C158.917 43.473 161.962 40.551 165.716 40.551ZM163.166 55.7842H168.833C173.684 55.7842 177.616 59.5587 177.616 64.2165V64.7597C177.616 66.5953 173.683 66.6651 168.833 66.6651H163.166C158.315 66.6651 154.384 66.6624 154.384 64.7597V64.2165C154.384 59.5587 158.315 55.7842 163.166 55.7842Z" fill="#7152E1"/>
</svg>
