<svg width="216" height="104" viewBox="0 0 216 104" fill="none" xmlns="http://www.w3.org/2000/svg">
<path opacity="0.2" d="M188.8 54.2217V42.2537H201.152V54.2217H188.8ZM166.656 54.2217V42.2537H178.944V54.2217H166.656ZM188.8 33.1017V22.1577H178.944V33.1017H157.312V66.7017H166.656V63.3737H178.944V82.9577H188.8V63.3737H201.152V66.3817H210.944V33.1017H188.8Z" fill="#EFB924"/>
<g clip-path="url(#clip0_1510_5127)">
<path d="M64.0815 55.0654C64.9583 54.614 65.7604 54.0361 66.4608 53.3514C70.3148 49.5893 70.3148 43.49 66.4608 39.7283C62.6068 35.9667 56.3584 35.9663 52.5048 39.7283C51.8033 40.412 51.2113 41.195 50.7489 42.0508L64.0815 55.0654ZM33.3333 67.5076C33.3333 67.5076 33.0251 67.7375 32.8841 67.8752C32.2644 68.4798 31.9162 69.2999 31.916 70.1551C31.9158 71.0103 32.2636 71.8305 32.883 72.4354C33.5024 73.0402 34.3425 73.3802 35.2186 73.3804C36.0947 73.3806 36.935 73.041 37.5547 72.4364C37.6957 72.2988 37.9316 71.9975 37.9316 71.9975C37.9316 71.9975 37.2587 71.5391 37.0532 71.3657C36.2205 70.6676 34.6505 69.1588 33.9484 68.3349C33.7799 68.139 33.3333 67.5076 33.3333 67.5076Z" fill="#F7CD58"/>
<path d="M49.9303 44.2315L61.7978 55.8159C62.8286 56.8222 62.8286 57.8285 61.7978 58.8348C60.7669 59.8411 59.736 59.8411 58.7051 58.8348L46.8376 47.2504C45.8067 46.2441 45.8067 45.2378 46.8376 44.2315C47.8685 43.2252 48.8994 43.2252 49.9303 44.2315Z" fill="#F7CD58"/>
<path d="M46.4763 49.9644C45.1056 51.5802 38.0845 59.8789 35.6931 62.9296C34.6484 64.2608 34.5731 65.9507 35.7366 67.0864L38.3831 69.6698C39.547 70.8059 41.3239 70.7358 42.6415 69.7123C45.7211 67.3209 54.2582 60.5124 55.9223 59.185L46.4763 49.9644ZM44.2624 62.8723L44.259 62.8757C44.1564 62.9758 44.0347 63.0552 43.9008 63.1093C43.7668 63.1635 43.6233 63.1914 43.4783 63.1914C43.3333 63.1914 43.1897 63.1635 43.0558 63.1093C42.9218 63.0552 42.8001 62.9758 42.6976 62.8757C42.5951 62.7756 42.5137 62.6568 42.4582 62.5261C42.4027 62.3953 42.3742 62.2552 42.3742 62.1136C42.3742 61.9721 42.4027 61.832 42.4582 61.7012C42.5137 61.5704 42.5951 61.4516 42.6976 61.3516L42.7011 61.3482C42.8036 61.2481 42.9253 61.1687 43.0592 61.1145C43.1932 61.0603 43.3368 61.0325 43.4818 61.0325C43.6268 61.0325 43.7703 61.0603 43.9043 61.1145C44.0382 61.1687 44.1599 61.2481 44.2624 61.3482C44.365 61.4482 44.4463 61.567 44.5018 61.6978C44.5573 61.8286 44.5859 61.9687 44.5859 62.1102C44.5859 62.2518 44.5573 62.3919 44.5018 62.5227C44.4463 62.6534 44.365 62.7722 44.2624 62.8723ZM47.3307 59.8772C47.2282 59.9773 47.1065 60.0567 46.9726 60.1109C46.8386 60.165 46.695 60.1929 46.5501 60.1929C46.4051 60.1929 46.2615 60.165 46.1275 60.1109C45.9936 60.0567 45.8719 59.9773 45.7694 59.8772C45.6668 59.7771 45.5855 59.6583 45.53 59.5276C45.4745 59.3968 45.4459 59.2567 45.4459 59.1151C45.4459 58.9736 45.4745 58.8335 45.53 58.7027C45.5855 58.5719 45.6668 58.4531 45.7694 58.3531L47.8374 56.3344C47.9399 56.2343 48.0616 56.1549 48.1956 56.1007C48.3295 56.0466 48.4731 56.0187 48.6181 56.0187C48.7631 56.0187 48.9066 56.0466 49.0406 56.1007C49.1745 56.1549 49.2962 56.2343 49.3988 56.3344C49.5013 56.4345 49.5826 56.5533 49.6381 56.684C49.6936 56.8148 49.7222 56.9549 49.7222 57.0965C49.7222 57.238 49.6936 57.3781 49.6381 57.5089C49.5826 57.6396 49.5013 57.7584 49.3988 57.8585L47.3307 59.8772Z" fill="#F7CD58"/>
</g>
<path d="M63.7127 9.62134C83.5396 15.3813 97.9976 33.3099 97.9976 54.5348C97.9976 58.9645 97.3678 63.2507 96.191 67.3126M36.2849 9.62134C16.458 15.3813 2 33.3099 2 54.5348C2 58.9645 2.62976 63.2507 3.80665 67.3126M77.4267 92.9904C69.652 98.284 60.1968 101.388 49.9988 101.388C39.8008 101.388 30.3456 98.284 22.5709 92.9904" stroke="#F7CD58" stroke-width="4" stroke-linecap="round" stroke-linejoin="round"/>
<path d="M50.4194 1.72705C53.1782 1.72705 55.4146 3.87449 55.4146 6.52301C55.4146 9.17223 53.1782 11.3197 50.4194 11.3197C47.6605 11.3197 45.4241 9.17223 45.4241 6.52301C45.4241 3.8738 47.6612 1.72705 50.4194 1.72705ZM50.4194 1.72705C53.1782 1.72705 55.4146 3.87449 55.4146 6.52301C55.4146 9.17223 53.1782 11.3197 50.4194 11.3197C47.6605 11.3197 45.4241 9.17223 45.4241 6.52301C45.4241 3.8738 47.6612 1.72705 50.4194 1.72705ZM48.5462 12.9188H52.7097C56.2737 12.9188 59.1622 15.6919 59.1622 19.114V19.5131C59.1622 20.8616 56.273 20.913 52.7097 20.913H48.5462C44.9823 20.913 42.0938 20.9109 42.0938 19.5131V19.114C42.0938 15.6919 44.9823 12.9188 48.5462 12.9188Z" fill="#7152E1"/>
<path d="M13.0131 68.6616C15.772 68.6616 18.0083 70.8091 18.0083 73.4576C18.0083 76.1068 15.772 78.2542 13.0131 78.2542C10.2543 78.2542 8.01788 76.1068 8.01788 73.4576C8.01788 70.8084 10.255 68.6616 13.0131 68.6616ZM13.0131 68.6616C15.772 68.6616 18.0083 70.8091 18.0083 73.4576C18.0083 76.1068 15.772 78.2542 13.0131 78.2542C10.2543 78.2542 8.01788 76.1068 8.01788 73.4576C8.01788 70.8084 10.255 68.6616 13.0131 68.6616ZM11.14 79.8533H15.3035C18.8674 79.8533 21.756 82.6265 21.756 86.0485V86.4476C21.756 87.7962 18.8667 87.8475 15.3035 87.8475H11.14C7.57608 87.8475 4.6875 87.8455 4.6875 86.4476V86.0485C4.6875 82.6265 7.57608 79.8533 11.14 79.8533Z" fill="#7152E1"/>
<path d="M86.5717 68.6616C89.3305 68.6616 91.5669 70.8091 91.5669 73.4576C91.5669 76.1068 89.3305 78.2542 86.5717 78.2542C83.8129 78.2542 81.5765 76.1068 81.5765 73.4576C81.5765 70.8084 83.8136 68.6616 86.5717 68.6616ZM86.5717 68.6616C89.3305 68.6616 91.5669 70.8091 91.5669 73.4576C91.5669 76.1068 89.3305 78.2542 86.5717 78.2542C83.8129 78.2542 81.5765 76.1068 81.5765 73.4576C81.5765 70.8084 83.8136 68.6616 86.5717 68.6616ZM84.6986 79.8533H88.8621C92.426 79.8533 95.3146 82.6265 95.3146 86.0485V86.4476C95.3146 87.7962 92.4253 87.8475 88.8621 87.8475H84.6986C81.1347 87.8475 78.2461 87.8455 78.2461 86.4476V86.0485C78.2461 82.6265 81.1347 79.8533 84.6986 79.8533Z" fill="#7152E1"/>
<defs>
<clipPath id="clip0_1510_5127">
<rect width="37.4017" height="36.5094" fill="white" transform="translate(31.916 36.8877)"/>
</clipPath>
</defs>
</svg>
